<?xml version="1.0" encoding="utf-8"?>
<!-- Generator: Adobe Illustrator 16.0.0, SVG Export Plug-In . SVG Version: 6.00 Build 0)  -->
<!DOCTYPE svg PUBLIC "-//W3C//DTD SVG 1.1//EN" "http://www.w3.org/Graphics/SVG/1.1/DTD/svg11.dtd">
<svg version="1.1" id="Capa_1" xmlns="http://www.w3.org/2000/svg" xmlns:xlink="http://www.w3.org/1999/xlink" x="0px" y="0px"
	 width="106px" height="40px" viewBox="0 0 106 40" enable-background="new 0 0 106 40" xml:space="preserve">
<polygon fill="#0071B6" points="106,30.531 0,30.531 0,27.47 106,27.47 106,30.531 "/>
<polygon fill-rule="evenodd" clip-rule="evenodd" fill="#FFFFFF" points="32.853,30.188 34.438,30.815 34.438,31.154 28.278,31.154 
	28.278,30.815 29.613,30.188 29.612,27.06 32.853,27.06 32.853,30.188 "/>
<polygon fill="none" stroke="#FFFFFF" stroke-width="5" stroke-miterlimit="10" points="32.853,30.188 34.438,30.815 34.438,31.154 
	28.278,31.154 28.278,30.815 29.613,30.188 29.612,27.06 32.853,27.06 32.853,30.188 "/>
<path fill-rule="evenodd" clip-rule="evenodd" d="M14.388,8H0v0.477L2.185,9.15v15.571L0,25.395v0.476h14.959l0.517-5.807
	l-0.517-0.111l-2.206,2.916c-0.896,1.18-1.796,1.769-3.32,1.854l-3.349,0.167v-7.35H7.01c1.552,0,2.151,0.561,2.804,2.3l0.327,0.869
	h0.571v-7.547h-0.571l-0.327,0.926c-0.626,1.74-1.252,2.301-2.804,2.301H6.084V8.953l2.477,0.113
	c1.905,0.085,2.586,0.589,3.566,2.02l2.123,3.086l0.518-0.14L14.388,8L14.388,8z M22.288,18.361l-1.973-3.442l1.131-0.521v-0.365
	h-6.135v0.365l1.207,0.521l3.721,5.659l-3.441,4.224l-1.334,0.704v0.364h4.161v-0.364l-1.03-0.573l2.251-3.416l2.05,3.442
	l-1.208,0.547v0.364h6.212v-0.364l-1.209-0.547l-3.846-5.685l3.314-4.173l1.436-0.704v-0.365h-4.236v0.365l0.979,0.6L22.288,18.361
	L22.288,18.361z M64.762,17.24c0-1.853-0.836-3.599-3.113-3.599c-1.366,0-2.833,0.703-4.325,2.164l-0.102-0.052l-0.008-1.721h-4.475
	v0.362l1.445,0.717v9.77l-1.334,0.62v0.369h5.654v-0.364l-1.08-0.625v-8.632c0.859-0.365,1.416-0.495,2.301-0.495
	c1.443,0,1.797,1.07,1.797,2.53v6.598l-1.081,0.625v0.364h5.654v-0.364l-1.334-0.625V17.24L64.762,17.24z M75.316,22.179
	c0-2.268-1.771-3.077-3.414-3.754c-1.443-0.6-2.81-1.122-2.81-2.453c0-0.781,0.557-1.59,1.543-1.59c1.215,0,1.873,0.809,3.392,2.921
	l0.506-0.104l-0.076-3.233c-0.708-0.261-2.176-0.469-3.163-0.469c-2.731,0-4.706,1.695-4.706,3.755c0,2.294,1.771,3.102,3.416,3.806
	c1.442,0.6,2.782,1.121,2.782,2.426c0,1.042-0.606,1.772-1.619,1.772c-1.315,0-2.251-0.859-4.098-3.441l-0.507,0.053l0.077,3.572
	c1.163,0.47,2.453,0.703,3.972,0.703C73.041,26.143,75.316,24.604,75.316,22.179L75.316,22.179z M93.066,19.806
	c0-3.337-1.848-6.31-5.921-6.31c-4.049,0-6.225,3.181-6.225,6.31c0,3.364,1.848,6.337,5.923,6.337
	C90.915,26.143,93.066,22.936,93.066,19.806L93.066,19.806z M89.601,19.806c0,3.26-0.785,5.476-2.606,5.476
	c-1.823,0-2.605-2.216-2.605-5.476c0-3.259,0.782-5.475,2.605-5.475C88.815,14.331,89.601,16.547,89.601,19.806L89.601,19.806z
	 M29.613,30.188l-1.335,0.627v0.339h6.16v-0.339l-1.586-0.627v-4.201c0.53,0.104,1.063,0.155,1.568,0.155
	c4.275,0,6.755-3.155,6.755-6.676c0-3.598-2.024-5.971-4.478-5.971c-1.494,0-2.986,0.886-3.922,1.799l-0.102-0.051l0.001-1.211
	h-4.504v0.365l1.436,0.704L29.613,30.188L29.613,30.188z M37.709,20.275c0,3.677-1.188,5.033-2.478,5.033
	c-1.114,0-1.772-0.469-2.379-1.435v-8.163c0.632-0.156,1.188-0.233,1.72-0.233C36.597,15.478,37.709,16.938,37.709,20.275
	L37.709,20.275z M76.662,15.115v9.766l-1.41,0.625v0.364h5.983v-0.364l-1.334-0.625V14.033h-4.709v0.368L76.662,15.115
	L76.662,15.115z M104.666,17.24c0-1.853-0.836-3.599-3.112-3.599c-1.367,0-2.834,0.703-4.327,2.164l-0.101-0.052l-0.007-1.721
	h-4.475v0.362l1.445,0.717v9.77l-1.334,0.625v0.364h5.654v-0.364l-1.081-0.625v-8.632c0.858-0.365,1.416-0.495,2.301-0.495
	c1.442,0,1.797,1.07,1.797,2.53v6.598l-1.264,0.625v0.364H106v-0.364l-1.334-0.625V17.24L104.666,17.24z M76.119,10.08
	c0-1.144,0.9-2.071,2.012-2.071c1.11,0,2.009,0.927,2.009,2.071c0,1.144-0.898,2.072-2.009,2.072
	C77.02,12.151,76.119,11.223,76.119,10.08L76.119,10.08z M86.938,8.008h3.592L87.89,12.14h-2.042L86.938,8.008L86.938,8.008z
	 M49.026,25.868h3.277v-0.367l-1.334-0.623l0.007-7.665c0-2.347-1.341-3.571-3.593-3.571c-2.379,0-5.744,1.174-5.744,3.363
	c0,0.913,0.607,1.722,1.646,1.722c0.937,0,1.594-0.809,1.594-1.668c0-0.653-0.354-1.461-1.063-2.035
	c0.456-0.078,0.887-0.104,1.24-0.104c2.1,0,2.683,1.043,2.683,2.529v2.398c-3.872,0.026-6.503,1.304-6.503,3.703
	c0,1.617,1.164,2.738,3.062,2.738c1.417,0,2.53-0.677,3.441-1.644l0.127,0.054C47.88,25.347,48.38,25.868,49.026,25.868
	L49.026,25.868z M47.738,24.177c-0.583,0.339-1.013,0.495-1.519,0.495c-0.91,0-1.594-0.678-1.594-1.825
	c0-1.435,0.784-2.217,3.112-2.374V24.177L47.738,24.177z"/>
<polygon fill="#0071B6" points="106,30.531 1.666,30.531 1.666,27.47 106,27.47 106,30.531 "/>
<polygon fill-rule="evenodd" clip-rule="evenodd" fill="#FFFFFF" points="32.853,30.188 34.438,30.815 34.438,31.154 28.278,31.154 
	28.278,30.815 29.613,30.188 29.612,27.06 32.853,27.06 32.853,30.188 "/>
<polygon fill="none" stroke="#FFFFFF" stroke-width="5" stroke-miterlimit="10" points="32.853,30.188 34.438,30.815 34.438,31.154 
	28.278,31.154 28.278,30.815 29.613,30.188 29.612,27.06 32.853,27.06 32.853,30.188 "/>
<path fill-rule="evenodd" clip-rule="evenodd" d="M14.388,8H0v0.477L2.185,9.15v15.571L0,25.395v0.476h14.959l0.517-5.807
	l-0.517-0.111l-2.206,2.916c-0.896,1.18-1.796,1.769-3.32,1.854l-3.349,0.167v-7.35H7.01c1.552,0,2.151,0.561,2.804,2.3l0.327,0.869
	h0.571v-7.547h-0.571l-0.327,0.926c-0.626,1.74-1.252,2.301-2.804,2.301H6.084V8.953l2.477,0.113
	c1.905,0.085,2.586,0.589,3.566,2.02l2.123,3.086l0.518-0.14L14.388,8L14.388,8z M22.288,18.361l-1.973-3.442l1.131-0.521v-0.365
	h-6.135v0.365l1.207,0.521l3.721,5.659l-3.441,4.224l-1.334,0.704v0.364h4.161v-0.364l-1.03-0.573l2.251-3.416l2.05,3.442
	l-1.208,0.547v0.364h6.212v-0.364l-1.209-0.547l-3.846-5.685l3.314-4.173l1.436-0.704v-0.365h-4.236v0.365l0.979,0.6L22.288,18.361
	L22.288,18.361z M64.762,17.24c0-1.853-0.836-3.599-3.113-3.599c-1.366,0-2.833,0.703-4.325,2.164l-0.102-0.052l-0.008-1.721h-4.475
	v0.362l1.445,0.717v9.77l-1.334,0.62v0.369h5.654v-0.364l-1.08-0.625v-8.632c0.859-0.365,1.416-0.495,2.301-0.495
	c1.443,0,1.797,1.07,1.797,2.53v6.598l-1.081,0.625v0.364h5.654v-0.364l-1.334-0.625V17.24L64.762,17.24z M75.316,22.179
	c0-2.268-1.771-3.077-3.414-3.754c-1.443-0.6-2.81-1.122-2.81-2.453c0-0.781,0.557-1.59,1.543-1.59c1.215,0,1.873,0.809,3.392,2.921
	l0.506-0.104l-0.076-3.233c-0.708-0.261-2.176-0.469-3.163-0.469c-2.731,0-4.706,1.695-4.706,3.755c0,2.294,1.771,3.102,3.416,3.806
	c1.442,0.6,2.782,1.121,2.782,2.426c0,1.042-0.606,1.772-1.619,1.772c-1.315,0-2.251-0.859-4.098-3.441l-0.507,0.053l0.077,3.572
	c1.163,0.47,2.453,0.703,3.972,0.703C73.041,26.143,75.316,24.604,75.316,22.179L75.316,22.179z M93.066,19.806
	c0-3.337-1.848-6.31-5.921-6.31c-4.049,0-6.225,3.181-6.225,6.31c0,3.364,1.848,6.337,5.923,6.337
	C90.915,26.143,93.066,22.936,93.066,19.806L93.066,19.806z M89.601,19.806c0,3.26-0.785,5.476-2.606,5.476
	c-1.823,0-2.605-2.216-2.605-5.476c0-3.259,0.782-5.475,2.605-5.475C88.815,14.331,89.601,16.547,89.601,19.806L89.601,19.806z
	 M29.613,30.188l-1.335,0.627v0.339h6.16v-0.339l-1.586-0.627v-4.201c0.53,0.104,1.063,0.155,1.568,0.155
	c4.275,0,6.755-3.155,6.755-6.676c0-3.598-2.024-5.971-4.478-5.971c-1.494,0-2.986,0.886-3.922,1.799l-0.102-0.051l0.001-1.211
	h-4.504v0.365l1.436,0.704L29.613,30.188L29.613,30.188z M37.709,20.275c0,3.677-1.188,5.033-2.478,5.033
	c-1.114,0-1.772-0.469-2.379-1.435v-8.163c0.632-0.156,1.188-0.233,1.72-0.233C36.597,15.478,37.709,16.938,37.709,20.275
	L37.709,20.275z M76.662,15.115v9.766l-1.41,0.625v0.364h5.983v-0.364l-1.334-0.625V14.033h-4.709v0.368L76.662,15.115
	L76.662,15.115z M104.666,17.24c0-1.853-0.836-3.599-3.112-3.599c-1.367,0-2.834,0.703-4.327,2.164l-0.101-0.052l-0.007-1.721
	h-4.475v0.362l1.445,0.717v9.77l-1.334,0.625v0.364h5.654v-0.364l-1.081-0.625v-8.632c0.858-0.365,1.416-0.495,2.301-0.495
	c1.442,0,1.797,1.07,1.797,2.53v6.598l-1.264,0.625v0.364H106v-0.364l-1.334-0.625V17.24L104.666,17.24z M76.119,10.08
	c0-1.144,0.9-2.071,2.012-2.071c1.11,0,2.009,0.927,2.009,2.071c0,1.144-0.898,2.072-2.009,2.072
	C77.02,12.151,76.119,11.223,76.119,10.08L76.119,10.08z M86.938,8.008h3.592L87.89,12.14h-2.042L86.938,8.008L86.938,8.008z
	 M49.026,25.868h3.277v-0.367l-1.334-0.623l0.007-7.665c0-2.347-1.341-3.571-3.593-3.571c-2.379,0-5.744,1.174-5.744,3.363
	c0,0.913,0.607,1.722,1.646,1.722c0.937,0,1.594-0.809,1.594-1.668c0-0.653-0.354-1.461-1.063-2.035
	c0.456-0.078,0.887-0.104,1.24-0.104c2.1,0,2.683,1.043,2.683,2.529v2.398c-3.872,0.026-6.503,1.304-6.503,3.703
	c0,1.617,1.164,2.738,3.062,2.738c1.417,0,2.53-0.677,3.441-1.644l0.127,0.054C47.88,25.347,48.38,25.868,49.026,25.868
	L49.026,25.868z M47.738,24.177c-0.583,0.339-1.013,0.495-1.519,0.495c-0.91,0-1.594-0.678-1.594-1.825
	c0-1.435,0.784-2.217,3.112-2.374V24.177L47.738,24.177z"/>
</svg>
