<svg xmlns="http://www.w3.org/2000/svg" width="106" height="40" viewBox="0 0 106 40"><path fill="#0071B6" d="M106 30.531H0V27.47h106v3.061z"/><path fill-rule="evenodd" clip-rule="evenodd" fill="#FFF" d="M32.853 30.188l1.585.627v.339h-6.16v-.339l1.335-.627-.001-3.128h3.241v3.128z"/><path fill="none" stroke="#FFF" stroke-width="5" stroke-miterlimit="10" d="M32.853 30.188l1.585.627v.339h-6.16v-.339l1.335-.627-.001-3.128h3.241v3.128z"/><path fill-rule="evenodd" clip-rule="evenodd" d="M14.388 8H0v.477l2.185.673v15.571L0 25.395v.476h14.959l.517-5.807-.517-.111-2.206 2.916c-.896 1.18-1.796 1.769-3.32 1.854l-3.349.167v-7.35h.926c1.552 0 2.151.561 2.804 2.3l.327.869h.571v-7.547h-.571l-.327.926c-.626 1.74-1.252 2.301-2.804 2.301h-.926V8.953l2.477.113c1.905.085 2.586.589 3.566 2.02l2.123 3.086.518-.14L14.388 8zm7.9 10.361l-1.973-3.442 1.131-.521v-.365h-6.135v.365l1.207.521 3.721 5.659-3.441 4.224-1.334.704v.364h4.161v-.364l-1.03-.573 2.251-3.416 2.05 3.442-1.208.547v.364H27.9v-.364l-1.209-.547-3.846-5.685 3.314-4.173 1.436-.704v-.365h-4.236v.365l.979.6-2.05 3.364zm42.474-1.121c0-1.853-.836-3.599-3.113-3.599-1.366 0-2.833.703-4.325 2.164l-.102-.052-.008-1.721h-4.475v.362l1.445.717v9.77l-1.334.62v.369h5.654v-.364l-1.08-.625v-8.632c.859-.365 1.416-.495 2.301-.495 1.443 0 1.797 1.07 1.797 2.53v6.598l-1.081.625v.364h5.654v-.364l-1.334-.625V17.24h.001zm10.554 4.939c0-2.268-1.771-3.077-3.414-3.754-1.443-.6-2.81-1.122-2.81-2.453 0-.781.557-1.59 1.543-1.59 1.215 0 1.873.809 3.392 2.921l.506-.104-.076-3.233c-.708-.261-2.176-.469-3.163-.469-2.731 0-4.706 1.695-4.706 3.755 0 2.294 1.771 3.102 3.416 3.806 1.442.6 2.782 1.121 2.782 2.426 0 1.042-.606 1.772-1.619 1.772-1.315 0-2.251-.859-4.098-3.441l-.507.053.077 3.572c1.163.47 2.453.703 3.972.703 2.43 0 4.705-1.539 4.705-3.964zm17.75-2.373c0-3.337-1.848-6.31-5.921-6.31-4.049 0-6.225 3.181-6.225 6.31 0 3.364 1.848 6.337 5.923 6.337 4.072 0 6.223-3.207 6.223-6.337zm-3.465 0c0 3.26-.785 5.476-2.606 5.476-1.823 0-2.605-2.216-2.605-5.476 0-3.259.782-5.475 2.605-5.475 1.82 0 2.606 2.216 2.606 5.475zM29.613 30.188l-1.335.627v.339h6.16v-.339l-1.586-.627v-4.201c.53.104 1.063.155 1.568.155 4.275 0 6.755-3.155 6.755-6.676 0-3.598-2.024-5.971-4.478-5.971-1.494 0-2.986.886-3.922 1.799l-.102-.051.001-1.211H28.17v.365l1.436.704.007 15.087zm8.096-9.913c0 3.677-1.188 5.033-2.478 5.033-1.114 0-1.772-.469-2.379-1.435V15.71a7.121 7.121 0 0 1 1.72-.233c2.025.001 3.137 1.461 3.137 4.798zm38.953-5.16v9.766l-1.41.625v.364h5.983v-.364l-1.334-.625V14.033h-4.709v.368l1.47.714zm28.004 2.125c0-1.853-.836-3.599-3.112-3.599-1.367 0-2.834.703-4.327 2.164l-.101-.052-.007-1.721h-4.475v.362l1.445.717v9.77l-1.334.625v.364h5.654v-.364l-1.081-.625v-8.632c.858-.365 1.416-.495 2.301-.495 1.442 0 1.797 1.07 1.797 2.53v6.598l-1.264.625v.364H106v-.364l-1.334-.625V17.24zm-28.547-7.16c0-1.144.9-2.071 2.012-2.071 1.11 0 2.009.927 2.009 2.071 0 1.144-.898 2.072-2.009 2.072-1.111-.001-2.012-.929-2.012-2.072zm10.819-2.072h3.592l-2.64 4.132h-2.042l1.09-4.132zm-37.912 17.86h3.277v-.367l-1.334-.623.007-7.665c0-2.347-1.341-3.571-3.593-3.571-2.379 0-5.744 1.174-5.744 3.363 0 .913.607 1.722 1.646 1.722.937 0 1.594-.809 1.594-1.668 0-.653-.354-1.461-1.063-2.035a7.448 7.448 0 0 1 1.24-.104c2.1 0 2.683 1.043 2.683 2.529v2.398c-3.872.026-6.503 1.304-6.503 3.703 0 1.617 1.164 2.738 3.062 2.738 1.417 0 2.53-.677 3.441-1.644l.127.054c.014.649.514 1.17 1.16 1.17zm-1.288-1.691c-.583.339-1.013.495-1.519.495-.91 0-1.594-.678-1.594-1.825 0-1.435.784-2.217 3.112-2.374v3.704h.001z"/><path fill="#0071B6" d="M106 30.531H1.666V27.47H106v3.061z"/><path fill-rule="evenodd" clip-rule="evenodd" fill="#FFF" d="M32.853 30.188l1.585.627v.339h-6.16v-.339l1.335-.627-.001-3.128h3.241v3.128z"/><path fill="none" stroke="#FFF" stroke-width="5" stroke-miterlimit="10" d="M32.853 30.188l1.585.627v.339h-6.16v-.339l1.335-.627-.001-3.128h3.241v3.128z"/><path fill-rule="evenodd" clip-rule="evenodd" d="M14.388 8H0v.477l2.185.673v15.571L0 25.395v.476h14.959l.517-5.807-.517-.111-2.206 2.916c-.896 1.18-1.796 1.769-3.32 1.854l-3.349.167v-7.35h.926c1.552 0 2.151.561 2.804 2.3l.327.869h.571v-7.547h-.571l-.327.926c-.626 1.74-1.252 2.301-2.804 2.301h-.926V8.953l2.477.113c1.905.085 2.586.589 3.566 2.02l2.123 3.086.518-.14L14.388 8zm7.9 10.361l-1.973-3.442 1.131-.521v-.365h-6.135v.365l1.207.521 3.721 5.659-3.441 4.224-1.334.704v.364h4.161v-.364l-1.03-.573 2.251-3.416 2.05 3.442-1.208.547v.364H27.9v-.364l-1.209-.547-3.846-5.685 3.314-4.173 1.436-.704v-.365h-4.236v.365l.979.6-2.05 3.364zm42.474-1.121c0-1.853-.836-3.599-3.113-3.599-1.366 0-2.833.703-4.325 2.164l-.102-.052-.008-1.721h-4.475v.362l1.445.717v9.77l-1.334.62v.369h5.654v-.364l-1.08-.625v-8.632c.859-.365 1.416-.495 2.301-.495 1.443 0 1.797 1.07 1.797 2.53v6.598l-1.081.625v.364h5.654v-.364l-1.334-.625V17.24h.001zm10.554 4.939c0-2.268-1.771-3.077-3.414-3.754-1.443-.6-2.81-1.122-2.81-2.453 0-.781.557-1.59 1.543-1.59 1.215 0 1.873.809 3.392 2.921l.506-.104-.076-3.233c-.708-.261-2.176-.469-3.163-.469-2.731 0-4.706 1.695-4.706 3.755 0 2.294 1.771 3.102 3.416 3.806 1.442.6 2.782 1.121 2.782 2.426 0 1.042-.606 1.772-1.619 1.772-1.315 0-2.251-.859-4.098-3.441l-.507.053.077 3.572c1.163.47 2.453.703 3.972.703 2.43 0 4.705-1.539 4.705-3.964zm17.75-2.373c0-3.337-1.848-6.31-5.921-6.31-4.049 0-6.225 3.181-6.225 6.31 0 3.364 1.848 6.337 5.923 6.337 4.072 0 6.223-3.207 6.223-6.337zm-3.465 0c0 3.26-.785 5.476-2.606 5.476-1.823 0-2.605-2.216-2.605-5.476 0-3.259.782-5.475 2.605-5.475 1.82 0 2.606 2.216 2.606 5.475zM29.613 30.188l-1.335.627v.339h6.16v-.339l-1.586-.627v-4.201c.53.104 1.063.155 1.568.155 4.275 0 6.755-3.155 6.755-6.676 0-3.598-2.024-5.971-4.478-5.971-1.494 0-2.986.886-3.922 1.799l-.102-.051.001-1.211H28.17v.365l1.436.704.007 15.087zm8.096-9.913c0 3.677-1.188 5.033-2.478 5.033-1.114 0-1.772-.469-2.379-1.435V15.71a7.121 7.121 0 0 1 1.72-.233c2.025.001 3.137 1.461 3.137 4.798zm38.953-5.16v9.766l-1.41.625v.364h5.983v-.364l-1.334-.625V14.033h-4.709v.368l1.47.714zm28.004 2.125c0-1.853-.836-3.599-3.112-3.599-1.367 0-2.834.703-4.327 2.164l-.101-.052-.007-1.721h-4.475v.362l1.445.717v9.77l-1.334.625v.364h5.654v-.364l-1.081-.625v-8.632c.858-.365 1.416-.495 2.301-.495 1.442 0 1.797 1.07 1.797 2.53v6.598l-1.264.625v.364H106v-.364l-1.334-.625V17.24zm-28.547-7.16c0-1.144.9-2.071 2.012-2.071 1.11 0 2.009.927 2.009 2.071 0 1.144-.898 2.072-2.009 2.072-1.111-.001-2.012-.929-2.012-2.072zm10.819-2.072h3.592l-2.64 4.132h-2.042l1.09-4.132zm-37.912 17.86h3.277v-.367l-1.334-.623.007-7.665c0-2.347-1.341-3.571-3.593-3.571-2.379 0-5.744 1.174-5.744 3.363 0 .913.607 1.722 1.646 1.722.937 0 1.594-.809 1.594-1.668 0-.653-.354-1.461-1.063-2.035a7.448 7.448 0 0 1 1.24-.104c2.1 0 2.683 1.043 2.683 2.529v2.398c-3.872.026-6.503 1.304-6.503 3.703 0 1.617 1.164 2.738 3.062 2.738 1.417 0 2.53-.677 3.441-1.644l.127.054c.014.649.514 1.17 1.16 1.17zm-1.288-1.691c-.583.339-1.013.495-1.519.495-.91 0-1.594-.678-1.594-1.825 0-1.435.784-2.217 3.112-2.374v3.704h.001z"/></svg>