<svg width="542" height="44" viewBox="0 0 542 44" fill="none" xmlns="http://www.w3.org/2000/svg">
<rect x="0.5" y="0.5" width="541" height="43" rx="7.5" fill="#222222"/>
<path d="M15.5227 28L12.3409 16.3636H13.7727L16.2045 25.8409H16.3182L18.7955 16.3636H20.3864L22.8636 25.8409H22.9773L25.4091 16.3636H26.8409L23.6591 28H22.2045L19.6364 18.7273H19.5455L16.9773 28H15.5227ZM30.1705 28.2045C29.6174 28.2045 29.1155 28.1004 28.6648 27.892C28.214 27.6799 27.8561 27.375 27.5909 26.9773C27.3258 26.5758 27.1932 26.0909 27.1932 25.5227C27.1932 25.0227 27.2917 24.6174 27.4886 24.3068C27.6856 23.9924 27.9489 23.7462 28.2784 23.5682C28.608 23.3902 28.9716 23.2576 29.3693 23.1705C29.7708 23.0795 30.1742 23.0076 30.5795 22.9545C31.1098 22.8864 31.5398 22.8352 31.8693 22.8011C32.2027 22.7633 32.4451 22.7008 32.5966 22.6136C32.7519 22.5265 32.8295 22.375 32.8295 22.1591V22.1136C32.8295 21.553 32.6761 21.1174 32.3693 20.8068C32.0663 20.4962 31.6061 20.3409 30.9886 20.3409C30.3485 20.3409 29.8466 20.4811 29.483 20.7614C29.1193 21.0417 28.8636 21.3409 28.7159 21.6591L27.4432 21.2045C27.6705 20.6742 27.9735 20.2614 28.3523 19.9659C28.7348 19.6667 29.1515 19.4583 29.6023 19.3409C30.0568 19.2197 30.5038 19.1591 30.9432 19.1591C31.2235 19.1591 31.5455 19.1932 31.9091 19.2614C32.2765 19.3258 32.6307 19.4602 32.9716 19.6648C33.3163 19.8693 33.6023 20.178 33.8295 20.5909C34.0568 21.0038 34.1705 21.5568 34.1705 22.25V28H32.8295V26.8182H32.7614C32.6705 27.0076 32.5189 27.2102 32.3068 27.4261C32.0947 27.642 31.8125 27.8258 31.4602 27.9773C31.108 28.1288 30.678 28.2045 30.1705 28.2045ZM30.375 27C30.9053 27 31.3523 26.8958 31.7159 26.6875C32.0833 26.4792 32.3598 26.2102 32.5455 25.8807C32.7348 25.5511 32.8295 25.2045 32.8295 24.8409V23.6136C32.7727 23.6818 32.6477 23.7443 32.4545 23.8011C32.2652 23.8542 32.0455 23.9015 31.7955 23.9432C31.5492 23.9811 31.3087 24.0152 31.0739 24.0455C30.8428 24.072 30.6553 24.0947 30.5114 24.1136C30.1629 24.1591 29.8371 24.233 29.5341 24.3352C29.2348 24.4337 28.9924 24.5833 28.8068 24.7841C28.625 24.9811 28.5341 25.25 28.5341 25.5909C28.5341 26.0568 28.7064 26.4091 29.0511 26.6477C29.3996 26.8826 29.8409 27 30.375 27ZM37.9588 16.3636V28H36.6179V16.3636H37.9588ZM41.6648 24.8182L41.642 23.1591H41.9148L45.733 19.2727H47.392L43.3239 23.3864H43.2102L41.6648 24.8182ZM40.4148 28V16.3636H41.7557V28H40.4148ZM45.9602 28L42.5511 23.6818L43.5057 22.75L47.6648 28H45.9602ZM53.6179 28V19.2727H54.9134V20.6364H55.027C55.2088 20.1705 55.5024 19.8087 55.9077 19.5511C56.313 19.2898 56.7997 19.1591 57.3679 19.1591C57.9437 19.1591 58.4228 19.2898 58.8054 19.5511C59.1918 19.8087 59.4929 20.1705 59.7088 20.6364H59.7997C60.0232 20.1856 60.3584 19.8277 60.8054 19.5625C61.2524 19.2936 61.7884 19.1591 62.4134 19.1591C63.1937 19.1591 63.8319 19.4034 64.3281 19.892C64.8243 20.3769 65.0724 21.1326 65.0724 22.1591V28H63.7315V22.1591C63.7315 21.5152 63.5554 21.0549 63.2031 20.7784C62.8509 20.5019 62.4361 20.3636 61.9588 20.3636C61.3452 20.3636 60.8698 20.5492 60.5327 20.9205C60.1955 21.2879 60.027 21.7538 60.027 22.3182V28H58.6634V22.0227C58.6634 21.5265 58.5024 21.1269 58.1804 20.8239C57.8584 20.517 57.4437 20.3636 56.9361 20.3636C56.5876 20.3636 56.2618 20.4564 55.9588 20.642C55.6596 20.8277 55.4171 21.0852 55.2315 21.4148C55.0497 21.7405 54.9588 22.1174 54.9588 22.5455V28H53.6179ZM71.1832 28.1818C70.3423 28.1818 69.617 27.9962 69.0071 27.625C68.401 27.25 67.9332 26.7273 67.6037 26.0568C67.2779 25.3826 67.1151 24.5985 67.1151 23.7045C67.1151 22.8106 67.2779 22.0227 67.6037 21.3409C67.9332 20.6553 68.3916 20.1212 68.9787 19.7386C69.5696 19.3523 70.259 19.1591 71.0469 19.1591C71.5014 19.1591 71.9503 19.2348 72.3935 19.3864C72.8366 19.5379 73.2401 19.7841 73.6037 20.125C73.9673 20.4621 74.2571 20.9091 74.473 21.4659C74.6889 22.0227 74.7969 22.7083 74.7969 23.5227V24.0909H68.0696V22.9318H73.4332C73.4332 22.4394 73.3348 22 73.1378 21.6136C72.9446 21.2273 72.6681 20.9223 72.3082 20.6989C71.9522 20.4754 71.5317 20.3636 71.0469 20.3636C70.5128 20.3636 70.0507 20.4962 69.6605 20.7614C69.2741 21.0227 68.9768 21.3636 68.7685 21.7841C68.5601 22.2045 68.456 22.6553 68.456 23.1364V23.9091C68.456 24.5682 68.5696 25.1269 68.7969 25.5852C69.0279 26.0398 69.348 26.3864 69.7571 26.625C70.1662 26.8598 70.6416 26.9773 71.1832 26.9773C71.5355 26.9773 71.8537 26.928 72.1378 26.8295C72.4257 26.7273 72.6738 26.5758 72.8821 26.375C73.0904 26.1705 73.2514 25.9167 73.3651 25.6136L74.6605 25.9773C74.5241 26.4167 74.295 26.803 73.973 27.1364C73.651 27.4659 73.2533 27.7235 72.7798 27.9091C72.3063 28.0909 71.7741 28.1818 71.1832 28.1818ZM85.1321 19.2727V20.4091H80.6094V19.2727H85.1321ZM81.9276 17.1818H83.2685V25.5C83.2685 25.8788 83.3234 26.1629 83.4332 26.3523C83.5469 26.5379 83.6908 26.6629 83.8651 26.7273C84.0431 26.7879 84.2306 26.8182 84.4276 26.8182C84.5753 26.8182 84.6965 26.8106 84.7912 26.7955C84.8859 26.7765 84.9616 26.7614 85.0185 26.75L85.2912 27.9545C85.2003 27.9886 85.0734 28.0227 84.9105 28.0568C84.7476 28.0947 84.5412 28.1136 84.2912 28.1136C83.9124 28.1136 83.5412 28.0322 83.1776 27.8693C82.8177 27.7064 82.5185 27.4583 82.2798 27.125C82.045 26.7917 81.9276 26.3712 81.9276 25.8636V17.1818ZM88.6776 22.75V28H87.3366V16.3636H88.6776V20.6364H88.7912C88.9957 20.1856 89.3026 19.8277 89.7116 19.5625C90.1245 19.2936 90.6738 19.1591 91.3594 19.1591C91.9541 19.1591 92.4749 19.2784 92.9219 19.517C93.3688 19.7519 93.7154 20.1136 93.9616 20.6023C94.2116 21.0871 94.3366 21.7045 94.3366 22.4545V28H92.9957V22.5455C92.9957 21.8523 92.8158 21.3163 92.456 20.9375C92.0999 20.5549 91.6056 20.3636 90.973 20.3636C90.5336 20.3636 90.1397 20.4564 89.7912 20.642C89.4465 20.8277 89.1738 21.0985 88.973 21.4545C88.776 21.8106 88.6776 22.2424 88.6776 22.75ZM96.7898 28V19.2727H98.0852V20.5909H98.1761C98.3352 20.1591 98.6231 19.8087 99.0398 19.5398C99.4564 19.2708 99.9261 19.1364 100.449 19.1364C100.547 19.1364 100.67 19.1383 100.818 19.142C100.966 19.1458 101.078 19.1515 101.153 19.1591V20.5227C101.108 20.5114 101.004 20.4943 100.841 20.4716C100.682 20.4451 100.513 20.4318 100.335 20.4318C99.911 20.4318 99.5322 20.5208 99.1989 20.6989C98.8693 20.8731 98.608 21.1155 98.4148 21.4261C98.2254 21.733 98.1307 22.0833 98.1307 22.4773V28H96.7898ZM106.023 28.1818C105.235 28.1818 104.544 27.9943 103.949 27.6193C103.358 27.2443 102.896 26.7197 102.562 26.0455C102.233 25.3712 102.068 24.5833 102.068 23.6818C102.068 22.7727 102.233 21.9792 102.562 21.3011C102.896 20.6231 103.358 20.0966 103.949 19.7216C104.544 19.3466 105.235 19.1591 106.023 19.1591C106.811 19.1591 107.5 19.3466 108.091 19.7216C108.686 20.0966 109.148 20.6231 109.477 21.3011C109.811 21.9792 109.977 22.7727 109.977 23.6818C109.977 24.5833 109.811 25.3712 109.477 26.0455C109.148 26.7197 108.686 27.2443 108.091 27.6193C107.5 27.9943 106.811 28.1818 106.023 28.1818ZM106.023 26.9773C106.621 26.9773 107.114 26.8239 107.5 26.517C107.886 26.2102 108.172 25.8068 108.358 25.3068C108.544 24.8068 108.636 24.2652 108.636 23.6818C108.636 23.0985 108.544 22.5549 108.358 22.0511C108.172 21.5473 107.886 21.1402 107.5 20.8295C107.114 20.5189 106.621 20.3636 106.023 20.3636C105.424 20.3636 104.932 20.5189 104.545 20.8295C104.159 21.1402 103.873 21.5473 103.688 22.0511C103.502 22.5549 103.409 23.0985 103.409 23.6818C103.409 24.2652 103.502 24.8068 103.688 25.3068C103.873 25.8068 104.159 26.2102 104.545 26.517C104.932 26.8239 105.424 26.9773 106.023 26.9773ZM117.524 24.4318V19.2727H118.865V28H117.524V26.5227H117.433C117.229 26.9659 116.911 27.3428 116.479 27.6534C116.047 27.9602 115.501 28.1136 114.842 28.1136C114.297 28.1136 113.812 27.9943 113.388 27.7557C112.964 27.5133 112.63 27.1496 112.388 26.6648C112.145 26.1761 112.024 25.5606 112.024 24.8182V19.2727H113.365V24.7273C113.365 25.3636 113.543 25.8712 113.899 26.25C114.259 26.6288 114.717 26.8182 115.274 26.8182C115.607 26.8182 115.946 26.733 116.291 26.5625C116.64 26.392 116.931 26.1307 117.166 25.7784C117.405 25.4261 117.524 24.9773 117.524 24.4318ZM124.844 31.4545C124.196 31.4545 123.639 31.3712 123.173 31.2045C122.707 31.0417 122.319 30.8258 122.009 30.5568C121.702 30.2917 121.457 30.0076 121.276 29.7045L122.344 28.9545C122.465 29.1136 122.618 29.2955 122.804 29.5C122.99 29.7083 123.243 29.8883 123.565 30.0398C123.891 30.1951 124.317 30.2727 124.844 30.2727C125.548 30.2727 126.13 30.1023 126.588 29.7614C127.046 29.4205 127.276 28.8864 127.276 28.1591V26.3864H127.162C127.063 26.5455 126.923 26.7424 126.741 26.9773C126.563 27.2083 126.306 27.4148 125.969 27.5966C125.635 27.7746 125.185 27.8636 124.616 27.8636C123.912 27.8636 123.279 27.697 122.719 27.3636C122.162 27.0303 121.721 26.5455 121.395 25.9091C121.073 25.2727 120.912 24.5 120.912 23.5909C120.912 22.697 121.069 21.9186 121.384 21.2557C121.698 20.589 122.135 20.0739 122.696 19.7102C123.257 19.3428 123.904 19.1591 124.639 19.1591C125.207 19.1591 125.658 19.2538 125.991 19.4432C126.329 19.6288 126.586 19.8409 126.764 20.0795C126.946 20.3144 127.086 20.5076 127.185 20.6591H127.321V19.2727H128.616V28.25C128.616 29 128.446 29.6098 128.105 30.0795C127.768 30.553 127.313 30.8996 126.741 31.1193C126.173 31.3428 125.541 31.4545 124.844 31.4545ZM124.798 26.6591C125.336 26.6591 125.791 26.536 126.162 26.2898C126.533 26.0436 126.815 25.6894 127.009 25.2273C127.202 24.7652 127.298 24.2121 127.298 23.5682C127.298 22.9394 127.204 22.3845 127.014 21.9034C126.825 21.4223 126.545 21.0455 126.173 20.7727C125.802 20.5 125.344 20.3636 124.798 20.3636C124.23 20.3636 123.757 20.5076 123.378 20.7955C123.003 21.0833 122.721 21.4697 122.531 21.9545C122.346 22.4394 122.253 22.9773 122.253 23.5682C122.253 24.1742 122.348 24.7102 122.537 25.1761C122.73 25.6383 123.014 26.0019 123.389 26.267C123.768 26.5284 124.238 26.6591 124.798 26.6591ZM132.412 22.75V28H131.071V16.3636H132.412V20.6364H132.526C132.73 20.1856 133.037 19.8277 133.446 19.5625C133.859 19.2936 134.408 19.1591 135.094 19.1591C135.688 19.1591 136.209 19.2784 136.656 19.517C137.103 19.7519 137.45 20.1136 137.696 20.6023C137.946 21.0871 138.071 21.7045 138.071 22.4545V28H136.73V22.5455C136.73 21.8523 136.55 21.3163 136.19 20.9375C135.834 20.5549 135.34 20.3636 134.707 20.3636C134.268 20.3636 133.874 20.4564 133.526 20.642C133.181 20.8277 132.908 21.0985 132.707 21.4545C132.51 21.8106 132.412 22.2424 132.412 22.75ZM148.82 19.2727V20.4091H144.297V19.2727H148.82ZM145.615 17.1818H146.956V25.5C146.956 25.8788 147.011 26.1629 147.121 26.3523C147.234 26.5379 147.378 26.6629 147.553 26.7273C147.731 26.7879 147.918 26.8182 148.115 26.8182C148.263 26.8182 148.384 26.8106 148.479 26.7955C148.573 26.7765 148.649 26.7614 148.706 26.75L148.979 27.9545C148.888 27.9886 148.761 28.0227 148.598 28.0568C148.435 28.0947 148.229 28.1136 147.979 28.1136C147.6 28.1136 147.229 28.0322 146.865 27.8693C146.505 27.7064 146.206 27.4583 145.967 27.125C145.732 26.7917 145.615 26.3712 145.615 25.8636V17.1818ZM152.365 22.75V28H151.024V16.3636H152.365V20.6364H152.479C152.683 20.1856 152.99 19.8277 153.399 19.5625C153.812 19.2936 154.361 19.1591 155.047 19.1591C155.642 19.1591 156.162 19.2784 156.609 19.517C157.056 19.7519 157.403 20.1136 157.649 20.6023C157.899 21.0871 158.024 21.7045 158.024 22.4545V28H156.683V22.5455C156.683 21.8523 156.503 21.3163 156.143 20.9375C155.787 20.5549 155.293 20.3636 154.661 20.3636C154.221 20.3636 153.827 20.4564 153.479 20.642C153.134 20.8277 152.861 21.0985 152.661 21.4545C152.464 21.8106 152.365 22.2424 152.365 22.75ZM164.136 28.1818C163.295 28.1818 162.57 27.9962 161.96 27.625C161.354 27.25 160.886 26.7273 160.557 26.0568C160.231 25.3826 160.068 24.5985 160.068 23.7045C160.068 22.8106 160.231 22.0227 160.557 21.3409C160.886 20.6553 161.345 20.1212 161.932 19.7386C162.523 19.3523 163.212 19.1591 164 19.1591C164.455 19.1591 164.903 19.2348 165.347 19.3864C165.79 19.5379 166.193 19.7841 166.557 20.125C166.92 20.4621 167.21 20.9091 167.426 21.4659C167.642 22.0227 167.75 22.7083 167.75 23.5227V24.0909H161.023V22.9318H166.386C166.386 22.4394 166.288 22 166.091 21.6136C165.898 21.2273 165.621 20.9223 165.261 20.6989C164.905 20.4754 164.485 20.3636 164 20.3636C163.466 20.3636 163.004 20.4962 162.614 20.7614C162.227 21.0227 161.93 21.3636 161.722 21.7841C161.513 22.2045 161.409 22.6553 161.409 23.1364V23.9091C161.409 24.5682 161.523 25.1269 161.75 25.5852C161.981 26.0398 162.301 26.3864 162.71 26.625C163.119 26.8598 163.595 26.9773 164.136 26.9773C164.489 26.9773 164.807 26.928 165.091 26.8295C165.379 26.7273 165.627 26.5758 165.835 26.375C166.044 26.1705 166.205 25.9167 166.318 25.6136L167.614 25.9773C167.477 26.4167 167.248 26.803 166.926 27.1364C166.604 27.4659 166.206 27.7235 165.733 27.9091C165.259 28.0909 164.727 28.1818 164.136 28.1818ZM174.29 31.2727V19.2727H175.585V20.6591H175.744C175.843 20.5076 175.979 20.3144 176.153 20.0795C176.331 19.8409 176.585 19.6288 176.915 19.4432C177.248 19.2538 177.699 19.1591 178.267 19.1591C179.002 19.1591 179.65 19.3428 180.21 19.7102C180.771 20.0777 181.208 20.5985 181.523 21.2727C181.837 21.947 181.994 22.7424 181.994 23.6591C181.994 24.5833 181.837 25.3845 181.523 26.0625C181.208 26.7367 180.773 27.2595 180.216 27.6307C179.659 27.9981 179.017 28.1818 178.29 28.1818C177.729 28.1818 177.28 28.089 176.943 27.9034C176.606 27.714 176.347 27.5 176.165 27.2614C175.983 27.0189 175.843 26.8182 175.744 26.6591H175.631V31.2727H174.29ZM175.608 23.6364C175.608 24.2955 175.705 24.8769 175.898 25.3807C176.091 25.8807 176.373 26.2727 176.744 26.5568C177.116 26.8371 177.57 26.9773 178.108 26.9773C178.669 26.9773 179.136 26.8295 179.511 26.5341C179.89 26.2348 180.174 25.8333 180.364 25.3295C180.557 24.822 180.653 24.2576 180.653 23.6364C180.653 23.0227 180.559 22.4697 180.369 21.9773C180.184 21.4811 179.902 21.089 179.523 20.8011C179.148 20.5095 178.676 20.3636 178.108 20.3636C177.563 20.3636 177.104 20.5019 176.733 20.7784C176.362 21.0511 176.081 21.4337 175.892 21.9261C175.703 22.4148 175.608 22.9848 175.608 23.6364ZM184.04 28V19.2727H185.335V20.5909H185.426C185.585 20.1591 185.873 19.8087 186.29 19.5398C186.706 19.2708 187.176 19.1364 187.699 19.1364C187.797 19.1364 187.92 19.1383 188.068 19.142C188.216 19.1458 188.328 19.1515 188.403 19.1591V20.5227C188.358 20.5114 188.254 20.4943 188.091 20.4716C187.932 20.4451 187.763 20.4318 187.585 20.4318C187.161 20.4318 186.782 20.5208 186.449 20.6989C186.119 20.8731 185.858 21.1155 185.665 21.4261C185.475 21.733 185.381 22.0833 185.381 22.4773V28H184.04ZM193.273 28.1818C192.485 28.1818 191.794 27.9943 191.199 27.6193C190.608 27.2443 190.146 26.7197 189.812 26.0455C189.483 25.3712 189.318 24.5833 189.318 23.6818C189.318 22.7727 189.483 21.9792 189.812 21.3011C190.146 20.6231 190.608 20.0966 191.199 19.7216C191.794 19.3466 192.485 19.1591 193.273 19.1591C194.061 19.1591 194.75 19.3466 195.341 19.7216C195.936 20.0966 196.398 20.6231 196.727 21.3011C197.061 21.9792 197.227 22.7727 197.227 23.6818C197.227 24.5833 197.061 25.3712 196.727 26.0455C196.398 26.7197 195.936 27.2443 195.341 27.6193C194.75 27.9943 194.061 28.1818 193.273 28.1818ZM193.273 26.9773C193.871 26.9773 194.364 26.8239 194.75 26.517C195.136 26.2102 195.422 25.8068 195.608 25.3068C195.794 24.8068 195.886 24.2652 195.886 23.6818C195.886 23.0985 195.794 22.5549 195.608 22.0511C195.422 21.5473 195.136 21.1402 194.75 20.8295C194.364 20.5189 193.871 20.3636 193.273 20.3636C192.674 20.3636 192.182 20.5189 191.795 20.8295C191.409 21.1402 191.123 21.5473 190.938 22.0511C190.752 22.5549 190.659 23.0985 190.659 23.6818C190.659 24.2652 190.752 24.8068 190.938 25.3068C191.123 25.8068 191.409 26.2102 191.795 26.517C192.182 26.8239 192.674 26.9773 193.273 26.9773ZM202.82 28.1818C202.001 28.1818 201.297 27.9886 200.706 27.6023C200.115 27.2159 199.661 26.6837 199.342 26.0057C199.024 25.3277 198.865 24.553 198.865 23.6818C198.865 22.7955 199.028 22.0133 199.354 21.3352C199.683 20.6534 200.142 20.1212 200.729 19.7386C201.32 19.3523 202.009 19.1591 202.797 19.1591C203.411 19.1591 203.964 19.2727 204.456 19.5C204.948 19.7273 205.352 20.0455 205.666 20.4545C205.981 20.8636 206.176 21.3409 206.251 21.8864H204.911C204.808 21.4886 204.581 21.1364 204.229 20.8295C203.88 20.5189 203.411 20.3636 202.82 20.3636C202.297 20.3636 201.839 20.5 201.445 20.7727C201.054 21.0417 200.75 21.4223 200.53 21.9148C200.314 22.4034 200.206 22.9773 200.206 23.6364C200.206 24.3106 200.312 24.8977 200.524 25.3977C200.74 25.8977 201.043 26.286 201.433 26.5625C201.827 26.839 202.289 26.9773 202.82 26.9773C203.168 26.9773 203.484 26.9167 203.768 26.7955C204.053 26.6742 204.293 26.5 204.49 26.2727C204.687 26.0455 204.827 25.7727 204.911 25.4545H206.251C206.176 25.9697 205.988 26.4337 205.689 26.8466C205.393 27.2557 205.001 27.5814 204.513 27.8239C204.028 28.0625 203.464 28.1818 202.82 28.1818ZM211.871 28.1818C211.03 28.1818 210.304 27.9962 209.695 27.625C209.089 27.25 208.621 26.7273 208.291 26.0568C207.965 25.3826 207.803 24.5985 207.803 23.7045C207.803 22.8106 207.965 22.0227 208.291 21.3409C208.621 20.6553 209.079 20.1212 209.666 19.7386C210.257 19.3523 210.946 19.1591 211.734 19.1591C212.189 19.1591 212.638 19.2348 213.081 19.3864C213.524 19.5379 213.928 19.7841 214.291 20.125C214.655 20.4621 214.945 20.9091 215.161 21.4659C215.376 22.0227 215.484 22.7083 215.484 23.5227V24.0909H208.757V22.9318H214.121C214.121 22.4394 214.022 22 213.825 21.6136C213.632 21.2273 213.356 20.9223 212.996 20.6989C212.64 20.4754 212.219 20.3636 211.734 20.3636C211.2 20.3636 210.738 20.4962 210.348 20.7614C209.962 21.0227 209.664 21.3636 209.456 21.7841C209.248 22.2045 209.143 22.6553 209.143 23.1364V23.9091C209.143 24.5682 209.257 25.1269 209.484 25.5852C209.715 26.0398 210.036 26.3864 210.445 26.625C210.854 26.8598 211.329 26.9773 211.871 26.9773C212.223 26.9773 212.541 26.928 212.825 26.8295C213.113 26.7273 213.361 26.5758 213.57 26.375C213.778 26.1705 213.939 25.9167 214.053 25.6136L215.348 25.9773C215.212 26.4167 214.982 26.803 214.661 27.1364C214.339 27.4659 213.941 27.7235 213.467 27.9091C212.994 28.0909 212.462 28.1818 211.871 28.1818ZM223.706 21.2273L222.501 21.5682C222.426 21.3674 222.314 21.1723 222.166 20.983C222.022 20.7898 221.825 20.6307 221.575 20.5057C221.325 20.3807 221.005 20.3182 220.615 20.3182C220.081 20.3182 219.636 20.4413 219.28 20.6875C218.928 20.9299 218.751 21.2386 218.751 21.6136C218.751 21.947 218.873 22.2102 219.115 22.4034C219.357 22.5966 219.736 22.7576 220.251 22.8864L221.547 23.2045C222.327 23.3939 222.909 23.6837 223.291 24.0739C223.674 24.4602 223.865 24.9583 223.865 25.5682C223.865 26.0682 223.721 26.5152 223.433 26.9091C223.149 27.303 222.751 27.6136 222.24 27.8409C221.729 28.0682 221.134 28.1818 220.456 28.1818C219.566 28.1818 218.829 27.9886 218.246 27.6023C217.662 27.2159 217.293 26.6515 217.138 25.9091L218.411 25.5909C218.532 26.0606 218.761 26.4129 219.098 26.6477C219.439 26.8826 219.884 27 220.433 27C221.058 27 221.554 26.8674 221.922 26.6023C222.293 26.3333 222.479 26.0114 222.479 25.6364C222.479 25.3333 222.373 25.0795 222.161 24.875C221.948 24.6667 221.623 24.5114 221.183 24.4091L219.729 24.0682C218.929 23.8788 218.342 23.5852 217.967 23.1875C217.596 22.786 217.411 22.2841 217.411 21.6818C217.411 21.1894 217.549 20.7538 217.825 20.375C218.106 19.9962 218.486 19.6989 218.967 19.483C219.452 19.267 220.001 19.1591 220.615 19.1591C221.479 19.1591 222.157 19.3485 222.649 19.7273C223.145 20.1061 223.498 20.6061 223.706 21.2273ZM232.065 21.2273L230.861 21.5682C230.785 21.3674 230.673 21.1723 230.526 20.983C230.382 20.7898 230.185 20.6307 229.935 20.5057C229.685 20.3807 229.365 20.3182 228.974 20.3182C228.44 20.3182 227.995 20.4413 227.639 20.6875C227.287 20.9299 227.111 21.2386 227.111 21.6136C227.111 21.947 227.232 22.2102 227.474 22.4034C227.717 22.5966 228.096 22.7576 228.611 22.8864L229.906 23.2045C230.687 23.3939 231.268 23.6837 231.651 24.0739C232.033 24.4602 232.224 24.9583 232.224 25.5682C232.224 26.0682 232.08 26.5152 231.793 26.9091C231.509 27.303 231.111 27.6136 230.599 27.8409C230.088 28.0682 229.493 28.1818 228.815 28.1818C227.925 28.1818 227.188 27.9886 226.605 27.6023C226.022 27.2159 225.652 26.6515 225.497 25.9091L226.77 25.5909C226.891 26.0606 227.12 26.4129 227.457 26.6477C227.798 26.8826 228.243 27 228.793 27C229.418 27 229.914 26.8674 230.281 26.6023C230.652 26.3333 230.838 26.0114 230.838 25.6364C230.838 25.3333 230.732 25.0795 230.52 24.875C230.308 24.6667 229.982 24.5114 229.543 24.4091L228.088 24.0682C227.289 23.8788 226.702 23.5852 226.327 23.1875C225.955 22.786 225.77 22.2841 225.77 21.6818C225.77 21.1894 225.908 20.7538 226.185 20.375C226.465 19.9962 226.846 19.6989 227.327 19.483C227.812 19.267 228.361 19.1591 228.974 19.1591C229.838 19.1591 230.516 19.3485 231.009 19.7273C231.505 20.1061 231.857 20.6061 232.065 21.2273ZM242.629 19.2727V20.4091H237.925V19.2727H242.629ZM239.334 28V18.0682C239.334 17.5682 239.451 17.1515 239.686 16.8182C239.921 16.4848 240.226 16.2348 240.601 16.0682C240.976 15.9015 241.372 15.8182 241.788 15.8182C242.118 15.8182 242.387 15.8447 242.595 15.8977C242.804 15.9508 242.959 16 243.061 16.0455L242.675 17.2045C242.607 17.1818 242.512 17.1534 242.391 17.1193C242.273 17.0852 242.118 17.0682 241.925 17.0682C241.482 17.0682 241.161 17.1799 240.964 17.4034C240.771 17.6269 240.675 17.9545 240.675 18.3864V28H239.334ZM247.695 28.1818C246.907 28.1818 246.215 27.9943 245.621 27.6193C245.03 27.2443 244.568 26.7197 244.234 26.0455C243.905 25.3712 243.74 24.5833 243.74 23.6818C243.74 22.7727 243.905 21.9792 244.234 21.3011C244.568 20.6231 245.03 20.0966 245.621 19.7216C246.215 19.3466 246.907 19.1591 247.695 19.1591C248.482 19.1591 249.172 19.3466 249.763 19.7216C250.357 20.0966 250.82 20.6231 251.149 21.3011C251.482 21.9792 251.649 22.7727 251.649 23.6818C251.649 24.5833 251.482 25.3712 251.149 26.0455C250.82 26.7197 250.357 27.2443 249.763 27.6193C249.172 27.9943 248.482 28.1818 247.695 28.1818ZM247.695 26.9773C248.293 26.9773 248.786 26.8239 249.172 26.517C249.558 26.2102 249.844 25.8068 250.03 25.3068C250.215 24.8068 250.308 24.2652 250.308 23.6818C250.308 23.0985 250.215 22.5549 250.03 22.0511C249.844 21.5473 249.558 21.1402 249.172 20.8295C248.786 20.5189 248.293 20.3636 247.695 20.3636C247.096 20.3636 246.604 20.5189 246.217 20.8295C245.831 21.1402 245.545 21.5473 245.359 22.0511C245.174 22.5549 245.081 23.0985 245.081 23.6818C245.081 24.2652 245.174 24.8068 245.359 25.3068C245.545 25.8068 245.831 26.2102 246.217 26.517C246.604 26.8239 247.096 26.9773 247.695 26.9773ZM253.696 28V19.2727H254.991V20.5909H255.082C255.241 20.1591 255.529 19.8087 255.946 19.5398C256.363 19.2708 256.832 19.1364 257.355 19.1364C257.454 19.1364 257.577 19.1383 257.724 19.142C257.872 19.1458 257.984 19.1515 258.06 19.1591V20.5227C258.014 20.5114 257.91 20.4943 257.747 20.4716C257.588 20.4451 257.42 20.4318 257.241 20.4318C256.817 20.4318 256.438 20.5208 256.105 20.6989C255.776 20.8731 255.514 21.1155 255.321 21.4261C255.132 21.733 255.037 22.0833 255.037 22.4773V28H253.696ZM268.036 19.2727V20.4091H263.331V19.2727H268.036ZM264.74 28V18.0682C264.74 17.5682 264.857 17.1515 265.092 16.8182C265.327 16.4848 265.632 16.2348 266.007 16.0682C266.382 15.9015 266.778 15.8182 267.195 15.8182C267.524 15.8182 267.793 15.8447 268.001 15.8977C268.21 15.9508 268.365 16 268.467 16.0455L268.081 17.2045C268.013 17.1818 267.918 17.1534 267.797 17.1193C267.679 17.0852 267.524 17.0682 267.331 17.0682C266.888 17.0682 266.568 17.1799 266.371 17.4034C266.178 17.6269 266.081 17.9545 266.081 18.3864V28H264.74ZM269.915 28V19.2727H271.256V28H269.915ZM270.597 17.8182C270.335 17.8182 270.11 17.7292 269.92 17.5511C269.735 17.3731 269.642 17.1591 269.642 16.9091C269.642 16.6591 269.735 16.4451 269.92 16.267C270.11 16.089 270.335 16 270.597 16C270.858 16 271.081 16.089 271.267 16.267C271.456 16.4451 271.551 16.6591 271.551 16.9091C271.551 17.1591 271.456 17.3731 271.267 17.5511C271.081 17.7292 270.858 17.8182 270.597 17.8182ZM275.053 16.3636V28H273.712V16.3636H275.053ZM277.509 28V19.2727H278.849V28H277.509ZM278.19 17.8182C277.929 17.8182 277.704 17.7292 277.514 17.5511C277.329 17.3731 277.236 17.1591 277.236 16.9091C277.236 16.6591 277.329 16.4451 277.514 16.267C277.704 16.089 277.929 16 278.19 16C278.452 16 278.675 16.089 278.861 16.267C279.05 16.4451 279.145 16.6591 279.145 16.9091C279.145 17.1591 279.05 17.3731 278.861 17.5511C278.675 17.7292 278.452 17.8182 278.19 17.8182ZM282.646 22.75V28H281.305V19.2727H282.601V20.6364H282.714C282.919 20.1932 283.23 19.8371 283.646 19.5682C284.063 19.2955 284.601 19.1591 285.26 19.1591C285.851 19.1591 286.368 19.2803 286.811 19.5227C287.254 19.7614 287.599 20.125 287.845 20.6136C288.091 21.0985 288.214 21.7121 288.214 22.4545V28H286.874V22.5455C286.874 21.8598 286.696 21.3258 286.339 20.9432C285.983 20.5568 285.495 20.3636 284.874 20.3636C284.446 20.3636 284.063 20.4564 283.726 20.642C283.393 20.8277 283.129 21.0985 282.936 21.4545C282.743 21.8106 282.646 22.2424 282.646 22.75ZM294.188 31.4545C293.54 31.4545 292.983 31.3712 292.517 31.2045C292.051 31.0417 291.663 30.8258 291.352 30.5568C291.045 30.2917 290.801 30.0076 290.619 29.7045L291.688 28.9545C291.809 29.1136 291.962 29.2955 292.148 29.5C292.333 29.7083 292.587 29.8883 292.909 30.0398C293.235 30.1951 293.661 30.2727 294.188 30.2727C294.892 30.2727 295.473 30.1023 295.932 29.7614C296.39 29.4205 296.619 28.8864 296.619 28.1591V26.3864H296.506C296.407 26.5455 296.267 26.7424 296.085 26.9773C295.907 27.2083 295.65 27.4148 295.312 27.5966C294.979 27.7746 294.528 27.8636 293.96 27.8636C293.256 27.8636 292.623 27.697 292.062 27.3636C291.506 27.0303 291.064 26.5455 290.739 25.9091C290.417 25.2727 290.256 24.5 290.256 23.5909C290.256 22.697 290.413 21.9186 290.727 21.2557C291.042 20.589 291.479 20.0739 292.04 19.7102C292.6 19.3428 293.248 19.1591 293.983 19.1591C294.551 19.1591 295.002 19.2538 295.335 19.4432C295.672 19.6288 295.93 19.8409 296.108 20.0795C296.29 20.3144 296.43 20.5076 296.528 20.6591H296.665V19.2727H297.96V28.25C297.96 29 297.79 29.6098 297.449 30.0795C297.112 30.553 296.657 30.8996 296.085 31.1193C295.517 31.3428 294.884 31.4545 294.188 31.4545ZM294.142 26.6591C294.68 26.6591 295.134 26.536 295.506 26.2898C295.877 26.0436 296.159 25.6894 296.352 25.2273C296.545 24.7652 296.642 24.2121 296.642 23.5682C296.642 22.9394 296.547 22.3845 296.358 21.9034C296.169 21.4223 295.888 21.0455 295.517 20.7727C295.146 20.5 294.688 20.3636 294.142 20.3636C293.574 20.3636 293.1 20.5076 292.722 20.7955C292.347 21.0833 292.064 21.4697 291.875 21.9545C291.689 22.4394 291.597 22.9773 291.597 23.5682C291.597 24.1742 291.691 24.7102 291.881 25.1761C292.074 25.6383 292.358 26.0019 292.733 26.267C293.112 26.5284 293.581 26.6591 294.142 26.6591ZM307.483 28.2045C306.93 28.2045 306.428 28.1004 305.977 27.892C305.527 27.6799 305.169 27.375 304.903 26.9773C304.638 26.5758 304.506 26.0909 304.506 25.5227C304.506 25.0227 304.604 24.6174 304.801 24.3068C304.998 23.9924 305.261 23.7462 305.591 23.5682C305.92 23.3902 306.284 23.2576 306.682 23.1705C307.083 23.0795 307.487 23.0076 307.892 22.9545C308.422 22.8864 308.852 22.8352 309.182 22.8011C309.515 22.7633 309.758 22.7008 309.909 22.6136C310.064 22.5265 310.142 22.375 310.142 22.1591V22.1136C310.142 21.553 309.989 21.1174 309.682 20.8068C309.379 20.4962 308.919 20.3409 308.301 20.3409C307.661 20.3409 307.159 20.4811 306.795 20.7614C306.432 21.0417 306.176 21.3409 306.028 21.6591L304.756 21.2045C304.983 20.6742 305.286 20.2614 305.665 19.9659C306.047 19.6667 306.464 19.4583 306.915 19.3409C307.369 19.2197 307.816 19.1591 308.256 19.1591C308.536 19.1591 308.858 19.1932 309.222 19.2614C309.589 19.3258 309.943 19.4602 310.284 19.6648C310.629 19.8693 310.915 20.178 311.142 20.5909C311.369 21.0038 311.483 21.5568 311.483 22.25V28H310.142V26.8182H310.074C309.983 27.0076 309.831 27.2102 309.619 27.4261C309.407 27.642 309.125 27.8258 308.773 27.9773C308.42 28.1288 307.991 28.2045 307.483 28.2045ZM307.688 27C308.218 27 308.665 26.8958 309.028 26.6875C309.396 26.4792 309.672 26.2102 309.858 25.8807C310.047 25.5511 310.142 25.2045 310.142 24.8409V23.6136C310.085 23.6818 309.96 23.7443 309.767 23.8011C309.578 23.8542 309.358 23.9015 309.108 23.9432C308.862 23.9811 308.621 24.0152 308.386 24.0455C308.155 24.072 307.968 24.0947 307.824 24.1136C307.475 24.1591 307.15 24.233 306.847 24.3352C306.547 24.4337 306.305 24.5833 306.119 24.7841C305.938 24.9811 305.847 25.25 305.847 25.5909C305.847 26.0568 306.019 26.4091 306.364 26.6477C306.712 26.8826 307.153 27 307.688 27ZM322.226 19.2727V20.4091H317.703V19.2727H322.226ZM319.021 17.1818H320.362V25.5C320.362 25.8788 320.417 26.1629 320.527 26.3523C320.641 26.5379 320.785 26.6629 320.959 26.7273C321.137 26.7879 321.324 26.8182 321.521 26.8182C321.669 26.8182 321.79 26.8106 321.885 26.7955C321.98 26.7765 322.055 26.7614 322.112 26.75L322.385 27.9545C322.294 27.9886 322.167 28.0227 322.004 28.0568C321.841 28.0947 321.635 28.1136 321.385 28.1136C321.006 28.1136 320.635 28.0322 320.271 27.8693C319.911 27.7064 319.612 27.4583 319.374 27.125C319.139 26.7917 319.021 26.3712 319.021 25.8636V17.1818ZM324.243 28V19.2727H325.538V20.5909H325.629C325.788 20.1591 326.076 19.8087 326.493 19.5398C326.91 19.2708 327.379 19.1364 327.902 19.1364C328 19.1364 328.124 19.1383 328.271 19.142C328.419 19.1458 328.531 19.1515 328.607 19.1591V20.5227C328.561 20.5114 328.457 20.4943 328.294 20.4716C328.135 20.4451 327.966 20.4318 327.788 20.4318C327.364 20.4318 326.985 20.5208 326.652 20.6989C326.322 20.8731 326.061 21.1155 325.868 21.4261C325.679 21.733 325.584 22.0833 325.584 22.4773V28H324.243ZM332.764 28.2045C332.211 28.2045 331.709 28.1004 331.259 27.892C330.808 27.6799 330.45 27.375 330.185 26.9773C329.92 26.5758 329.787 26.0909 329.787 25.5227C329.787 25.0227 329.885 24.6174 330.082 24.3068C330.279 23.9924 330.543 23.7462 330.872 23.5682C331.202 23.3902 331.565 23.2576 331.963 23.1705C332.365 23.0795 332.768 23.0076 333.173 22.9545C333.704 22.8864 334.134 22.8352 334.463 22.8011C334.796 22.7633 335.039 22.7008 335.19 22.6136C335.346 22.5265 335.423 22.375 335.423 22.1591V22.1136C335.423 21.553 335.27 21.1174 334.963 20.8068C334.66 20.4962 334.2 20.3409 333.582 20.3409C332.942 20.3409 332.44 20.4811 332.077 20.7614C331.713 21.0417 331.457 21.3409 331.31 21.6591L330.037 21.2045C330.264 20.6742 330.567 20.2614 330.946 19.9659C331.329 19.6667 331.745 19.4583 332.196 19.3409C332.651 19.2197 333.098 19.1591 333.537 19.1591C333.817 19.1591 334.139 19.1932 334.503 19.2614C334.87 19.3258 335.224 19.4602 335.565 19.6648C335.91 19.8693 336.196 20.178 336.423 20.5909C336.651 21.0038 336.764 21.5568 336.764 22.25V28H335.423V26.8182H335.355C335.264 27.0076 335.113 27.2102 334.901 27.4261C334.688 27.642 334.406 27.8258 334.054 27.9773C333.702 28.1288 333.272 28.2045 332.764 28.2045ZM332.969 27C333.499 27 333.946 26.8958 334.31 26.6875C334.677 26.4792 334.954 26.2102 335.139 25.8807C335.329 25.5511 335.423 25.2045 335.423 24.8409V23.6136C335.366 23.6818 335.241 23.7443 335.048 23.8011C334.859 23.8542 334.639 23.9015 334.389 23.9432C334.143 23.9811 333.902 24.0152 333.668 24.0455C333.437 24.072 333.249 24.0947 333.105 24.1136C332.757 24.1591 332.431 24.233 332.128 24.3352C331.829 24.4337 331.586 24.5833 331.401 24.7841C331.219 24.9811 331.128 25.25 331.128 25.5909C331.128 26.0568 331.3 26.4091 331.645 26.6477C331.993 26.8826 332.435 27 332.969 27ZM342.507 28.1818C341.78 28.1818 341.138 27.9981 340.581 27.6307C340.024 27.2595 339.589 26.7367 339.274 26.0625C338.96 25.3845 338.803 24.5833 338.803 23.6591C338.803 22.7424 338.96 21.947 339.274 21.2727C339.589 20.5985 340.026 20.0777 340.587 19.7102C341.147 19.3428 341.795 19.1591 342.53 19.1591C343.098 19.1591 343.547 19.2538 343.876 19.4432C344.21 19.6288 344.464 19.8409 344.638 20.0795C344.816 20.3144 344.954 20.5076 345.053 20.6591H345.166V16.3636H346.507V28H345.212V26.6591H345.053C344.954 26.8182 344.814 27.0189 344.632 27.2614C344.45 27.5 344.191 27.714 343.854 27.9034C343.517 28.089 343.068 28.1818 342.507 28.1818ZM342.689 26.9773C343.227 26.9773 343.681 26.8371 344.053 26.5568C344.424 26.2727 344.706 25.8807 344.899 25.3807C345.092 24.8769 345.189 24.2955 345.189 23.6364C345.189 22.9848 345.094 22.4148 344.905 21.9261C344.715 21.4337 344.435 21.0511 344.064 20.7784C343.693 20.5019 343.234 20.3636 342.689 20.3636C342.121 20.3636 341.647 20.5095 341.268 20.8011C340.893 21.089 340.611 21.4811 340.422 21.9773C340.236 22.4697 340.143 23.0227 340.143 23.6364C340.143 24.2576 340.238 24.822 340.428 25.3295C340.621 25.8333 340.905 26.2348 341.28 26.5341C341.659 26.8295 342.128 26.9773 342.689 26.9773ZM352.808 28.1818C351.967 28.1818 351.242 27.9962 350.632 27.625C350.026 27.25 349.558 26.7273 349.229 26.0568C348.903 25.3826 348.74 24.5985 348.74 23.7045C348.74 22.8106 348.903 22.0227 349.229 21.3409C349.558 20.6553 350.017 20.1212 350.604 19.7386C351.195 19.3523 351.884 19.1591 352.672 19.1591C353.126 19.1591 353.575 19.2348 354.018 19.3864C354.462 19.5379 354.865 19.7841 355.229 20.125C355.592 20.4621 355.882 20.9091 356.098 21.4659C356.314 22.0227 356.422 22.7083 356.422 23.5227V24.0909H349.695V22.9318H355.058C355.058 22.4394 354.96 22 354.763 21.6136C354.57 21.2273 354.293 20.9223 353.933 20.6989C353.577 20.4754 353.157 20.3636 352.672 20.3636C352.138 20.3636 351.676 20.4962 351.286 20.7614C350.899 21.0227 350.602 21.3636 350.393 21.7841C350.185 22.2045 350.081 22.6553 350.081 23.1364V23.9091C350.081 24.5682 350.195 25.1269 350.422 25.5852C350.653 26.0398 350.973 26.3864 351.382 26.625C351.791 26.8598 352.267 26.9773 352.808 26.9773C353.161 26.9773 353.479 26.928 353.763 26.8295C354.051 26.7273 354.299 26.5758 354.507 26.375C354.715 26.1705 354.876 25.9167 354.99 25.6136L356.286 25.9773C356.149 26.4167 355.92 26.803 355.598 27.1364C355.276 27.4659 354.878 27.7235 354.405 27.9091C353.931 28.0909 353.399 28.1818 352.808 28.1818ZM358.462 28V19.2727H359.757V20.6364H359.871C360.053 20.1705 360.346 19.8087 360.751 19.5511C361.157 19.2898 361.643 19.1591 362.212 19.1591C362.787 19.1591 363.267 19.2898 363.649 19.5511C364.036 19.8087 364.337 20.1705 364.553 20.6364H364.643C364.867 20.1856 365.202 19.8277 365.649 19.5625C366.096 19.2936 366.632 19.1591 367.257 19.1591C368.037 19.1591 368.676 19.4034 369.172 19.892C369.668 20.3769 369.916 21.1326 369.916 22.1591V28H368.575V22.1591C368.575 21.5152 368.399 21.0549 368.047 20.7784C367.695 20.5019 367.28 20.3636 366.803 20.3636C366.189 20.3636 365.714 20.5492 365.376 20.9205C365.039 21.2879 364.871 21.7538 364.871 22.3182V28H363.507V22.0227C363.507 21.5265 363.346 21.1269 363.024 20.8239C362.702 20.517 362.287 20.3636 361.78 20.3636C361.431 20.3636 361.106 20.4564 360.803 20.642C360.503 20.8277 360.261 21.0852 360.075 21.4148C359.893 21.7405 359.803 22.1174 359.803 22.5455V28H358.462ZM374.936 28.2045C374.383 28.2045 373.881 28.1004 373.43 27.892C372.98 27.6799 372.622 27.375 372.357 26.9773C372.091 26.5758 371.959 26.0909 371.959 25.5227C371.959 25.0227 372.057 24.6174 372.254 24.3068C372.451 23.9924 372.714 23.7462 373.044 23.5682C373.374 23.3902 373.737 23.2576 374.135 23.1705C374.536 23.0795 374.94 23.0076 375.345 22.9545C375.875 22.8864 376.305 22.8352 376.635 22.8011C376.968 22.7633 377.211 22.7008 377.362 22.6136C377.518 22.5265 377.595 22.375 377.595 22.1591V22.1136C377.595 21.553 377.442 21.1174 377.135 20.8068C376.832 20.4962 376.372 20.3409 375.754 20.3409C375.114 20.3409 374.612 20.4811 374.249 20.7614C373.885 21.0417 373.629 21.3409 373.482 21.6591L372.209 21.2045C372.436 20.6742 372.739 20.2614 373.118 19.9659C373.5 19.6667 373.917 19.4583 374.368 19.3409C374.822 19.2197 375.269 19.1591 375.709 19.1591C375.989 19.1591 376.311 19.1932 376.675 19.2614C377.042 19.3258 377.396 19.4602 377.737 19.6648C378.082 19.8693 378.368 20.178 378.595 20.5909C378.822 21.0038 378.936 21.5568 378.936 22.25V28H377.595V26.8182H377.527C377.436 27.0076 377.285 27.2102 377.072 27.4261C376.86 27.642 376.578 27.8258 376.226 27.9773C375.874 28.1288 375.444 28.2045 374.936 28.2045ZM375.141 27C375.671 27 376.118 26.8958 376.482 26.6875C376.849 26.4792 377.125 26.2102 377.311 25.8807C377.5 25.5511 377.595 25.2045 377.595 24.8409V23.6136C377.538 23.6818 377.413 23.7443 377.22 23.8011C377.031 23.8542 376.811 23.9015 376.561 23.9432C376.315 23.9811 376.074 24.0152 375.839 24.0455C375.608 24.072 375.421 24.0947 375.277 24.1136C374.929 24.1591 374.603 24.233 374.3 24.3352C374 24.4337 373.758 24.5833 373.572 24.7841C373.391 24.9811 373.3 25.25 373.3 25.5909C373.3 26.0568 373.472 26.4091 373.817 26.6477C374.165 26.8826 374.607 27 375.141 27ZM381.384 28V19.2727H382.679V20.5909H382.77C382.929 20.1591 383.217 19.8087 383.634 19.5398C384.05 19.2708 384.52 19.1364 385.043 19.1364C385.141 19.1364 385.264 19.1383 385.412 19.142C385.56 19.1458 385.671 19.1515 385.747 19.1591V20.5227C385.702 20.5114 385.598 20.4943 385.435 20.4716C385.276 20.4451 385.107 20.4318 384.929 20.4318C384.505 20.4318 384.126 20.5208 383.793 20.6989C383.463 20.8731 383.202 21.1155 383.009 21.4261C382.819 21.733 382.724 22.0833 382.724 22.4773V28H381.384ZM388.587 24.8182L388.564 23.1591H388.837L392.655 19.2727H394.314L390.246 23.3864H390.132L388.587 24.8182ZM387.337 28V16.3636H388.678V28H387.337ZM392.882 28L389.473 23.6818L390.428 22.75L394.587 28H392.882ZM403.108 28.2045C402.555 28.2045 402.053 28.1004 401.602 27.892C401.152 27.6799 400.794 27.375 400.528 26.9773C400.263 26.5758 400.131 26.0909 400.131 25.5227C400.131 25.0227 400.229 24.6174 400.426 24.3068C400.623 23.9924 400.886 23.7462 401.216 23.5682C401.545 23.3902 401.909 23.2576 402.307 23.1705C402.708 23.0795 403.112 23.0076 403.517 22.9545C404.047 22.8864 404.477 22.8352 404.807 22.8011C405.14 22.7633 405.383 22.7008 405.534 22.6136C405.689 22.5265 405.767 22.375 405.767 22.1591V22.1136C405.767 21.553 405.614 21.1174 405.307 20.8068C405.004 20.4962 404.544 20.3409 403.926 20.3409C403.286 20.3409 402.784 20.4811 402.42 20.7614C402.057 21.0417 401.801 21.3409 401.653 21.6591L400.381 21.2045C400.608 20.6742 400.911 20.2614 401.29 19.9659C401.672 19.6667 402.089 19.4583 402.54 19.3409C402.994 19.2197 403.441 19.1591 403.881 19.1591C404.161 19.1591 404.483 19.1932 404.847 19.2614C405.214 19.3258 405.568 19.4602 405.909 19.6648C406.254 19.8693 406.54 20.178 406.767 20.5909C406.994 21.0038 407.108 21.5568 407.108 22.25V28H405.767V26.8182H405.699C405.608 27.0076 405.456 27.2102 405.244 27.4261C405.032 27.642 404.75 27.8258 404.398 27.9773C404.045 28.1288 403.616 28.2045 403.108 28.2045ZM403.312 27C403.843 27 404.29 26.8958 404.653 26.6875C405.021 26.4792 405.297 26.2102 405.483 25.8807C405.672 25.5511 405.767 25.2045 405.767 24.8409V23.6136C405.71 23.6818 405.585 23.7443 405.392 23.8011C405.203 23.8542 404.983 23.9015 404.733 23.9432C404.487 23.9811 404.246 24.0152 404.011 24.0455C403.78 24.072 403.593 24.0947 403.449 24.1136C403.1 24.1591 402.775 24.233 402.472 24.3352C402.172 24.4337 401.93 24.5833 401.744 24.7841C401.563 24.9811 401.472 25.25 401.472 25.5909C401.472 26.0568 401.644 26.4091 401.989 26.6477C402.337 26.8826 402.778 27 403.312 27ZM409.555 31.2727V19.2727H410.851V20.6591H411.01C411.108 20.5076 411.245 20.3144 411.419 20.0795C411.597 19.8409 411.851 19.6288 412.18 19.4432C412.514 19.2538 412.964 19.1591 413.533 19.1591C414.268 19.1591 414.915 19.3428 415.476 19.7102C416.036 20.0777 416.474 20.5985 416.788 21.2727C417.103 21.947 417.26 22.7424 417.26 23.6591C417.26 24.5833 417.103 25.3845 416.788 26.0625C416.474 26.7367 416.038 27.2595 415.482 27.6307C414.925 27.9981 414.283 28.1818 413.555 28.1818C412.995 28.1818 412.546 28.089 412.209 27.9034C411.872 27.714 411.612 27.5 411.43 27.2614C411.249 27.0189 411.108 26.8182 411.01 26.6591H410.896V31.2727H409.555ZM410.874 23.6364C410.874 24.2955 410.97 24.8769 411.163 25.3807C411.357 25.8807 411.639 26.2727 412.01 26.5568C412.381 26.8371 412.836 26.9773 413.374 26.9773C413.934 26.9773 414.402 26.8295 414.777 26.5341C415.156 26.2348 415.44 25.8333 415.629 25.3295C415.822 24.822 415.919 24.2576 415.919 23.6364C415.919 23.0227 415.824 22.4697 415.635 21.9773C415.449 21.4811 415.167 21.089 414.788 20.8011C414.413 20.5095 413.942 20.3636 413.374 20.3636C412.828 20.3636 412.37 20.5019 411.999 20.7784C411.627 21.0511 411.347 21.4337 411.158 21.9261C410.968 22.4148 410.874 22.9848 410.874 23.6364ZM419.305 31.2727V19.2727H420.601V20.6591H420.76C420.858 20.5076 420.995 20.3144 421.169 20.0795C421.347 19.8409 421.601 19.6288 421.93 19.4432C422.264 19.2538 422.714 19.1591 423.283 19.1591C424.018 19.1591 424.665 19.3428 425.226 19.7102C425.786 20.0777 426.224 20.5985 426.538 21.2727C426.853 21.947 427.01 22.7424 427.01 23.6591C427.01 24.5833 426.853 25.3845 426.538 26.0625C426.224 26.7367 425.788 27.2595 425.232 27.6307C424.675 27.9981 424.033 28.1818 423.305 28.1818C422.745 28.1818 422.296 28.089 421.959 27.9034C421.622 27.714 421.362 27.5 421.18 27.2614C420.999 27.0189 420.858 26.8182 420.76 26.6591H420.646V31.2727H419.305ZM420.624 23.6364C420.624 24.2955 420.72 24.8769 420.913 25.3807C421.107 25.8807 421.389 26.2727 421.76 26.5568C422.131 26.8371 422.586 26.9773 423.124 26.9773C423.684 26.9773 424.152 26.8295 424.527 26.5341C424.906 26.2348 425.19 25.8333 425.379 25.3295C425.572 24.822 425.669 24.2576 425.669 23.6364C425.669 23.0227 425.574 22.4697 425.385 21.9773C425.199 21.4811 424.917 21.089 424.538 20.8011C424.163 20.5095 423.692 20.3636 423.124 20.3636C422.578 20.3636 422.12 20.5019 421.749 20.7784C421.377 21.0511 421.097 21.4337 420.908 21.9261C420.718 22.4148 420.624 22.9848 420.624 23.6364ZM430.396 16.3636V28H429.055V16.3636H430.396ZM432.852 28V19.2727H434.193V28H432.852ZM433.534 17.8182C433.273 17.8182 433.047 17.7292 432.858 17.5511C432.672 17.3731 432.58 17.1591 432.58 16.9091C432.58 16.6591 432.672 16.4451 432.858 16.267C433.047 16.089 433.273 16 433.534 16C433.795 16 434.019 16.089 434.205 16.267C434.394 16.4451 434.489 16.6591 434.489 16.9091C434.489 17.1591 434.394 17.3731 434.205 17.5511C434.019 17.7292 433.795 17.8182 433.534 17.8182ZM440.195 28.1818C439.376 28.1818 438.672 27.9886 438.081 27.6023C437.49 27.2159 437.036 26.6837 436.717 26.0057C436.399 25.3277 436.24 24.553 436.24 23.6818C436.24 22.7955 436.403 22.0133 436.729 21.3352C437.058 20.6534 437.517 20.1212 438.104 19.7386C438.695 19.3523 439.384 19.1591 440.172 19.1591C440.786 19.1591 441.339 19.2727 441.831 19.5C442.323 19.7273 442.727 20.0455 443.041 20.4545C443.356 20.8636 443.551 21.3409 443.626 21.8864H442.286C442.183 21.4886 441.956 21.1364 441.604 20.8295C441.255 20.5189 440.786 20.3636 440.195 20.3636C439.672 20.3636 439.214 20.5 438.82 20.7727C438.429 21.0417 438.125 21.4223 437.905 21.9148C437.689 22.4034 437.581 22.9773 437.581 23.6364C437.581 24.3106 437.687 24.8977 437.899 25.3977C438.115 25.8977 438.418 26.286 438.808 26.5625C439.202 26.839 439.664 26.9773 440.195 26.9773C440.543 26.9773 440.859 26.9167 441.143 26.7955C441.428 26.6742 441.668 26.5 441.865 26.2727C442.062 26.0455 442.202 25.7727 442.286 25.4545H443.626C443.551 25.9697 443.363 26.4337 443.064 26.8466C442.768 27.2557 442.376 27.5814 441.888 27.8239C441.403 28.0625 440.839 28.1818 440.195 28.1818ZM448.155 28.2045C447.602 28.2045 447.1 28.1004 446.649 27.892C446.198 27.6799 445.84 27.375 445.575 26.9773C445.31 26.5758 445.178 26.0909 445.178 25.5227C445.178 25.0227 445.276 24.6174 445.473 24.3068C445.67 23.9924 445.933 23.7462 446.263 23.5682C446.592 23.3902 446.956 23.2576 447.354 23.1705C447.755 23.0795 448.159 23.0076 448.564 22.9545C449.094 22.8864 449.524 22.8352 449.854 22.8011C450.187 22.7633 450.429 22.7008 450.581 22.6136C450.736 22.5265 450.814 22.375 450.814 22.1591V22.1136C450.814 21.553 450.661 21.1174 450.354 20.8068C450.051 20.4962 449.59 20.3409 448.973 20.3409C448.333 20.3409 447.831 20.4811 447.467 20.7614C447.104 21.0417 446.848 21.3409 446.7 21.6591L445.428 21.2045C445.655 20.6742 445.958 20.2614 446.337 19.9659C446.719 19.6667 447.136 19.4583 447.587 19.3409C448.041 19.2197 448.488 19.1591 448.928 19.1591C449.208 19.1591 449.53 19.1932 449.893 19.2614C450.261 19.3258 450.615 19.4602 450.956 19.6648C451.301 19.8693 451.587 20.178 451.814 20.5909C452.041 21.0038 452.155 21.5568 452.155 22.25V28H450.814V26.8182H450.746C450.655 27.0076 450.503 27.2102 450.291 27.4261C450.079 27.642 449.797 27.8258 449.445 27.9773C449.092 28.1288 448.662 28.2045 448.155 28.2045ZM448.359 27C448.89 27 449.337 26.8958 449.7 26.6875C450.068 26.4792 450.344 26.2102 450.53 25.8807C450.719 25.5511 450.814 25.2045 450.814 24.8409V23.6136C450.757 23.6818 450.632 23.7443 450.439 23.8011C450.25 23.8542 450.03 23.9015 449.78 23.9432C449.534 23.9811 449.293 24.0152 449.058 24.0455C448.827 24.072 448.64 24.0947 448.496 24.1136C448.147 24.1591 447.821 24.233 447.518 24.3352C447.219 24.4337 446.977 24.5833 446.791 24.7841C446.609 24.9811 446.518 25.25 446.518 25.5909C446.518 26.0568 446.691 26.4091 447.036 26.6477C447.384 26.8826 447.825 27 448.359 27ZM458.398 19.2727V20.4091H453.875V19.2727H458.398ZM455.193 17.1818H456.534V25.5C456.534 25.8788 456.589 26.1629 456.699 26.3523C456.813 26.5379 456.956 26.6629 457.131 26.7273C457.309 26.7879 457.496 26.8182 457.693 26.8182C457.841 26.8182 457.962 26.8106 458.057 26.7955C458.152 26.7765 458.227 26.7614 458.284 26.75L458.557 27.9545C458.466 27.9886 458.339 28.0227 458.176 28.0568C458.013 28.0947 457.807 28.1136 457.557 28.1136C457.178 28.1136 456.807 28.0322 456.443 27.8693C456.083 27.7064 455.784 27.4583 455.545 27.125C455.311 26.7917 455.193 26.3712 455.193 25.8636V17.1818ZM460.415 28V19.2727H461.756V28H460.415ZM461.097 17.8182C460.835 17.8182 460.61 17.7292 460.42 17.5511C460.235 17.3731 460.142 17.1591 460.142 16.9091C460.142 16.6591 460.235 16.4451 460.42 16.267C460.61 16.089 460.835 16 461.097 16C461.358 16 461.581 16.089 461.767 16.267C461.956 16.4451 462.051 16.6591 462.051 16.9091C462.051 17.1591 461.956 17.3731 461.767 17.5511C461.581 17.7292 461.358 17.8182 461.097 17.8182ZM467.757 28.1818C466.969 28.1818 466.278 27.9943 465.683 27.6193C465.092 27.2443 464.63 26.7197 464.297 26.0455C463.967 25.3712 463.803 24.5833 463.803 23.6818C463.803 22.7727 463.967 21.9792 464.297 21.3011C464.63 20.6231 465.092 20.0966 465.683 19.7216C466.278 19.3466 466.969 19.1591 467.757 19.1591C468.545 19.1591 469.234 19.3466 469.825 19.7216C470.42 20.0966 470.882 20.6231 471.212 21.3011C471.545 21.9792 471.712 22.7727 471.712 23.6818C471.712 24.5833 471.545 25.3712 471.212 26.0455C470.882 26.7197 470.42 27.2443 469.825 27.6193C469.234 27.9943 468.545 28.1818 467.757 28.1818ZM467.757 26.9773C468.356 26.9773 468.848 26.8239 469.234 26.517C469.621 26.2102 469.907 25.8068 470.092 25.3068C470.278 24.8068 470.371 24.2652 470.371 23.6818C470.371 23.0985 470.278 22.5549 470.092 22.0511C469.907 21.5473 469.621 21.1402 469.234 20.8295C468.848 20.5189 468.356 20.3636 467.757 20.3636C467.159 20.3636 466.666 20.5189 466.28 20.8295C465.893 21.1402 465.607 21.5473 465.422 22.0511C465.236 22.5549 465.143 23.0985 465.143 23.6818C465.143 24.2652 465.236 24.8068 465.422 25.3068C465.607 25.8068 465.893 26.2102 466.28 26.517C466.666 26.8239 467.159 26.9773 467.757 26.9773ZM475.099 22.75V28H473.759V19.2727H475.054V20.6364H475.168C475.372 20.1932 475.683 19.8371 476.099 19.5682C476.516 19.2955 477.054 19.1591 477.713 19.1591C478.304 19.1591 478.821 19.2803 479.264 19.5227C479.707 19.7614 480.052 20.125 480.298 20.6136C480.545 21.0985 480.668 21.7121 480.668 22.4545V28H479.327V22.5455C479.327 21.8598 479.149 21.3258 478.793 20.9432C478.437 20.5568 477.948 20.3636 477.327 20.3636C476.899 20.3636 476.516 20.4564 476.179 20.642C475.846 20.8277 475.582 21.0985 475.389 21.4545C475.196 21.8106 475.099 22.2424 475.099 22.75Z" fill="#C0C0C3"/>
<rect x="506" y="8" width="28" height="28" rx="6" fill="#1D1D1D"/>
<path fill-rule="evenodd" clip-rule="evenodd" d="M513.703 15.5431C513.505 15.455 513.272 15.5048 513.128 15.6664C512.983 15.828 512.959 16.0645 513.068 16.252L516.421 22L513.068 27.7481C512.959 27.9355 512.983 28.172 513.128 28.3336C513.272 28.4952 513.505 28.545 513.703 28.4569L527.203 22.4569C527.384 22.3767 527.5 22.1976 527.5 22C527.5 21.8024 527.384 21.6234 527.203 21.5431L513.703 15.5431ZM517.346 21.6L514.712 17.086L525.769 22L514.712 26.914L517.346 22.4H521.5C521.721 22.4 521.9 22.2209 521.9 22C521.9 21.7791 521.721 21.6 521.5 21.6H517.346Z" fill="#C0C0C3"/>
<rect x="0.5" y="0.5" width="541" height="43" rx="7.5" stroke="#2D2D30"/>
</svg>
