<svg width="541" height="44" viewBox="0 0 541 44" fill="none" xmlns="http://www.w3.org/2000/svg">
<rect x="0.5" y="0.5" width="540" height="43" rx="7.5" fill="#222222"/>
<path d="M13.4091 28V16.3636H20.4318V17.6136H14.8182V21.5455H20.0682V22.7955H14.8182V26.75H20.5227V28H13.4091ZM23.7898 19.2727L25.8807 22.8409L27.9716 19.2727H29.517L26.6989 23.6364L29.517 28H27.9716L25.8807 24.6136L23.7898 28H22.2443L25.017 23.6364L22.2443 19.2727H23.7898ZM31.4304 31.2727V19.2727H32.7259V20.6591H32.8849C32.9834 20.5076 33.1198 20.3144 33.294 20.0795C33.4721 19.8409 33.7259 19.6288 34.0554 19.4432C34.3887 19.2538 34.8395 19.1591 35.4077 19.1591C36.1425 19.1591 36.7902 19.3428 37.3509 19.7102C37.9115 20.0777 38.349 20.5985 38.6634 21.2727C38.9777 21.947 39.1349 22.7424 39.1349 23.6591C39.1349 24.5833 38.9777 25.3845 38.6634 26.0625C38.349 26.7367 37.9134 27.2595 37.3565 27.6307C36.7997 27.9981 36.1577 28.1818 35.4304 28.1818C34.8698 28.1818 34.4209 28.089 34.0838 27.9034C33.7467 27.714 33.4872 27.5 33.3054 27.2614C33.1236 27.0189 32.9834 26.8182 32.8849 26.6591H32.7713V31.2727H31.4304ZM32.7486 23.6364C32.7486 24.2955 32.8452 24.8769 33.0384 25.3807C33.2315 25.8807 33.5137 26.2727 33.8849 26.5568C34.2562 26.8371 34.7107 26.9773 35.2486 26.9773C35.8092 26.9773 36.277 26.8295 36.652 26.5341C37.0308 26.2348 37.3149 25.8333 37.5043 25.3295C37.6974 24.822 37.794 24.2576 37.794 23.6364C37.794 23.0227 37.6993 22.4697 37.5099 21.9773C37.3243 21.4811 37.0421 21.089 36.6634 20.8011C36.2884 20.5095 35.8168 20.3636 35.2486 20.3636C34.7031 20.3636 34.2448 20.5019 33.8736 20.7784C33.5024 21.0511 33.2221 21.4337 33.0327 21.9261C32.8433 22.4148 32.7486 22.9848 32.7486 23.6364ZM42.5213 16.3636V28H41.1804V16.3636H42.5213ZM47.5455 28.2045C46.9924 28.2045 46.4905 28.1004 46.0398 27.892C45.589 27.6799 45.2311 27.375 44.9659 26.9773C44.7008 26.5758 44.5682 26.0909 44.5682 25.5227C44.5682 25.0227 44.6667 24.6174 44.8636 24.3068C45.0606 23.9924 45.3239 23.7462 45.6534 23.5682C45.983 23.3902 46.3466 23.2576 46.7443 23.1705C47.1458 23.0795 47.5492 23.0076 47.9545 22.9545C48.4848 22.8864 48.9148 22.8352 49.2443 22.8011C49.5777 22.7633 49.8201 22.7008 49.9716 22.6136C50.1269 22.5265 50.2045 22.375 50.2045 22.1591V22.1136C50.2045 21.553 50.0511 21.1174 49.7443 20.8068C49.4413 20.4962 48.9811 20.3409 48.3636 20.3409C47.7235 20.3409 47.2216 20.4811 46.858 20.7614C46.4943 21.0417 46.2386 21.3409 46.0909 21.6591L44.8182 21.2045C45.0455 20.6742 45.3485 20.2614 45.7273 19.9659C46.1098 19.6667 46.5265 19.4583 46.9773 19.3409C47.4318 19.2197 47.8788 19.1591 48.3182 19.1591C48.5985 19.1591 48.9205 19.1932 49.2841 19.2614C49.6515 19.3258 50.0057 19.4602 50.3466 19.6648C50.6913 19.8693 50.9773 20.178 51.2045 20.5909C51.4318 21.0038 51.5455 21.5568 51.5455 22.25V28H50.2045V26.8182H50.1364C50.0455 27.0076 49.8939 27.2102 49.6818 27.4261C49.4697 27.642 49.1875 27.8258 48.8352 27.9773C48.483 28.1288 48.053 28.2045 47.5455 28.2045ZM47.75 27C48.2803 27 48.7273 26.8958 49.0909 26.6875C49.4583 26.4792 49.7348 26.2102 49.9205 25.8807C50.1098 25.5511 50.2045 25.2045 50.2045 24.8409V23.6136C50.1477 23.6818 50.0227 23.7443 49.8295 23.8011C49.6402 23.8542 49.4205 23.9015 49.1705 23.9432C48.9242 23.9811 48.6837 24.0152 48.4489 24.0455C48.2178 24.072 48.0303 24.0947 47.8864 24.1136C47.5379 24.1591 47.2121 24.233 46.9091 24.3352C46.6098 24.4337 46.3674 24.5833 46.1818 24.7841C46 24.9811 45.9091 25.25 45.9091 25.5909C45.9091 26.0568 46.0814 26.4091 46.4261 26.6477C46.7746 26.8826 47.2159 27 47.75 27ZM53.9929 28V19.2727H55.3338V28H53.9929ZM54.6747 17.8182C54.4134 17.8182 54.188 17.7292 53.9986 17.5511C53.813 17.3731 53.7202 17.1591 53.7202 16.9091C53.7202 16.6591 53.813 16.4451 53.9986 16.267C54.188 16.089 54.4134 16 54.6747 16C54.9361 16 55.1596 16.089 55.3452 16.267C55.5346 16.4451 55.6293 16.6591 55.6293 16.9091C55.6293 17.1591 55.5346 17.3731 55.3452 17.5511C55.1596 17.7292 54.9361 17.8182 54.6747 17.8182ZM59.1307 22.75V28H57.7898V19.2727H59.0852V20.6364H59.1989C59.4034 20.1932 59.714 19.8371 60.1307 19.5682C60.5473 19.2955 61.0852 19.1591 61.7443 19.1591C62.3352 19.1591 62.8523 19.2803 63.2955 19.5227C63.7386 19.7614 64.0833 20.125 64.3295 20.6136C64.5758 21.0985 64.6989 21.7121 64.6989 22.4545V28H63.358V22.5455C63.358 21.8598 63.1799 21.3258 62.8239 20.9432C62.4678 20.5568 61.9792 20.3636 61.358 20.3636C60.9299 20.3636 60.5473 20.4564 60.2102 20.642C59.8769 20.8277 59.6136 21.0985 59.4205 21.4545C59.2273 21.8106 59.1307 22.2424 59.1307 22.75ZM75.4446 19.2727V20.4091H70.9219V19.2727H75.4446ZM72.2401 17.1818H73.581V25.5C73.581 25.8788 73.6359 26.1629 73.7457 26.3523C73.8594 26.5379 74.0033 26.6629 74.1776 26.7273C74.3556 26.7879 74.5431 26.8182 74.7401 26.8182C74.8878 26.8182 75.009 26.8106 75.1037 26.7955C75.1984 26.7765 75.2741 26.7614 75.331 26.75L75.6037 27.9545C75.5128 27.9886 75.3859 28.0227 75.223 28.0568C75.0601 28.0947 74.8537 28.1136 74.6037 28.1136C74.2249 28.1136 73.8537 28.0322 73.4901 27.8693C73.1302 27.7064 72.831 27.4583 72.5923 27.125C72.3575 26.7917 72.2401 26.3712 72.2401 25.8636V17.1818ZM78.9901 22.75V28H77.6491V16.3636H78.9901V20.6364H79.1037C79.3082 20.1856 79.6151 19.8277 80.0241 19.5625C80.437 19.2936 80.9863 19.1591 81.6719 19.1591C82.2666 19.1591 82.7874 19.2784 83.2344 19.517C83.6813 19.7519 84.0279 20.1136 84.2741 20.6023C84.5241 21.0871 84.6491 21.7045 84.6491 22.4545V28H83.3082V22.5455C83.3082 21.8523 83.1283 21.3163 82.7685 20.9375C82.4124 20.5549 81.9181 20.3636 81.2855 20.3636C80.8461 20.3636 80.4522 20.4564 80.1037 20.642C79.759 20.8277 79.4863 21.0985 79.2855 21.4545C79.0885 21.8106 78.9901 22.2424 78.9901 22.75ZM90.7614 28.1818C89.9205 28.1818 89.1951 27.9962 88.5852 27.625C87.9792 27.25 87.5114 26.7273 87.1818 26.0568C86.8561 25.3826 86.6932 24.5985 86.6932 23.7045C86.6932 22.8106 86.8561 22.0227 87.1818 21.3409C87.5114 20.6553 87.9697 20.1212 88.5568 19.7386C89.1477 19.3523 89.8371 19.1591 90.625 19.1591C91.0795 19.1591 91.5284 19.2348 91.9716 19.3864C92.4148 19.5379 92.8182 19.7841 93.1818 20.125C93.5455 20.4621 93.8352 20.9091 94.0511 21.4659C94.267 22.0227 94.375 22.7083 94.375 23.5227V24.0909H87.6477V22.9318H93.0114C93.0114 22.4394 92.9129 22 92.7159 21.6136C92.5227 21.2273 92.2462 20.9223 91.8864 20.6989C91.5303 20.4754 91.1098 20.3636 90.625 20.3636C90.0909 20.3636 89.6288 20.4962 89.2386 20.7614C88.8523 21.0227 88.5549 21.3636 88.3466 21.7841C88.1383 22.2045 88.0341 22.6553 88.0341 23.1364V23.9091C88.0341 24.5682 88.1477 25.1269 88.375 25.5852C88.6061 26.0398 88.9261 26.3864 89.3352 26.625C89.7443 26.8598 90.2197 26.9773 90.7614 26.9773C91.1136 26.9773 91.4318 26.928 91.7159 26.8295C92.0038 26.7273 92.2519 26.5758 92.4602 26.375C92.6686 26.1705 92.8295 25.9167 92.9432 25.6136L94.2386 25.9773C94.1023 26.4167 93.8731 26.803 93.5511 27.1364C93.2292 27.4659 92.8314 27.7235 92.358 27.9091C91.8845 28.0909 91.3523 28.1818 90.7614 28.1818ZM102.165 24.8182L102.142 23.1591H102.415L106.233 19.2727H107.892L103.824 23.3864H103.71L102.165 24.8182ZM100.915 28V16.3636H102.256V28H100.915ZM106.46 28L103.051 23.6818L104.006 22.75L108.165 28H106.46ZM112.918 28.1818C112.077 28.1818 111.351 27.9962 110.741 27.625C110.135 27.25 109.668 26.7273 109.338 26.0568C109.012 25.3826 108.849 24.5985 108.849 23.7045C108.849 22.8106 109.012 22.0227 109.338 21.3409C109.668 20.6553 110.126 20.1212 110.713 19.7386C111.304 19.3523 111.993 19.1591 112.781 19.1591C113.236 19.1591 113.685 19.2348 114.128 19.3864C114.571 19.5379 114.974 19.7841 115.338 20.125C115.702 20.4621 115.991 20.9091 116.207 21.4659C116.423 22.0227 116.531 22.7083 116.531 23.5227V24.0909H109.804V22.9318H115.168C115.168 22.4394 115.069 22 114.872 21.6136C114.679 21.2273 114.402 20.9223 114.043 20.6989C113.687 20.4754 113.266 20.3636 112.781 20.3636C112.247 20.3636 111.785 20.4962 111.395 20.7614C111.009 21.0227 110.711 21.3636 110.503 21.7841C110.295 22.2045 110.19 22.6553 110.19 23.1364V23.9091C110.19 24.5682 110.304 25.1269 110.531 25.5852C110.762 26.0398 111.082 26.3864 111.491 26.625C111.901 26.8598 112.376 26.9773 112.918 26.9773C113.27 26.9773 113.588 26.928 113.872 26.8295C114.16 26.7273 114.408 26.5758 114.616 26.375C114.825 26.1705 114.986 25.9167 115.099 25.6136L116.395 25.9773C116.259 26.4167 116.029 26.803 115.707 27.1364C115.385 27.4659 114.988 27.7235 114.514 27.9091C114.041 28.0909 113.509 28.1818 112.918 28.1818ZM119.169 31.2727C118.942 31.2727 118.739 31.2538 118.561 31.2159C118.383 31.1818 118.26 31.1477 118.192 31.1136L118.533 29.9318C118.858 30.0152 119.146 30.0455 119.396 30.0227C119.646 30 119.868 29.8883 120.061 29.6875C120.258 29.4905 120.438 29.1705 120.601 28.7273L120.851 28.0455L117.624 19.2727H119.078L121.487 26.2273H121.578L123.987 19.2727H125.442L121.737 29.2727C121.571 29.7235 121.364 30.0966 121.118 30.392C120.872 30.6913 120.586 30.9129 120.26 31.0568C119.938 31.2008 119.574 31.2727 119.169 31.2727ZM135.007 28.1818C134.28 28.1818 133.638 27.9981 133.081 27.6307C132.524 27.2595 132.089 26.7367 131.774 26.0625C131.46 25.3845 131.303 24.5833 131.303 23.6591C131.303 22.7424 131.46 21.947 131.774 21.2727C132.089 20.5985 132.526 20.0777 133.087 19.7102C133.647 19.3428 134.295 19.1591 135.03 19.1591C135.598 19.1591 136.047 19.2538 136.376 19.4432C136.71 19.6288 136.964 19.8409 137.138 20.0795C137.316 20.3144 137.454 20.5076 137.553 20.6591H137.666V16.3636H139.007V28H137.712V26.6591H137.553C137.454 26.8182 137.314 27.0189 137.132 27.2614C136.95 27.5 136.691 27.714 136.354 27.9034C136.017 28.089 135.568 28.1818 135.007 28.1818ZM135.189 26.9773C135.727 26.9773 136.181 26.8371 136.553 26.5568C136.924 26.2727 137.206 25.8807 137.399 25.3807C137.592 24.8769 137.689 24.2955 137.689 23.6364C137.689 22.9848 137.594 22.4148 137.405 21.9261C137.215 21.4337 136.935 21.0511 136.564 20.7784C136.193 20.5019 135.734 20.3636 135.189 20.3636C134.621 20.3636 134.147 20.5095 133.768 20.8011C133.393 21.089 133.111 21.4811 132.922 21.9773C132.736 22.4697 132.643 23.0227 132.643 23.6364C132.643 24.2576 132.738 24.822 132.928 25.3295C133.121 25.8333 133.405 26.2348 133.78 26.5341C134.159 26.8295 134.628 26.9773 135.189 26.9773ZM141.649 28V19.2727H142.99V28H141.649ZM142.331 17.8182C142.07 17.8182 141.844 17.7292 141.655 17.5511C141.469 17.3731 141.376 17.1591 141.376 16.9091C141.376 16.6591 141.469 16.4451 141.655 16.267C141.844 16.089 142.07 16 142.331 16C142.592 16 142.816 16.089 143.001 16.267C143.191 16.4451 143.286 16.6591 143.286 16.9091C143.286 17.1591 143.191 17.3731 143.001 17.5511C142.816 17.7292 142.592 17.8182 142.331 17.8182ZM149.332 19.2727V20.4091H144.628V19.2727H149.332ZM146.037 28V18.0682C146.037 17.5682 146.154 17.1515 146.389 16.8182C146.624 16.4848 146.929 16.2348 147.304 16.0682C147.679 15.9015 148.075 15.8182 148.491 15.8182C148.821 15.8182 149.09 15.8447 149.298 15.8977C149.507 15.9508 149.662 16 149.764 16.0455L149.378 17.2045C149.31 17.1818 149.215 17.1534 149.094 17.1193C148.976 17.0852 148.821 17.0682 148.628 17.0682C148.185 17.0682 147.865 17.1799 147.668 17.4034C147.474 17.6269 147.378 17.9545 147.378 18.3864V28H146.037ZM155.098 19.2727V20.4091H150.393V19.2727H155.098ZM151.803 28V18.0682C151.803 17.5682 151.92 17.1515 152.155 16.8182C152.39 16.4848 152.695 16.2348 153.07 16.0682C153.445 15.9015 153.84 15.8182 154.257 15.8182C154.587 15.8182 154.856 15.8447 155.064 15.8977C155.272 15.9508 155.428 16 155.53 16.0455L155.143 17.2045C155.075 17.1818 154.981 17.1534 154.859 17.1193C154.742 17.0852 154.587 17.0682 154.393 17.0682C153.95 17.0682 153.63 17.1799 153.433 17.4034C153.24 17.6269 153.143 17.9545 153.143 18.3864V28H151.803ZM160.277 28.1818C159.436 28.1818 158.711 27.9962 158.101 27.625C157.495 27.25 157.027 26.7273 156.697 26.0568C156.372 25.3826 156.209 24.5985 156.209 23.7045C156.209 22.8106 156.372 22.0227 156.697 21.3409C157.027 20.6553 157.485 20.1212 158.072 19.7386C158.663 19.3523 159.353 19.1591 160.141 19.1591C160.595 19.1591 161.044 19.2348 161.487 19.3864C161.93 19.5379 162.334 19.7841 162.697 20.125C163.061 20.4621 163.351 20.9091 163.567 21.4659C163.783 22.0227 163.891 22.7083 163.891 23.5227V24.0909H157.163V22.9318H162.527C162.527 22.4394 162.429 22 162.232 21.6136C162.038 21.2273 161.762 20.9223 161.402 20.6989C161.046 20.4754 160.625 20.3636 160.141 20.3636C159.607 20.3636 159.144 20.4962 158.754 20.7614C158.368 21.0227 158.071 21.3636 157.862 21.7841C157.654 22.2045 157.55 22.6553 157.55 23.1364V23.9091C157.55 24.5682 157.663 25.1269 157.891 25.5852C158.122 26.0398 158.442 26.3864 158.851 26.625C159.26 26.8598 159.735 26.9773 160.277 26.9773C160.629 26.9773 160.947 26.928 161.232 26.8295C161.519 26.7273 161.768 26.5758 161.976 26.375C162.184 26.1705 162.345 25.9167 162.459 25.6136L163.754 25.9773C163.618 26.4167 163.389 26.803 163.067 27.1364C162.745 27.4659 162.347 27.7235 161.874 27.9091C161.4 28.0909 160.868 28.1818 160.277 28.1818ZM165.93 28V19.2727H167.226V20.5909H167.317C167.476 20.1591 167.764 19.8087 168.18 19.5398C168.597 19.2708 169.067 19.1364 169.589 19.1364C169.688 19.1364 169.811 19.1383 169.959 19.142C170.107 19.1458 170.218 19.1515 170.294 19.1591V20.5227C170.249 20.5114 170.144 20.4943 169.982 20.4716C169.822 20.4451 169.654 20.4318 169.476 20.4318C169.052 20.4318 168.673 20.5208 168.339 20.6989C168.01 20.8731 167.749 21.1155 167.555 21.4261C167.366 21.733 167.271 22.0833 167.271 22.4773V28H165.93ZM175.277 28.1818C174.436 28.1818 173.711 27.9962 173.101 27.625C172.495 27.25 172.027 26.7273 171.697 26.0568C171.372 25.3826 171.209 24.5985 171.209 23.7045C171.209 22.8106 171.372 22.0227 171.697 21.3409C172.027 20.6553 172.485 20.1212 173.072 19.7386C173.663 19.3523 174.353 19.1591 175.141 19.1591C175.595 19.1591 176.044 19.2348 176.487 19.3864C176.93 19.5379 177.334 19.7841 177.697 20.125C178.061 20.4621 178.351 20.9091 178.567 21.4659C178.783 22.0227 178.891 22.7083 178.891 23.5227V24.0909H172.163V22.9318H177.527C177.527 22.4394 177.429 22 177.232 21.6136C177.038 21.2273 176.762 20.9223 176.402 20.6989C176.046 20.4754 175.625 20.3636 175.141 20.3636C174.607 20.3636 174.144 20.4962 173.754 20.7614C173.368 21.0227 173.071 21.3636 172.862 21.7841C172.654 22.2045 172.55 22.6553 172.55 23.1364V23.9091C172.55 24.5682 172.663 25.1269 172.891 25.5852C173.122 26.0398 173.442 26.3864 173.851 26.625C174.26 26.8598 174.735 26.9773 175.277 26.9773C175.629 26.9773 175.947 26.928 176.232 26.8295C176.519 26.7273 176.768 26.5758 176.976 26.375C177.184 26.1705 177.345 25.9167 177.459 25.6136L178.754 25.9773C178.618 26.4167 178.389 26.803 178.067 27.1364C177.745 27.4659 177.347 27.7235 176.874 27.9091C176.4 28.0909 175.868 28.1818 175.277 28.1818ZM182.271 22.75V28H180.93V19.2727H182.226V20.6364H182.339C182.544 20.1932 182.855 19.8371 183.271 19.5682C183.688 19.2955 184.226 19.1591 184.885 19.1591C185.476 19.1591 185.993 19.2803 186.436 19.5227C186.879 19.7614 187.224 20.125 187.47 20.6136C187.716 21.0985 187.839 21.7121 187.839 22.4545V28H186.499V22.5455C186.499 21.8598 186.321 21.3258 185.964 20.9432C185.608 20.5568 185.12 20.3636 184.499 20.3636C184.071 20.3636 183.688 20.4564 183.351 20.642C183.018 20.8277 182.754 21.0985 182.561 21.4545C182.368 21.8106 182.271 22.2424 182.271 22.75ZM193.835 28.1818C193.017 28.1818 192.313 27.9886 191.722 27.6023C191.131 27.2159 190.676 26.6837 190.358 26.0057C190.04 25.3277 189.881 24.553 189.881 23.6818C189.881 22.7955 190.044 22.0133 190.369 21.3352C190.699 20.6534 191.157 20.1212 191.744 19.7386C192.335 19.3523 193.025 19.1591 193.812 19.1591C194.426 19.1591 194.979 19.2727 195.472 19.5C195.964 19.7273 196.367 20.0455 196.682 20.4545C196.996 20.8636 197.191 21.3409 197.267 21.8864H195.926C195.824 21.4886 195.597 21.1364 195.244 20.8295C194.896 20.5189 194.426 20.3636 193.835 20.3636C193.313 20.3636 192.854 20.5 192.46 20.7727C192.07 21.0417 191.765 21.4223 191.545 21.9148C191.33 22.4034 191.222 22.9773 191.222 23.6364C191.222 24.3106 191.328 24.8977 191.54 25.3977C191.756 25.8977 192.059 26.286 192.449 26.5625C192.843 26.839 193.305 26.9773 193.835 26.9773C194.184 26.9773 194.5 26.9167 194.784 26.7955C195.068 26.6742 195.309 26.5 195.506 26.2727C195.703 26.0455 195.843 25.7727 195.926 25.4545H197.267C197.191 25.9697 197.004 26.4337 196.705 26.8466C196.409 27.2557 196.017 27.5814 195.528 27.8239C195.044 28.0625 194.479 28.1818 193.835 28.1818ZM202.886 28.1818C202.045 28.1818 201.32 27.9962 200.71 27.625C200.104 27.25 199.636 26.7273 199.307 26.0568C198.981 25.3826 198.818 24.5985 198.818 23.7045C198.818 22.8106 198.981 22.0227 199.307 21.3409C199.636 20.6553 200.095 20.1212 200.682 19.7386C201.273 19.3523 201.962 19.1591 202.75 19.1591C203.205 19.1591 203.653 19.2348 204.097 19.3864C204.54 19.5379 204.943 19.7841 205.307 20.125C205.67 20.4621 205.96 20.9091 206.176 21.4659C206.392 22.0227 206.5 22.7083 206.5 23.5227V24.0909H199.773V22.9318H205.136C205.136 22.4394 205.038 22 204.841 21.6136C204.648 21.2273 204.371 20.9223 204.011 20.6989C203.655 20.4754 203.235 20.3636 202.75 20.3636C202.216 20.3636 201.754 20.4962 201.364 20.7614C200.977 21.0227 200.68 21.3636 200.472 21.7841C200.263 22.2045 200.159 22.6553 200.159 23.1364V23.9091C200.159 24.5682 200.273 25.1269 200.5 25.5852C200.731 26.0398 201.051 26.3864 201.46 26.625C201.869 26.8598 202.345 26.9773 202.886 26.9773C203.239 26.9773 203.557 26.928 203.841 26.8295C204.129 26.7273 204.377 26.5758 204.585 26.375C204.794 26.1705 204.955 25.9167 205.068 25.6136L206.364 25.9773C206.227 26.4167 205.998 26.803 205.676 27.1364C205.354 27.4659 204.956 27.7235 204.483 27.9091C204.009 28.0909 203.477 28.1818 202.886 28.1818ZM214.722 21.2273L213.517 21.5682C213.441 21.3674 213.33 21.1723 213.182 20.983C213.038 20.7898 212.841 20.6307 212.591 20.5057C212.341 20.3807 212.021 20.3182 211.631 20.3182C211.097 20.3182 210.652 20.4413 210.295 20.6875C209.943 20.9299 209.767 21.2386 209.767 21.6136C209.767 21.947 209.888 22.2102 210.131 22.4034C210.373 22.5966 210.752 22.7576 211.267 22.8864L212.562 23.2045C213.343 23.3939 213.924 23.6837 214.307 24.0739C214.689 24.4602 214.881 24.9583 214.881 25.5682C214.881 26.0682 214.737 26.5152 214.449 26.9091C214.165 27.303 213.767 27.6136 213.256 27.8409C212.744 28.0682 212.15 28.1818 211.472 28.1818C210.581 28.1818 209.845 27.9886 209.261 27.6023C208.678 27.2159 208.309 26.6515 208.153 25.9091L209.426 25.5909C209.547 26.0606 209.777 26.4129 210.114 26.6477C210.455 26.8826 210.9 27 211.449 27C212.074 27 212.57 26.8674 212.938 26.6023C213.309 26.3333 213.494 26.0114 213.494 25.6364C213.494 25.3333 213.388 25.0795 213.176 24.875C212.964 24.6667 212.638 24.5114 212.199 24.4091L210.744 24.0682C209.945 23.8788 209.358 23.5852 208.983 23.1875C208.612 22.786 208.426 22.2841 208.426 21.6818C208.426 21.1894 208.564 20.7538 208.841 20.375C209.121 19.9962 209.502 19.6989 209.983 19.483C210.468 19.267 211.017 19.1591 211.631 19.1591C212.494 19.1591 213.172 19.3485 213.665 19.7273C214.161 20.1061 214.513 20.6061 214.722 21.2273ZM221.581 28V16.3636H222.922V20.6591H223.036C223.134 20.5076 223.27 20.3144 223.445 20.0795C223.623 19.8409 223.876 19.6288 224.206 19.4432C224.539 19.2538 224.99 19.1591 225.558 19.1591C226.293 19.1591 226.941 19.3428 227.501 19.7102C228.062 20.0777 228.5 20.5985 228.814 21.2727C229.128 21.947 229.286 22.7424 229.286 23.6591C229.286 24.5833 229.128 25.3845 228.814 26.0625C228.5 26.7367 228.064 27.2595 227.507 27.6307C226.95 27.9981 226.308 28.1818 225.581 28.1818C225.02 28.1818 224.571 28.089 224.234 27.9034C223.897 27.714 223.638 27.5 223.456 27.2614C223.274 27.0189 223.134 26.8182 223.036 26.6591H222.876V28H221.581ZM222.899 23.6364C222.899 24.2955 222.996 24.8769 223.189 25.3807C223.382 25.8807 223.664 26.2727 224.036 26.5568C224.407 26.8371 224.861 26.9773 225.399 26.9773C225.96 26.9773 226.428 26.8295 226.803 26.5341C227.181 26.2348 227.465 25.8333 227.655 25.3295C227.848 24.822 227.945 24.2576 227.945 23.6364C227.945 23.0227 227.85 22.4697 227.661 21.9773C227.475 21.4811 227.193 21.089 226.814 20.8011C226.439 20.5095 225.967 20.3636 225.399 20.3636C224.854 20.3636 224.395 20.5019 224.024 20.7784C223.653 21.0511 223.373 21.4337 223.183 21.9261C222.994 22.4148 222.899 22.9848 222.899 23.6364ZM234.996 28.1818C234.155 28.1818 233.429 27.9962 232.82 27.625C232.214 27.25 231.746 26.7273 231.416 26.0568C231.09 25.3826 230.928 24.5985 230.928 23.7045C230.928 22.8106 231.09 22.0227 231.416 21.3409C231.746 20.6553 232.204 20.1212 232.791 19.7386C233.382 19.3523 234.071 19.1591 234.859 19.1591C235.314 19.1591 235.763 19.2348 236.206 19.3864C236.649 19.5379 237.053 19.7841 237.416 20.125C237.78 20.4621 238.07 20.9091 238.286 21.4659C238.501 22.0227 238.609 22.7083 238.609 23.5227V24.0909H231.882V22.9318H237.246C237.246 22.4394 237.147 22 236.95 21.6136C236.757 21.2273 236.481 20.9223 236.121 20.6989C235.765 20.4754 235.344 20.3636 234.859 20.3636C234.325 20.3636 233.863 20.4962 233.473 20.7614C233.087 21.0227 232.789 21.3636 232.581 21.7841C232.373 22.2045 232.268 22.6553 232.268 23.1364V23.9091C232.268 24.5682 232.382 25.1269 232.609 25.5852C232.84 26.0398 233.161 26.3864 233.57 26.625C233.979 26.8598 234.454 26.9773 234.996 26.9773C235.348 26.9773 235.666 26.928 235.95 26.8295C236.238 26.7273 236.486 26.5758 236.695 26.375C236.903 26.1705 237.064 25.9167 237.178 25.6136L238.473 25.9773C238.337 26.4167 238.107 26.803 237.786 27.1364C237.464 27.4659 237.066 27.7235 236.592 27.9091C236.119 28.0909 235.587 28.1818 234.996 28.1818ZM244.445 19.2727V20.4091H239.922V19.2727H244.445ZM241.24 17.1818H242.581V25.5C242.581 25.8788 242.636 26.1629 242.746 26.3523C242.859 26.5379 243.003 26.6629 243.178 26.7273C243.356 26.7879 243.543 26.8182 243.74 26.8182C243.888 26.8182 244.009 26.8106 244.104 26.7955C244.198 26.7765 244.274 26.7614 244.331 26.75L244.604 27.9545C244.513 27.9886 244.386 28.0227 244.223 28.0568C244.06 28.0947 243.854 28.1136 243.604 28.1136C243.225 28.1136 242.854 28.0322 242.49 27.8693C242.13 27.7064 241.831 27.4583 241.592 27.125C241.357 26.7917 241.24 26.3712 241.24 25.8636V17.1818ZM248.439 28L245.78 19.2727H247.189L249.075 25.9545H249.166L251.03 19.2727H252.462L254.303 25.9318H254.393L256.28 19.2727H257.689L255.03 28H253.712L251.803 21.2955H251.666L249.757 28H248.439ZM262.824 28.1818C261.983 28.1818 261.258 27.9962 260.648 27.625C260.042 27.25 259.574 26.7273 259.244 26.0568C258.919 25.3826 258.756 24.5985 258.756 23.7045C258.756 22.8106 258.919 22.0227 259.244 21.3409C259.574 20.6553 260.032 20.1212 260.619 19.7386C261.21 19.3523 261.9 19.1591 262.688 19.1591C263.142 19.1591 263.591 19.2348 264.034 19.3864C264.477 19.5379 264.881 19.7841 265.244 20.125C265.608 20.4621 265.898 20.9091 266.114 21.4659C266.33 22.0227 266.438 22.7083 266.438 23.5227V24.0909H259.71V22.9318H265.074C265.074 22.4394 264.975 22 264.778 21.6136C264.585 21.2273 264.309 20.9223 263.949 20.6989C263.593 20.4754 263.172 20.3636 262.688 20.3636C262.153 20.3636 261.691 20.4962 261.301 20.7614C260.915 21.0227 260.617 21.3636 260.409 21.7841C260.201 22.2045 260.097 22.6553 260.097 23.1364V23.9091C260.097 24.5682 260.21 25.1269 260.438 25.5852C260.669 26.0398 260.989 26.3864 261.398 26.625C261.807 26.8598 262.282 26.9773 262.824 26.9773C263.176 26.9773 263.494 26.928 263.778 26.8295C264.066 26.7273 264.314 26.5758 264.523 26.375C264.731 26.1705 264.892 25.9167 265.006 25.6136L266.301 25.9773C266.165 26.4167 265.936 26.803 265.614 27.1364C265.292 27.4659 264.894 27.7235 264.42 27.9091C263.947 28.0909 263.415 28.1818 262.824 28.1818ZM272.136 28.1818C271.295 28.1818 270.57 27.9962 269.96 27.625C269.354 27.25 268.886 26.7273 268.557 26.0568C268.231 25.3826 268.068 24.5985 268.068 23.7045C268.068 22.8106 268.231 22.0227 268.557 21.3409C268.886 20.6553 269.345 20.1212 269.932 19.7386C270.523 19.3523 271.212 19.1591 272 19.1591C272.455 19.1591 272.903 19.2348 273.347 19.3864C273.79 19.5379 274.193 19.7841 274.557 20.125C274.92 20.4621 275.21 20.9091 275.426 21.4659C275.642 22.0227 275.75 22.7083 275.75 23.5227V24.0909H269.023V22.9318H274.386C274.386 22.4394 274.288 22 274.091 21.6136C273.898 21.2273 273.621 20.9223 273.261 20.6989C272.905 20.4754 272.485 20.3636 272 20.3636C271.466 20.3636 271.004 20.4962 270.614 20.7614C270.227 21.0227 269.93 21.3636 269.722 21.7841C269.513 22.2045 269.409 22.6553 269.409 23.1364V23.9091C269.409 24.5682 269.523 25.1269 269.75 25.5852C269.981 26.0398 270.301 26.3864 270.71 26.625C271.119 26.8598 271.595 26.9773 272.136 26.9773C272.489 26.9773 272.807 26.928 273.091 26.8295C273.379 26.7273 273.627 26.5758 273.835 26.375C274.044 26.1705 274.205 25.9167 274.318 25.6136L275.614 25.9773C275.477 26.4167 275.248 26.803 274.926 27.1364C274.604 27.4659 274.206 27.7235 273.733 27.9091C273.259 28.0909 272.727 28.1818 272.136 28.1818ZM279.131 22.75V28H277.79V19.2727H279.085V20.6364H279.199C279.403 20.1932 279.714 19.8371 280.131 19.5682C280.547 19.2955 281.085 19.1591 281.744 19.1591C282.335 19.1591 282.852 19.2803 283.295 19.5227C283.739 19.7614 284.083 20.125 284.33 20.6136C284.576 21.0985 284.699 21.7121 284.699 22.4545V28H283.358V22.5455C283.358 21.8598 283.18 21.3258 282.824 20.9432C282.468 20.5568 281.979 20.3636 281.358 20.3636C280.93 20.3636 280.547 20.4564 280.21 20.642C279.877 20.8277 279.614 21.0985 279.42 21.4545C279.227 21.8106 279.131 22.2424 279.131 22.75ZM291.649 28V19.2727H292.945V20.6364H293.058C293.24 20.1705 293.534 19.8087 293.939 19.5511C294.344 19.2898 294.831 19.1591 295.399 19.1591C295.975 19.1591 296.454 19.2898 296.837 19.5511C297.223 19.8087 297.524 20.1705 297.74 20.6364H297.831C298.054 20.1856 298.39 19.8277 298.837 19.5625C299.284 19.2936 299.82 19.1591 300.445 19.1591C301.225 19.1591 301.863 19.4034 302.359 19.892C302.856 20.3769 303.104 21.1326 303.104 22.1591V28H301.763V22.1591C301.763 21.5152 301.587 21.0549 301.234 20.7784C300.882 20.5019 300.467 20.3636 299.99 20.3636C299.376 20.3636 298.901 20.5492 298.564 20.9205C298.227 21.2879 298.058 21.7538 298.058 22.3182V28H296.695V22.0227C296.695 21.5265 296.534 21.1269 296.212 20.8239C295.89 20.517 295.475 20.3636 294.967 20.3636C294.619 20.3636 294.293 20.4564 293.99 20.642C293.691 20.8277 293.448 21.0852 293.263 21.4148C293.081 21.7405 292.99 22.1174 292.99 22.5455V28H291.649ZM309.214 28.1818C308.374 28.1818 307.648 27.9962 307.038 27.625C306.432 27.25 305.964 26.7273 305.635 26.0568C305.309 25.3826 305.146 24.5985 305.146 23.7045C305.146 22.8106 305.309 22.0227 305.635 21.3409C305.964 20.6553 306.423 20.1212 307.01 19.7386C307.601 19.3523 308.29 19.1591 309.078 19.1591C309.533 19.1591 309.982 19.2348 310.425 19.3864C310.868 19.5379 311.271 19.7841 311.635 20.125C311.999 20.4621 312.288 20.9091 312.504 21.4659C312.72 22.0227 312.828 22.7083 312.828 23.5227V24.0909H306.101V22.9318H311.464C311.464 22.4394 311.366 22 311.169 21.6136C310.976 21.2273 310.699 20.9223 310.339 20.6989C309.983 20.4754 309.563 20.3636 309.078 20.3636C308.544 20.3636 308.082 20.4962 307.692 20.7614C307.305 21.0227 307.008 21.3636 306.8 21.7841C306.591 22.2045 306.487 22.6553 306.487 23.1364V23.9091C306.487 24.5682 306.601 25.1269 306.828 25.5852C307.059 26.0398 307.379 26.3864 307.788 26.625C308.197 26.8598 308.673 26.9773 309.214 26.9773C309.567 26.9773 309.885 26.928 310.169 26.8295C310.457 26.7273 310.705 26.5758 310.913 26.375C311.122 26.1705 311.283 25.9167 311.396 25.6136L312.692 25.9773C312.555 26.4167 312.326 26.803 312.004 27.1364C311.682 27.4659 311.285 27.7235 310.811 27.9091C310.338 28.0909 309.805 28.1818 309.214 28.1818ZM318.163 28.1818C317.436 28.1818 316.794 27.9981 316.237 27.6307C315.68 27.2595 315.245 26.7367 314.93 26.0625C314.616 25.3845 314.459 24.5833 314.459 23.6591C314.459 22.7424 314.616 21.947 314.93 21.2727C315.245 20.5985 315.682 20.0777 316.243 19.7102C316.804 19.3428 317.451 19.1591 318.186 19.1591C318.754 19.1591 319.203 19.2538 319.533 19.4432C319.866 19.6288 320.12 19.8409 320.294 20.0795C320.472 20.3144 320.61 20.5076 320.709 20.6591H320.822V16.3636H322.163V28H320.868V26.6591H320.709C320.61 26.8182 320.47 27.0189 320.288 27.2614C320.107 27.5 319.847 27.714 319.51 27.9034C319.173 28.089 318.724 28.1818 318.163 28.1818ZM318.345 26.9773C318.883 26.9773 319.338 26.8371 319.709 26.5568C320.08 26.2727 320.362 25.8807 320.555 25.3807C320.749 24.8769 320.845 24.2955 320.845 23.6364C320.845 22.9848 320.75 22.4148 320.561 21.9261C320.372 21.4337 320.091 21.0511 319.72 20.7784C319.349 20.5019 318.891 20.3636 318.345 20.3636C317.777 20.3636 317.304 20.5095 316.925 20.8011C316.55 21.089 316.268 21.4811 316.078 21.9773C315.893 22.4697 315.8 23.0227 315.8 23.6364C315.8 24.2576 315.894 24.822 316.084 25.3295C316.277 25.8333 316.561 26.2348 316.936 26.5341C317.315 26.8295 317.785 26.9773 318.345 26.9773ZM324.805 28V19.2727H326.146V28H324.805ZM325.487 17.8182C325.226 17.8182 325 17.7292 324.811 17.5511C324.625 17.3731 324.533 17.1591 324.533 16.9091C324.533 16.6591 324.625 16.4451 324.811 16.267C325 16.089 325.226 16 325.487 16C325.749 16 325.972 16.089 326.158 16.267C326.347 16.4451 326.442 16.6591 326.442 16.9091C326.442 17.1591 326.347 17.3731 326.158 17.5511C325.972 17.7292 325.749 17.8182 325.487 17.8182ZM331.17 28.2045C330.617 28.2045 330.116 28.1004 329.665 27.892C329.214 27.6799 328.856 27.375 328.591 26.9773C328.326 26.5758 328.193 26.0909 328.193 25.5227C328.193 25.0227 328.292 24.6174 328.489 24.3068C328.686 23.9924 328.949 23.7462 329.278 23.5682C329.608 23.3902 329.972 23.2576 330.369 23.1705C330.771 23.0795 331.174 23.0076 331.58 22.9545C332.11 22.8864 332.54 22.8352 332.869 22.8011C333.203 22.7633 333.445 22.7008 333.597 22.6136C333.752 22.5265 333.83 22.375 333.83 22.1591V22.1136C333.83 21.553 333.676 21.1174 333.369 20.8068C333.066 20.4962 332.606 20.3409 331.989 20.3409C331.348 20.3409 330.847 20.4811 330.483 20.7614C330.119 21.0417 329.864 21.3409 329.716 21.6591L328.443 21.2045C328.67 20.6742 328.973 20.2614 329.352 19.9659C329.735 19.6667 330.152 19.4583 330.602 19.3409C331.057 19.2197 331.504 19.1591 331.943 19.1591C332.223 19.1591 332.545 19.1932 332.909 19.2614C333.277 19.3258 333.631 19.4602 333.972 19.6648C334.316 19.8693 334.602 20.178 334.83 20.5909C335.057 21.0038 335.17 21.5568 335.17 22.25V28H333.83V26.8182H333.761C333.67 27.0076 333.519 27.2102 333.307 27.4261C333.095 27.642 332.813 27.8258 332.46 27.9773C332.108 28.1288 331.678 28.2045 331.17 28.2045ZM331.375 27C331.905 27 332.352 26.8958 332.716 26.6875C333.083 26.4792 333.36 26.2102 333.545 25.8807C333.735 25.5511 333.83 25.2045 333.83 24.8409V23.6136C333.773 23.6818 333.648 23.7443 333.455 23.8011C333.265 23.8542 333.045 23.9015 332.795 23.9432C332.549 23.9811 332.309 24.0152 332.074 24.0455C331.843 24.072 331.655 24.0947 331.511 24.1136C331.163 24.1591 330.837 24.233 330.534 24.3352C330.235 24.4337 329.992 24.5833 329.807 24.7841C329.625 24.9811 329.534 25.25 329.534 25.5909C329.534 26.0568 329.706 26.4091 330.051 26.6477C330.4 26.8826 330.841 27 331.375 27ZM341.413 19.2727V20.4091H336.891V19.2727H341.413ZM338.209 17.1818H339.55V25.5C339.55 25.8788 339.605 26.1629 339.714 26.3523C339.828 26.5379 339.972 26.6629 340.146 26.7273C340.324 26.7879 340.512 26.8182 340.709 26.8182C340.857 26.8182 340.978 26.8106 341.072 26.7955C341.167 26.7765 341.243 26.7614 341.3 26.75L341.572 27.9545C341.482 27.9886 341.355 28.0227 341.192 28.0568C341.029 28.0947 340.822 28.1136 340.572 28.1136C340.194 28.1136 339.822 28.0322 339.459 27.8693C339.099 27.7064 338.8 27.4583 338.561 27.125C338.326 26.7917 338.209 26.3712 338.209 25.8636V17.1818ZM343.43 28V19.2727H344.771V28H343.43ZM344.112 17.8182C343.851 17.8182 343.625 17.7292 343.436 17.5511C343.25 17.3731 343.158 17.1591 343.158 16.9091C343.158 16.6591 343.25 16.4451 343.436 16.267C343.625 16.089 343.851 16 344.112 16C344.374 16 344.597 16.089 344.783 16.267C344.972 16.4451 345.067 16.6591 345.067 16.9091C345.067 17.1591 344.972 17.3731 344.783 17.5511C344.597 17.7292 344.374 17.8182 344.112 17.8182ZM350.773 28.1818C349.985 28.1818 349.294 27.9943 348.699 27.6193C348.108 27.2443 347.646 26.7197 347.312 26.0455C346.983 25.3712 346.818 24.5833 346.818 23.6818C346.818 22.7727 346.983 21.9792 347.312 21.3011C347.646 20.6231 348.108 20.0966 348.699 19.7216C349.294 19.3466 349.985 19.1591 350.773 19.1591C351.561 19.1591 352.25 19.3466 352.841 19.7216C353.436 20.0966 353.898 20.6231 354.227 21.3011C354.561 21.9792 354.727 22.7727 354.727 23.6818C354.727 24.5833 354.561 25.3712 354.227 26.0455C353.898 26.7197 353.436 27.2443 352.841 27.6193C352.25 27.9943 351.561 28.1818 350.773 28.1818ZM350.773 26.9773C351.371 26.9773 351.864 26.8239 352.25 26.517C352.636 26.2102 352.922 25.8068 353.108 25.3068C353.294 24.8068 353.386 24.2652 353.386 23.6818C353.386 23.0985 353.294 22.5549 353.108 22.0511C352.922 21.5473 352.636 21.1402 352.25 20.8295C351.864 20.5189 351.371 20.3636 350.773 20.3636C350.174 20.3636 349.682 20.5189 349.295 20.8295C348.909 21.1402 348.623 21.5473 348.438 22.0511C348.252 22.5549 348.159 23.0985 348.159 23.6818C348.159 24.2652 348.252 24.8068 348.438 25.3068C348.623 25.8068 348.909 26.2102 349.295 26.517C349.682 26.8239 350.174 26.9773 350.773 26.9773ZM358.115 22.75V28H356.774V19.2727H358.07V20.6364H358.183C358.388 20.1932 358.698 19.8371 359.115 19.5682C359.532 19.2955 360.07 19.1591 360.729 19.1591C361.32 19.1591 361.837 19.2803 362.28 19.5227C362.723 19.7614 363.068 20.125 363.314 20.6136C363.56 21.0985 363.683 21.7121 363.683 22.4545V28H362.342V22.5455C362.342 21.8598 362.164 21.3258 361.808 20.9432C361.452 20.5568 360.964 20.3636 360.342 20.3636C359.914 20.3636 359.532 20.4564 359.195 20.642C358.861 20.8277 358.598 21.0985 358.405 21.4545C358.212 21.8106 358.115 22.2424 358.115 22.75ZM373.202 28.2045C372.649 28.2045 372.147 28.1004 371.696 27.892C371.245 27.6799 370.887 27.375 370.622 26.9773C370.357 26.5758 370.224 26.0909 370.224 25.5227C370.224 25.0227 370.323 24.6174 370.52 24.3068C370.717 23.9924 370.98 23.7462 371.31 23.5682C371.639 23.3902 372.003 23.2576 372.401 23.1705C372.802 23.0795 373.205 23.0076 373.611 22.9545C374.141 22.8864 374.571 22.8352 374.901 22.8011C375.234 22.7633 375.476 22.7008 375.628 22.6136C375.783 22.5265 375.861 22.375 375.861 22.1591V22.1136C375.861 21.553 375.707 21.1174 375.401 20.8068C375.098 20.4962 374.637 20.3409 374.02 20.3409C373.38 20.3409 372.878 20.4811 372.514 20.7614C372.151 21.0417 371.895 21.3409 371.747 21.6591L370.474 21.2045C370.702 20.6742 371.005 20.2614 371.384 19.9659C371.766 19.6667 372.183 19.4583 372.634 19.3409C373.088 19.2197 373.535 19.1591 373.974 19.1591C374.255 19.1591 374.577 19.1932 374.94 19.2614C375.308 19.3258 375.662 19.4602 376.003 19.6648C376.348 19.8693 376.634 20.178 376.861 20.5909C377.088 21.0038 377.202 21.5568 377.202 22.25V28H375.861V26.8182H375.793C375.702 27.0076 375.55 27.2102 375.338 27.4261C375.126 27.642 374.844 27.8258 374.491 27.9773C374.139 28.1288 373.709 28.2045 373.202 28.2045ZM373.406 27C373.937 27 374.384 26.8958 374.747 26.6875C375.115 26.4792 375.391 26.2102 375.577 25.8807C375.766 25.5511 375.861 25.2045 375.861 24.8409V23.6136C375.804 23.6818 375.679 23.7443 375.486 23.8011C375.296 23.8542 375.077 23.9015 374.827 23.9432C374.58 23.9811 374.34 24.0152 374.105 24.0455C373.874 24.072 373.687 24.0947 373.543 24.1136C373.194 24.1591 372.868 24.233 372.565 24.3352C372.266 24.4337 372.024 24.5833 371.838 24.7841C371.656 24.9811 371.565 25.25 371.565 25.5909C371.565 26.0568 371.738 26.4091 372.082 26.6477C372.431 26.8826 372.872 27 373.406 27ZM380.99 22.75V28H379.649V19.2727H380.945V20.6364H381.058C381.263 20.1932 381.573 19.8371 381.99 19.5682C382.407 19.2955 382.945 19.1591 383.604 19.1591C384.195 19.1591 384.712 19.2803 385.155 19.5227C385.598 19.7614 385.943 20.125 386.189 20.6136C386.435 21.0985 386.558 21.7121 386.558 22.4545V28H385.217V22.5455C385.217 21.8598 385.039 21.3258 384.683 20.9432C384.327 20.5568 383.839 20.3636 383.217 20.3636C382.789 20.3636 382.407 20.4564 382.07 20.642C381.736 20.8277 381.473 21.0985 381.28 21.4545C381.087 21.8106 380.99 22.2424 380.99 22.75ZM392.304 28.1818C391.577 28.1818 390.935 27.9981 390.378 27.6307C389.821 27.2595 389.385 26.7367 389.071 26.0625C388.757 25.3845 388.599 24.5833 388.599 23.6591C388.599 22.7424 388.757 21.947 389.071 21.2727C389.385 20.5985 389.823 20.0777 390.384 19.7102C390.944 19.3428 391.592 19.1591 392.327 19.1591C392.895 19.1591 393.344 19.2538 393.673 19.4432C394.007 19.6288 394.26 19.8409 394.435 20.0795C394.613 20.3144 394.751 20.5076 394.849 20.6591H394.963V16.3636H396.304V28H395.009V26.6591H394.849C394.751 26.8182 394.611 27.0189 394.429 27.2614C394.247 27.5 393.988 27.714 393.651 27.9034C393.313 28.089 392.865 28.1818 392.304 28.1818ZM392.486 26.9773C393.024 26.9773 393.478 26.8371 393.849 26.5568C394.221 26.2727 394.503 25.8807 394.696 25.3807C394.889 24.8769 394.986 24.2955 394.986 23.6364C394.986 22.9848 394.891 22.4148 394.702 21.9261C394.512 21.4337 394.232 21.0511 393.861 20.7784C393.49 20.5019 393.031 20.3636 392.486 20.3636C391.918 20.3636 391.444 20.5095 391.065 20.8011C390.69 21.089 390.408 21.4811 390.219 21.9773C390.033 22.4697 389.94 23.0227 389.94 23.6364C389.94 24.2576 390.035 24.822 390.224 25.3295C390.418 25.8333 390.702 26.2348 391.077 26.5341C391.455 26.8295 391.925 26.9773 392.486 26.9773ZM406.014 28.2045C405.461 28.2045 404.959 28.1004 404.509 27.892C404.058 27.6799 403.7 27.375 403.435 26.9773C403.17 26.5758 403.037 26.0909 403.037 25.5227C403.037 25.0227 403.135 24.6174 403.332 24.3068C403.529 23.9924 403.793 23.7462 404.122 23.5682C404.452 23.3902 404.815 23.2576 405.213 23.1705C405.615 23.0795 406.018 23.0076 406.423 22.9545C406.954 22.8864 407.384 22.8352 407.713 22.8011C408.046 22.7633 408.289 22.7008 408.44 22.6136C408.596 22.5265 408.673 22.375 408.673 22.1591V22.1136C408.673 21.553 408.52 21.1174 408.213 20.8068C407.91 20.4962 407.45 20.3409 406.832 20.3409C406.192 20.3409 405.69 20.4811 405.327 20.7614C404.963 21.0417 404.707 21.3409 404.56 21.6591L403.287 21.2045C403.514 20.6742 403.817 20.2614 404.196 19.9659C404.579 19.6667 404.995 19.4583 405.446 19.3409C405.901 19.2197 406.348 19.1591 406.787 19.1591C407.067 19.1591 407.389 19.1932 407.753 19.2614C408.12 19.3258 408.474 19.4602 408.815 19.6648C409.16 19.8693 409.446 20.178 409.673 20.5909C409.901 21.0038 410.014 21.5568 410.014 22.25V28H408.673V26.8182H408.605C408.514 27.0076 408.363 27.2102 408.151 27.4261C407.938 27.642 407.656 27.8258 407.304 27.9773C406.952 28.1288 406.522 28.2045 406.014 28.2045ZM406.219 27C406.749 27 407.196 26.8958 407.56 26.6875C407.927 26.4792 408.204 26.2102 408.389 25.8807C408.579 25.5511 408.673 25.2045 408.673 24.8409V23.6136C408.616 23.6818 408.491 23.7443 408.298 23.8011C408.109 23.8542 407.889 23.9015 407.639 23.9432C407.393 23.9811 407.152 24.0152 406.918 24.0455C406.687 24.072 406.499 24.0947 406.355 24.1136C406.007 24.1591 405.681 24.233 405.378 24.3352C405.079 24.4337 404.836 24.5833 404.651 24.7841C404.469 24.9811 404.378 25.25 404.378 25.5909C404.378 26.0568 404.55 26.4091 404.895 26.6477C405.243 26.8826 405.685 27 406.219 27ZM412.462 28V19.2727H413.757V20.5909H413.848C414.007 20.1591 414.295 19.8087 414.712 19.5398C415.128 19.2708 415.598 19.1364 416.121 19.1364C416.219 19.1364 416.342 19.1383 416.49 19.142C416.638 19.1458 416.75 19.1515 416.825 19.1591V20.5227C416.78 20.5114 416.676 20.4943 416.513 20.4716C416.354 20.4451 416.185 20.4318 416.007 20.4318C415.583 20.4318 415.204 20.5208 414.871 20.6989C414.541 20.8731 414.28 21.1155 414.087 21.4261C413.897 21.733 413.803 22.0833 413.803 22.4773V28H412.462ZM418.597 28V16.3636H419.938V20.6591H420.051C420.15 20.5076 420.286 20.3144 420.46 20.0795C420.638 19.8409 420.892 19.6288 421.222 19.4432C421.555 19.2538 422.006 19.1591 422.574 19.1591C423.309 19.1591 423.956 19.3428 424.517 19.7102C425.078 20.0777 425.515 20.5985 425.83 21.2727C426.144 21.947 426.301 22.7424 426.301 23.6591C426.301 24.5833 426.144 25.3845 425.83 26.0625C425.515 26.7367 425.08 27.2595 424.523 27.6307C423.966 27.9981 423.324 28.1818 422.597 28.1818C422.036 28.1818 421.587 28.089 421.25 27.9034C420.913 27.714 420.653 27.5 420.472 27.2614C420.29 27.0189 420.15 26.8182 420.051 26.6591H419.892V28H418.597ZM419.915 23.6364C419.915 24.2955 420.011 24.8769 420.205 25.3807C420.398 25.8807 420.68 26.2727 421.051 26.5568C421.422 26.8371 421.877 26.9773 422.415 26.9773C422.975 26.9773 423.443 26.8295 423.818 26.5341C424.197 26.2348 424.481 25.8333 424.67 25.3295C424.864 24.822 424.96 24.2576 424.96 23.6364C424.96 23.0227 424.866 22.4697 424.676 21.9773C424.491 21.4811 424.208 21.089 423.83 20.8011C423.455 20.5095 422.983 20.3636 422.415 20.3636C421.869 20.3636 421.411 20.5019 421.04 20.7784C420.669 21.0511 420.388 21.4337 420.199 21.9261C420.009 22.4148 419.915 22.9848 419.915 23.6364ZM428.352 28V19.2727H429.693V28H428.352ZM429.034 17.8182C428.773 17.8182 428.547 17.7292 428.358 17.5511C428.172 17.3731 428.08 17.1591 428.08 16.9091C428.08 16.6591 428.172 16.4451 428.358 16.267C428.547 16.089 428.773 16 429.034 16C429.295 16 429.519 16.089 429.705 16.267C429.894 16.4451 429.989 16.6591 429.989 16.9091C429.989 17.1591 429.894 17.3731 429.705 17.5511C429.519 17.7292 429.295 17.8182 429.034 17.8182ZM435.945 19.2727V20.4091H431.422V19.2727H435.945ZM432.74 17.1818H434.081V25.5C434.081 25.8788 434.136 26.1629 434.246 26.3523C434.359 26.5379 434.503 26.6629 434.678 26.7273C434.856 26.7879 435.043 26.8182 435.24 26.8182C435.388 26.8182 435.509 26.8106 435.604 26.7955C435.698 26.7765 435.774 26.7614 435.831 26.75L436.104 27.9545C436.013 27.9886 435.886 28.0227 435.723 28.0568C435.56 28.0947 435.354 28.1136 435.104 28.1136C434.725 28.1136 434.354 28.0322 433.99 27.8693C433.63 27.7064 433.331 27.4583 433.092 27.125C432.857 26.7917 432.74 26.3712 432.74 25.8636V17.1818ZM437.962 28V19.2727H439.257V20.5909H439.348C439.507 20.1591 439.795 19.8087 440.212 19.5398C440.628 19.2708 441.098 19.1364 441.621 19.1364C441.719 19.1364 441.842 19.1383 441.99 19.142C442.138 19.1458 442.25 19.1515 442.325 19.1591V20.5227C442.28 20.5114 442.176 20.4943 442.013 20.4716C441.854 20.4451 441.685 20.4318 441.507 20.4318C441.083 20.4318 440.704 20.5208 440.371 20.6989C440.041 20.8731 439.78 21.1155 439.587 21.4261C439.397 21.733 439.303 22.0833 439.303 22.4773V28H437.962ZM446.483 28.2045C445.93 28.2045 445.428 28.1004 444.977 27.892C444.527 27.6799 444.169 27.375 443.903 26.9773C443.638 26.5758 443.506 26.0909 443.506 25.5227C443.506 25.0227 443.604 24.6174 443.801 24.3068C443.998 23.9924 444.261 23.7462 444.591 23.5682C444.92 23.3902 445.284 23.2576 445.682 23.1705C446.083 23.0795 446.487 23.0076 446.892 22.9545C447.422 22.8864 447.852 22.8352 448.182 22.8011C448.515 22.7633 448.758 22.7008 448.909 22.6136C449.064 22.5265 449.142 22.375 449.142 22.1591V22.1136C449.142 21.553 448.989 21.1174 448.682 20.8068C448.379 20.4962 447.919 20.3409 447.301 20.3409C446.661 20.3409 446.159 20.4811 445.795 20.7614C445.432 21.0417 445.176 21.3409 445.028 21.6591L443.756 21.2045C443.983 20.6742 444.286 20.2614 444.665 19.9659C445.047 19.6667 445.464 19.4583 445.915 19.3409C446.369 19.2197 446.816 19.1591 447.256 19.1591C447.536 19.1591 447.858 19.1932 448.222 19.2614C448.589 19.3258 448.943 19.4602 449.284 19.6648C449.629 19.8693 449.915 20.178 450.142 20.5909C450.369 21.0038 450.483 21.5568 450.483 22.25V28H449.142V26.8182H449.074C448.983 27.0076 448.831 27.2102 448.619 27.4261C448.407 27.642 448.125 27.8258 447.773 27.9773C447.42 28.1288 446.991 28.2045 446.483 28.2045ZM446.688 27C447.218 27 447.665 26.8958 448.028 26.6875C448.396 26.4792 448.672 26.2102 448.858 25.8807C449.047 25.5511 449.142 25.2045 449.142 24.8409V23.6136C449.085 23.6818 448.96 23.7443 448.767 23.8011C448.578 23.8542 448.358 23.9015 448.108 23.9432C447.862 23.9811 447.621 24.0152 447.386 24.0455C447.155 24.072 446.968 24.0947 446.824 24.1136C446.475 24.1591 446.15 24.233 445.847 24.3352C445.547 24.4337 445.305 24.5833 445.119 24.7841C444.938 24.9811 444.847 25.25 444.847 25.5909C444.847 26.0568 445.019 26.4091 445.364 26.6477C445.712 26.8826 446.153 27 446.688 27ZM456.726 19.2727V20.4091H452.203V19.2727H456.726ZM453.521 17.1818H454.862V25.5C454.862 25.8788 454.917 26.1629 455.027 26.3523C455.141 26.5379 455.285 26.6629 455.459 26.7273C455.637 26.7879 455.824 26.8182 456.021 26.8182C456.169 26.8182 456.29 26.8106 456.385 26.7955C456.48 26.7765 456.555 26.7614 456.612 26.75L456.885 27.9545C456.794 27.9886 456.667 28.0227 456.504 28.0568C456.341 28.0947 456.135 28.1136 455.885 28.1136C455.506 28.1136 455.135 28.0322 454.771 27.8693C454.411 27.7064 454.112 27.4583 453.874 27.125C453.639 26.7917 453.521 26.3712 453.521 25.8636V17.1818ZM458.743 28V19.2727H460.084V28H458.743ZM459.425 17.8182C459.163 17.8182 458.938 17.7292 458.749 17.5511C458.563 17.3731 458.47 17.1591 458.47 16.9091C458.47 16.6591 458.563 16.4451 458.749 16.267C458.938 16.089 459.163 16 459.425 16C459.686 16 459.91 16.089 460.095 16.267C460.285 16.4451 460.379 16.6591 460.379 16.9091C460.379 17.1591 460.285 17.3731 460.095 17.5511C459.91 17.7292 459.686 17.8182 459.425 17.8182ZM466.085 28.1818C465.297 28.1818 464.606 27.9943 464.011 27.6193C463.42 27.2443 462.958 26.7197 462.625 26.0455C462.295 25.3712 462.131 24.5833 462.131 23.6818C462.131 22.7727 462.295 21.9792 462.625 21.3011C462.958 20.6231 463.42 20.0966 464.011 19.7216C464.606 19.3466 465.297 19.1591 466.085 19.1591C466.873 19.1591 467.563 19.3466 468.153 19.7216C468.748 20.0966 469.21 20.6231 469.54 21.3011C469.873 21.9792 470.04 22.7727 470.04 23.6818C470.04 24.5833 469.873 25.3712 469.54 26.0455C469.21 26.7197 468.748 27.2443 468.153 27.6193C467.563 27.9943 466.873 28.1818 466.085 28.1818ZM466.085 26.9773C466.684 26.9773 467.176 26.8239 467.562 26.517C467.949 26.2102 468.235 25.8068 468.42 25.3068C468.606 24.8068 468.699 24.2652 468.699 23.6818C468.699 23.0985 468.606 22.5549 468.42 22.0511C468.235 21.5473 467.949 21.1402 467.562 20.8295C467.176 20.5189 466.684 20.3636 466.085 20.3636C465.487 20.3636 464.994 20.5189 464.608 20.8295C464.222 21.1402 463.936 21.5473 463.75 22.0511C463.564 22.5549 463.472 23.0985 463.472 23.6818C463.472 24.2652 463.564 24.8068 463.75 25.3068C463.936 25.8068 464.222 26.2102 464.608 26.517C464.994 26.8239 465.487 26.9773 466.085 26.9773ZM473.428 22.75V28H472.087V19.2727H473.382V20.6364H473.496C473.7 20.1932 474.011 19.8371 474.428 19.5682C474.844 19.2955 475.382 19.1591 476.041 19.1591C476.632 19.1591 477.149 19.2803 477.592 19.5227C478.036 19.7614 478.38 20.125 478.626 20.6136C478.873 21.0985 478.996 21.7121 478.996 22.4545V28H477.655V22.5455C477.655 21.8598 477.477 21.3258 477.121 20.9432C476.765 20.5568 476.276 20.3636 475.655 20.3636C475.227 20.3636 474.844 20.4564 474.507 20.642C474.174 20.8277 473.911 21.0985 473.717 21.4545C473.524 21.8106 473.428 22.2424 473.428 22.75Z" fill="#C0C0C3"/>
<rect x="505" y="8" width="28" height="28" rx="6" fill="#1D1D1D"/>
<path fill-rule="evenodd" clip-rule="evenodd" d="M512.703 15.5431C512.505 15.455 512.272 15.5048 512.128 15.6664C511.983 15.828 511.959 16.0645 512.068 16.252L515.421 22L512.068 27.7481C511.959 27.9355 511.983 28.172 512.128 28.3336C512.272 28.4952 512.505 28.545 512.703 28.4569L526.203 22.4569C526.384 22.3767 526.5 22.1976 526.5 22C526.5 21.8024 526.384 21.6234 526.203 21.5431L512.703 15.5431ZM516.346 21.6L513.712 17.086L524.769 22L513.712 26.914L516.346 22.4H520.5C520.721 22.4 520.9 22.2209 520.9 22C520.9 21.7791 520.721 21.6 520.5 21.6H516.346Z" fill="#C0C0C3"/>
<rect x="0.5" y="0.5" width="540" height="43" rx="7.5" stroke="#2D2D30"/>
</svg>
