<svg width="621" height="44" viewBox="0 0 621 44" fill="none" xmlns="http://www.w3.org/2000/svg">
<rect x="0.5" y="0.5" width="620" height="43" rx="7.5" fill="#222222"/>
<path d="M13.4091 28V16.3636H17.3409C18.25 16.3636 18.9962 16.5189 19.5795 16.8295C20.1629 17.1364 20.5947 17.5587 20.875 18.0966C21.1553 18.6345 21.2955 19.2462 21.2955 19.9318C21.2955 20.6174 21.1553 21.2254 20.875 21.7557C20.5947 22.286 20.1648 22.7027 19.5852 23.0057C19.0057 23.3049 18.2652 23.4545 17.3636 23.4545H14.1818V22.1818H17.3182C17.9394 22.1818 18.4394 22.0909 18.8182 21.9091C19.2008 21.7273 19.4773 21.4697 19.6477 21.1364C19.822 20.7992 19.9091 20.3977 19.9091 19.9318C19.9091 19.4659 19.822 19.0587 19.6477 18.7102C19.4735 18.3617 19.1951 18.0928 18.8125 17.9034C18.4299 17.7102 17.9242 17.6136 17.2955 17.6136H14.8182V28H13.4091ZM18.8864 22.7727L21.75 28H20.1136L17.2955 22.7727H18.8864ZM27.027 28.1818C26.1861 28.1818 25.4607 27.9962 24.8509 27.625C24.2448 27.25 23.777 26.7273 23.4474 26.0568C23.1217 25.3826 22.9588 24.5985 22.9588 23.7045C22.9588 22.8106 23.1217 22.0227 23.4474 21.3409C23.777 20.6553 24.2353 20.1212 24.8224 19.7386C25.4134 19.3523 26.1027 19.1591 26.8906 19.1591C27.3452 19.1591 27.794 19.2348 28.2372 19.3864C28.6804 19.5379 29.0838 19.7841 29.4474 20.125C29.8111 20.4621 30.1009 20.9091 30.3168 21.4659C30.5327 22.0227 30.6406 22.7083 30.6406 23.5227V24.0909H23.9134V22.9318H29.277C29.277 22.4394 29.1785 22 28.9815 21.6136C28.7884 21.2273 28.5118 20.9223 28.152 20.6989C27.7959 20.4754 27.3755 20.3636 26.8906 20.3636C26.3565 20.3636 25.8944 20.4962 25.5043 20.7614C25.1179 21.0227 24.8205 21.3636 24.6122 21.7841C24.4039 22.2045 24.2997 22.6553 24.2997 23.1364V23.9091C24.2997 24.5682 24.4134 25.1269 24.6406 25.5852C24.8717 26.0398 25.1918 26.3864 25.6009 26.625C26.0099 26.8598 26.4853 26.9773 27.027 26.9773C27.3793 26.9773 27.6974 26.928 27.9815 26.8295C28.2694 26.7273 28.5175 26.5758 28.7259 26.375C28.9342 26.1705 29.0952 25.9167 29.2088 25.6136L30.5043 25.9773C30.3679 26.4167 30.1387 26.803 29.8168 27.1364C29.4948 27.4659 29.0971 27.7235 28.6236 27.9091C28.1501 28.0909 27.6179 28.1818 27.027 28.1818ZM39.5511 19.2727L36.3239 28H34.9602L31.733 19.2727H33.1875L35.5966 26.2273H35.6875L38.0966 19.2727H39.5511ZM41.321 28V19.2727H42.6619V28H41.321ZM42.0028 17.8182C41.7415 17.8182 41.5161 17.7292 41.3267 17.5511C41.1411 17.3731 41.0483 17.1591 41.0483 16.9091C41.0483 16.6591 41.1411 16.4451 41.3267 16.267C41.5161 16.089 41.7415 16 42.0028 16C42.2642 16 42.4877 16.089 42.6733 16.267C42.8627 16.4451 42.9574 16.6591 42.9574 16.9091C42.9574 17.1591 42.8627 17.3731 42.6733 17.5511C42.4877 17.7292 42.2642 17.8182 42.0028 17.8182ZM48.777 28.1818C47.9361 28.1818 47.2107 27.9962 46.6009 27.625C45.9948 27.25 45.527 26.7273 45.1974 26.0568C44.8717 25.3826 44.7088 24.5985 44.7088 23.7045C44.7088 22.8106 44.8717 22.0227 45.1974 21.3409C45.527 20.6553 45.9853 20.1212 46.5724 19.7386C47.1634 19.3523 47.8527 19.1591 48.6406 19.1591C49.0952 19.1591 49.544 19.2348 49.9872 19.3864C50.4304 19.5379 50.8338 19.7841 51.1974 20.125C51.5611 20.4621 51.8509 20.9091 52.0668 21.4659C52.2827 22.0227 52.3906 22.7083 52.3906 23.5227V24.0909H45.6634V22.9318H51.027C51.027 22.4394 50.9285 22 50.7315 21.6136C50.5384 21.2273 50.2618 20.9223 49.902 20.6989C49.5459 20.4754 49.1255 20.3636 48.6406 20.3636C48.1065 20.3636 47.6444 20.4962 47.2543 20.7614C46.8679 21.0227 46.5705 21.3636 46.3622 21.7841C46.1539 22.2045 46.0497 22.6553 46.0497 23.1364V23.9091C46.0497 24.5682 46.1634 25.1269 46.3906 25.5852C46.6217 26.0398 46.9418 26.3864 47.3509 26.625C47.7599 26.8598 48.2353 26.9773 48.777 26.9773C49.1293 26.9773 49.4474 26.928 49.7315 26.8295C50.0194 26.7273 50.2675 26.5758 50.4759 26.375C50.6842 26.1705 50.8452 25.9167 50.9588 25.6136L52.2543 25.9773C52.1179 26.4167 51.8887 26.803 51.5668 27.1364C51.2448 27.4659 50.8471 27.7235 50.3736 27.9091C49.9001 28.0909 49.3679 28.1818 48.777 28.1818ZM56.4077 28L53.7486 19.2727H55.1577L57.044 25.9545H57.1349L58.9986 19.2727H60.4304L62.2713 25.9318H62.3622L64.2486 19.2727H65.6577L62.9986 28H61.6804L59.7713 21.2955H59.6349L57.7259 28H56.4077ZM75.7259 19.2727V20.4091H71.2031V19.2727H75.7259ZM72.5213 17.1818H73.8622V25.5C73.8622 25.8788 73.9171 26.1629 74.027 26.3523C74.1406 26.5379 74.2846 26.6629 74.4588 26.7273C74.6368 26.7879 74.8243 26.8182 75.0213 26.8182C75.169 26.8182 75.2902 26.8106 75.3849 26.7955C75.4796 26.7765 75.5554 26.7614 75.6122 26.75L75.8849 27.9545C75.794 27.9886 75.6671 28.0227 75.5043 28.0568C75.3414 28.0947 75.1349 28.1136 74.8849 28.1136C74.5062 28.1136 74.1349 28.0322 73.7713 27.8693C73.4115 27.7064 73.1122 27.4583 72.8736 27.125C72.6387 26.7917 72.5213 26.3712 72.5213 25.8636V17.1818ZM79.2713 22.75V28H77.9304V16.3636H79.2713V20.6364H79.3849C79.5895 20.1856 79.8963 19.8277 80.3054 19.5625C80.7183 19.2936 81.2675 19.1591 81.9531 19.1591C82.5478 19.1591 83.0687 19.2784 83.5156 19.517C83.9626 19.7519 84.3092 20.1136 84.5554 20.6023C84.8054 21.0871 84.9304 21.7045 84.9304 22.4545V28H83.5895V22.5455C83.5895 21.8523 83.4096 21.3163 83.0497 20.9375C82.6937 20.5549 82.1993 20.3636 81.5668 20.3636C81.1274 20.3636 80.7334 20.4564 80.3849 20.642C80.0402 20.8277 79.7675 21.0985 79.5668 21.4545C79.3698 21.8106 79.2713 22.2424 79.2713 22.75ZM87.3835 28V19.2727H88.7244V28H87.3835ZM88.0653 17.8182C87.804 17.8182 87.5786 17.7292 87.3892 17.5511C87.2036 17.3731 87.1108 17.1591 87.1108 16.9091C87.1108 16.6591 87.2036 16.4451 87.3892 16.267C87.5786 16.089 87.804 16 88.0653 16C88.3267 16 88.5502 16.089 88.7358 16.267C88.9252 16.4451 89.0199 16.6591 89.0199 16.9091C89.0199 17.1591 88.9252 17.3731 88.7358 17.5511C88.5502 17.7292 88.3267 17.8182 88.0653 17.8182ZM97.3622 21.2273L96.1577 21.5682C96.0819 21.3674 95.9702 21.1723 95.8224 20.983C95.6785 20.7898 95.4815 20.6307 95.2315 20.5057C94.9815 20.3807 94.6615 20.3182 94.2713 20.3182C93.7372 20.3182 93.2921 20.4413 92.9361 20.6875C92.5838 20.9299 92.4077 21.2386 92.4077 21.6136C92.4077 21.947 92.5289 22.2102 92.7713 22.4034C93.0137 22.5966 93.3925 22.7576 93.9077 22.8864L95.2031 23.2045C95.9834 23.3939 96.5649 23.6837 96.9474 24.0739C97.33 24.4602 97.5213 24.9583 97.5213 25.5682C97.5213 26.0682 97.3774 26.5152 97.0895 26.9091C96.8054 27.303 96.4077 27.6136 95.8963 27.8409C95.3849 28.0682 94.7902 28.1818 94.1122 28.1818C93.2221 28.1818 92.4853 27.9886 91.902 27.6023C91.3187 27.2159 90.9493 26.6515 90.794 25.9091L92.0668 25.5909C92.188 26.0606 92.4171 26.4129 92.7543 26.6477C93.0952 26.8826 93.5402 27 94.0895 27C94.7145 27 95.2107 26.8674 95.5781 26.6023C95.9493 26.3333 96.1349 26.0114 96.1349 25.6364C96.1349 25.3333 96.0289 25.0795 95.8168 24.875C95.6046 24.6667 95.2789 24.5114 94.8395 24.4091L93.3849 24.0682C92.5857 23.8788 91.9986 23.5852 91.6236 23.1875C91.2524 22.786 91.0668 22.2841 91.0668 21.6818C91.0668 21.1894 91.205 20.7538 91.4815 20.375C91.7618 19.9962 92.1425 19.6989 92.6236 19.483C93.1084 19.267 93.6577 19.1591 94.2713 19.1591C95.1349 19.1591 95.813 19.3485 96.3054 19.7273C96.8016 20.1061 97.1539 20.6061 97.3622 21.2273ZM107.585 28.1818C106.767 28.1818 106.063 27.9886 105.472 27.6023C104.881 27.2159 104.426 26.6837 104.108 26.0057C103.79 25.3277 103.631 24.553 103.631 23.6818C103.631 22.7955 103.794 22.0133 104.119 21.3352C104.449 20.6534 104.907 20.1212 105.494 19.7386C106.085 19.3523 106.775 19.1591 107.562 19.1591C108.176 19.1591 108.729 19.2727 109.222 19.5C109.714 19.7273 110.117 20.0455 110.432 20.4545C110.746 20.8636 110.941 21.3409 111.017 21.8864H109.676C109.574 21.4886 109.347 21.1364 108.994 20.8295C108.646 20.5189 108.176 20.3636 107.585 20.3636C107.063 20.3636 106.604 20.5 106.21 20.7727C105.82 21.0417 105.515 21.4223 105.295 21.9148C105.08 22.4034 104.972 22.9773 104.972 23.6364C104.972 24.3106 105.078 24.8977 105.29 25.3977C105.506 25.8977 105.809 26.286 106.199 26.5625C106.593 26.839 107.055 26.9773 107.585 26.9773C107.934 26.9773 108.25 26.9167 108.534 26.7955C108.818 26.6742 109.059 26.5 109.256 26.2727C109.453 26.0455 109.593 25.7727 109.676 25.4545H111.017C110.941 25.9697 110.754 26.4337 110.455 26.8466C110.159 27.2557 109.767 27.5814 109.278 27.8239C108.794 28.0625 108.229 28.1818 107.585 28.1818ZM116.523 28.1818C115.735 28.1818 115.044 27.9943 114.449 27.6193C113.858 27.2443 113.396 26.7197 113.062 26.0455C112.733 25.3712 112.568 24.5833 112.568 23.6818C112.568 22.7727 112.733 21.9792 113.062 21.3011C113.396 20.6231 113.858 20.0966 114.449 19.7216C115.044 19.3466 115.735 19.1591 116.523 19.1591C117.311 19.1591 118 19.3466 118.591 19.7216C119.186 20.0966 119.648 20.6231 119.977 21.3011C120.311 21.9792 120.477 22.7727 120.477 23.6818C120.477 24.5833 120.311 25.3712 119.977 26.0455C119.648 26.7197 119.186 27.2443 118.591 27.6193C118 27.9943 117.311 28.1818 116.523 28.1818ZM116.523 26.9773C117.121 26.9773 117.614 26.8239 118 26.517C118.386 26.2102 118.672 25.8068 118.858 25.3068C119.044 24.8068 119.136 24.2652 119.136 23.6818C119.136 23.0985 119.044 22.5549 118.858 22.0511C118.672 21.5473 118.386 21.1402 118 20.8295C117.614 20.5189 117.121 20.3636 116.523 20.3636C115.924 20.3636 115.432 20.5189 115.045 20.8295C114.659 21.1402 114.373 21.5473 114.188 22.0511C114.002 22.5549 113.909 23.0985 113.909 23.6818C113.909 24.2652 114.002 24.8068 114.188 25.3068C114.373 25.8068 114.659 26.2102 115.045 26.517C115.432 26.8239 115.924 26.9773 116.523 26.9773ZM123.865 22.75V28H122.524V19.2727H123.82V20.6364H123.933C124.138 20.1932 124.448 19.8371 124.865 19.5682C125.282 19.2955 125.82 19.1591 126.479 19.1591C127.07 19.1591 127.587 19.2803 128.03 19.5227C128.473 19.7614 128.818 20.125 129.064 20.6136C129.31 21.0985 129.433 21.7121 129.433 22.4545V28H128.092V22.5455C128.092 21.8598 127.914 21.3258 127.558 20.9432C127.202 20.5568 126.714 20.3636 126.092 20.3636C125.664 20.3636 125.282 20.4564 124.945 20.642C124.611 20.8277 124.348 21.0985 124.155 21.4545C123.962 21.8106 123.865 22.2424 123.865 22.75ZM135.679 19.2727V20.4091H131.156V19.2727H135.679ZM132.474 17.1818H133.815V25.5C133.815 25.8788 133.87 26.1629 133.98 26.3523C134.094 26.5379 134.238 26.6629 134.412 26.7273C134.59 26.7879 134.777 26.8182 134.974 26.8182C135.122 26.8182 135.243 26.8106 135.338 26.7955C135.433 26.7765 135.509 26.7614 135.565 26.75L135.838 27.9545C135.747 27.9886 135.62 28.0227 135.457 28.0568C135.295 28.0947 135.088 28.1136 134.838 28.1136C134.459 28.1136 134.088 28.0322 133.724 27.8693C133.365 27.7064 133.065 27.4583 132.827 27.125C132.592 26.7917 132.474 26.3712 132.474 25.8636V17.1818ZM137.696 28V19.2727H138.991V20.5909H139.082C139.241 20.1591 139.529 19.8087 139.946 19.5398C140.363 19.2708 140.832 19.1364 141.355 19.1364C141.454 19.1364 141.577 19.1383 141.724 19.142C141.872 19.1458 141.984 19.1515 142.06 19.1591V20.5227C142.014 20.5114 141.91 20.4943 141.747 20.4716C141.588 20.4451 141.42 20.4318 141.241 20.4318C140.817 20.4318 140.438 20.5208 140.105 20.6989C139.776 20.8731 139.514 21.1155 139.321 21.4261C139.132 21.733 139.037 22.0833 139.037 22.4773V28H137.696ZM146.217 28.2045C145.664 28.2045 145.162 28.1004 144.712 27.892C144.261 27.6799 143.903 27.375 143.638 26.9773C143.373 26.5758 143.24 26.0909 143.24 25.5227C143.24 25.0227 143.339 24.6174 143.536 24.3068C143.732 23.9924 143.996 23.7462 144.325 23.5682C144.655 23.3902 145.018 23.2576 145.416 23.1705C145.818 23.0795 146.221 23.0076 146.626 22.9545C147.157 22.8864 147.587 22.8352 147.916 22.8011C148.25 22.7633 148.492 22.7008 148.643 22.6136C148.799 22.5265 148.876 22.375 148.876 22.1591V22.1136C148.876 21.553 148.723 21.1174 148.416 20.8068C148.113 20.4962 147.653 20.3409 147.036 20.3409C146.395 20.3409 145.893 20.4811 145.53 20.7614C145.166 21.0417 144.911 21.3409 144.763 21.6591L143.49 21.2045C143.717 20.6742 144.02 20.2614 144.399 19.9659C144.782 19.6667 145.198 19.4583 145.649 19.3409C146.104 19.2197 146.551 19.1591 146.99 19.1591C147.27 19.1591 147.592 19.1932 147.956 19.2614C148.323 19.3258 148.678 19.4602 149.018 19.6648C149.363 19.8693 149.649 20.178 149.876 20.5909C150.104 21.0038 150.217 21.5568 150.217 22.25V28H148.876V26.8182H148.808C148.717 27.0076 148.566 27.2102 148.354 27.4261C148.142 27.642 147.859 27.8258 147.507 27.9773C147.155 28.1288 146.725 28.2045 146.217 28.2045ZM146.422 27C146.952 27 147.399 26.8958 147.763 26.6875C148.13 26.4792 148.407 26.2102 148.592 25.8807C148.782 25.5511 148.876 25.2045 148.876 24.8409V23.6136C148.82 23.6818 148.695 23.7443 148.501 23.8011C148.312 23.8542 148.092 23.9015 147.842 23.9432C147.596 23.9811 147.356 24.0152 147.121 24.0455C146.89 24.072 146.702 24.0947 146.558 24.1136C146.21 24.1591 145.884 24.233 145.581 24.3352C145.282 24.4337 145.039 24.5833 144.854 24.7841C144.672 24.9811 144.581 25.25 144.581 25.5909C144.581 26.0568 144.753 26.4091 145.098 26.6477C145.446 26.8826 145.888 27 146.422 27ZM156.21 28.1818C155.392 28.1818 154.688 27.9886 154.097 27.6023C153.506 27.2159 153.051 26.6837 152.733 26.0057C152.415 25.3277 152.256 24.553 152.256 23.6818C152.256 22.7955 152.419 22.0133 152.744 21.3352C153.074 20.6534 153.532 20.1212 154.119 19.7386C154.71 19.3523 155.4 19.1591 156.188 19.1591C156.801 19.1591 157.354 19.2727 157.847 19.5C158.339 19.7273 158.742 20.0455 159.057 20.4545C159.371 20.8636 159.566 21.3409 159.642 21.8864H158.301C158.199 21.4886 157.972 21.1364 157.619 20.8295C157.271 20.5189 156.801 20.3636 156.21 20.3636C155.688 20.3636 155.229 20.5 154.835 20.7727C154.445 21.0417 154.14 21.4223 153.92 21.9148C153.705 22.4034 153.597 22.9773 153.597 23.6364C153.597 24.3106 153.703 24.8977 153.915 25.3977C154.131 25.8977 154.434 26.286 154.824 26.5625C155.218 26.839 155.68 26.9773 156.21 26.9773C156.559 26.9773 156.875 26.9167 157.159 26.7955C157.443 26.6742 157.684 26.5 157.881 26.2727C158.078 26.0455 158.218 25.7727 158.301 25.4545H159.642C159.566 25.9697 159.379 26.4337 159.08 26.8466C158.784 27.2557 158.392 27.5814 157.903 27.8239C157.419 28.0625 156.854 28.1818 156.21 28.1818ZM165.398 19.2727V20.4091H160.875V19.2727H165.398ZM162.193 17.1818H163.534V25.5C163.534 25.8788 163.589 26.1629 163.699 26.3523C163.813 26.5379 163.956 26.6629 164.131 26.7273C164.309 26.7879 164.496 26.8182 164.693 26.8182C164.841 26.8182 164.962 26.8106 165.057 26.7955C165.152 26.7765 165.227 26.7614 165.284 26.75L165.557 27.9545C165.466 27.9886 165.339 28.0227 165.176 28.0568C165.013 28.0947 164.807 28.1136 164.557 28.1136C164.178 28.1136 163.807 28.0322 163.443 27.8693C163.083 27.7064 162.784 27.4583 162.545 27.125C162.311 26.7917 162.193 26.3712 162.193 25.8636V17.1818ZM174.483 28.2045C173.93 28.2045 173.428 28.1004 172.977 27.892C172.527 27.6799 172.169 27.375 171.903 26.9773C171.638 26.5758 171.506 26.0909 171.506 25.5227C171.506 25.0227 171.604 24.6174 171.801 24.3068C171.998 23.9924 172.261 23.7462 172.591 23.5682C172.92 23.3902 173.284 23.2576 173.682 23.1705C174.083 23.0795 174.487 23.0076 174.892 22.9545C175.422 22.8864 175.852 22.8352 176.182 22.8011C176.515 22.7633 176.758 22.7008 176.909 22.6136C177.064 22.5265 177.142 22.375 177.142 22.1591V22.1136C177.142 21.553 176.989 21.1174 176.682 20.8068C176.379 20.4962 175.919 20.3409 175.301 20.3409C174.661 20.3409 174.159 20.4811 173.795 20.7614C173.432 21.0417 173.176 21.3409 173.028 21.6591L171.756 21.2045C171.983 20.6742 172.286 20.2614 172.665 19.9659C173.047 19.6667 173.464 19.4583 173.915 19.3409C174.369 19.2197 174.816 19.1591 175.256 19.1591C175.536 19.1591 175.858 19.1932 176.222 19.2614C176.589 19.3258 176.943 19.4602 177.284 19.6648C177.629 19.8693 177.915 20.178 178.142 20.5909C178.369 21.0038 178.483 21.5568 178.483 22.25V28H177.142V26.8182H177.074C176.983 27.0076 176.831 27.2102 176.619 27.4261C176.407 27.642 176.125 27.8258 175.773 27.9773C175.42 28.1288 174.991 28.2045 174.483 28.2045ZM174.688 27C175.218 27 175.665 26.8958 176.028 26.6875C176.396 26.4792 176.672 26.2102 176.858 25.8807C177.047 25.5511 177.142 25.2045 177.142 24.8409V23.6136C177.085 23.6818 176.96 23.7443 176.767 23.8011C176.578 23.8542 176.358 23.9015 176.108 23.9432C175.862 23.9811 175.621 24.0152 175.386 24.0455C175.155 24.072 174.968 24.0947 174.824 24.1136C174.475 24.1591 174.15 24.233 173.847 24.3352C173.547 24.4337 173.305 24.5833 173.119 24.7841C172.938 24.9811 172.847 25.25 172.847 25.5909C172.847 26.0568 173.019 26.4091 173.364 26.6477C173.712 26.8826 174.153 27 174.688 27ZM182.271 22.75V28H180.93V19.2727H182.226V20.6364H182.339C182.544 20.1932 182.855 19.8371 183.271 19.5682C183.688 19.2955 184.226 19.1591 184.885 19.1591C185.476 19.1591 185.993 19.2803 186.436 19.5227C186.879 19.7614 187.224 20.125 187.47 20.6136C187.716 21.0985 187.839 21.7121 187.839 22.4545V28H186.499V22.5455C186.499 21.8598 186.321 21.3258 185.964 20.9432C185.608 20.5568 185.12 20.3636 184.499 20.3636C184.071 20.3636 183.688 20.4564 183.351 20.642C183.018 20.8277 182.754 21.0985 182.561 21.4545C182.368 21.8106 182.271 22.2424 182.271 22.75ZM193.585 28.1818C192.858 28.1818 192.216 27.9981 191.659 27.6307C191.102 27.2595 190.667 26.7367 190.352 26.0625C190.038 25.3845 189.881 24.5833 189.881 23.6591C189.881 22.7424 190.038 21.947 190.352 21.2727C190.667 20.5985 191.104 20.0777 191.665 19.7102C192.225 19.3428 192.873 19.1591 193.608 19.1591C194.176 19.1591 194.625 19.2538 194.955 19.4432C195.288 19.6288 195.542 19.8409 195.716 20.0795C195.894 20.3144 196.032 20.5076 196.131 20.6591H196.244V16.3636H197.585V28H196.29V26.6591H196.131C196.032 26.8182 195.892 27.0189 195.71 27.2614C195.528 27.5 195.269 27.714 194.932 27.9034C194.595 28.089 194.146 28.1818 193.585 28.1818ZM193.767 26.9773C194.305 26.9773 194.759 26.8371 195.131 26.5568C195.502 26.2727 195.784 25.8807 195.977 25.3807C196.17 24.8769 196.267 24.2955 196.267 23.6364C196.267 22.9848 196.172 22.4148 195.983 21.9261C195.794 21.4337 195.513 21.0511 195.142 20.7784C194.771 20.5019 194.313 20.3636 193.767 20.3636C193.199 20.3636 192.725 20.5095 192.347 20.8011C191.972 21.089 191.689 21.4811 191.5 21.9773C191.314 22.4697 191.222 23.0227 191.222 23.6364C191.222 24.2576 191.316 24.822 191.506 25.3295C191.699 25.8333 191.983 26.2348 192.358 26.5341C192.737 26.8295 193.206 26.9773 193.767 26.9773ZM206.068 22.75V28H204.727V16.3636H206.068V20.6364H206.182C206.386 20.1856 206.693 19.8277 207.102 19.5625C207.515 19.2936 208.064 19.1591 208.75 19.1591C209.345 19.1591 209.866 19.2784 210.312 19.517C210.759 19.7519 211.106 20.1136 211.352 20.6023C211.602 21.0871 211.727 21.7045 211.727 22.4545V28H210.386V22.5455C210.386 21.8523 210.206 21.3163 209.847 20.9375C209.491 20.5549 208.996 20.3636 208.364 20.3636C207.924 20.3636 207.53 20.4564 207.182 20.642C206.837 20.8277 206.564 21.0985 206.364 21.4545C206.167 21.8106 206.068 22.2424 206.068 22.75ZM214.18 28V19.2727H215.521V28H214.18ZM214.862 17.8182C214.601 17.8182 214.375 17.7292 214.186 17.5511C214 17.3731 213.908 17.1591 213.908 16.9091C213.908 16.6591 214 16.4451 214.186 16.267C214.375 16.089 214.601 16 214.862 16C215.124 16 215.347 16.089 215.533 16.267C215.722 16.4451 215.817 16.6591 215.817 16.9091C215.817 17.1591 215.722 17.3731 215.533 17.5511C215.347 17.7292 215.124 17.8182 214.862 17.8182ZM221.5 31.4545C220.852 31.4545 220.295 31.3712 219.83 31.2045C219.364 31.0417 218.975 30.8258 218.665 30.5568C218.358 30.2917 218.114 30.0076 217.932 29.7045L219 28.9545C219.121 29.1136 219.275 29.2955 219.46 29.5C219.646 29.7083 219.9 29.8883 220.222 30.0398C220.547 30.1951 220.973 30.2727 221.5 30.2727C222.205 30.2727 222.786 30.1023 223.244 29.7614C223.703 29.4205 223.932 28.8864 223.932 28.1591V26.3864H223.818C223.72 26.5455 223.58 26.7424 223.398 26.9773C223.22 27.2083 222.962 27.4148 222.625 27.5966C222.292 27.7746 221.841 27.8636 221.273 27.8636C220.568 27.8636 219.936 27.697 219.375 27.3636C218.818 27.0303 218.377 26.5455 218.051 25.9091C217.729 25.2727 217.568 24.5 217.568 23.5909C217.568 22.697 217.725 21.9186 218.04 21.2557C218.354 20.589 218.792 20.0739 219.352 19.7102C219.913 19.3428 220.561 19.1591 221.295 19.1591C221.864 19.1591 222.314 19.2538 222.648 19.4432C222.985 19.6288 223.242 19.8409 223.42 20.0795C223.602 20.3144 223.742 20.5076 223.841 20.6591H223.977V19.2727H225.273V28.25C225.273 29 225.102 29.6098 224.761 30.0795C224.424 30.553 223.97 30.8996 223.398 31.1193C222.83 31.3428 222.197 31.4545 221.5 31.4545ZM221.455 26.6591C221.992 26.6591 222.447 26.536 222.818 26.2898C223.189 26.0436 223.472 25.6894 223.665 25.2273C223.858 24.7652 223.955 24.2121 223.955 23.5682C223.955 22.9394 223.86 22.3845 223.67 21.9034C223.481 21.4223 223.201 21.0455 222.83 20.7727C222.458 20.5 222 20.3636 221.455 20.3636C220.886 20.3636 220.413 20.5076 220.034 20.7955C219.659 21.0833 219.377 21.4697 219.188 21.9545C219.002 22.4394 218.909 22.9773 218.909 23.5682C218.909 24.1742 219.004 24.7102 219.193 25.1761C219.386 25.6383 219.67 26.0019 220.045 26.267C220.424 26.5284 220.894 26.6591 221.455 26.6591ZM229.068 22.75V28H227.727V16.3636H229.068V20.6364H229.182C229.386 20.1856 229.693 19.8277 230.102 19.5625C230.515 19.2936 231.064 19.1591 231.75 19.1591C232.345 19.1591 232.866 19.2784 233.312 19.517C233.759 19.7519 234.106 20.1136 234.352 20.6023C234.602 21.0871 234.727 21.7045 234.727 22.4545V28H233.386V22.5455C233.386 21.8523 233.206 21.3163 232.847 20.9375C232.491 20.5549 231.996 20.3636 231.364 20.3636C230.924 20.3636 230.53 20.4564 230.182 20.642C229.837 20.8277 229.564 21.0985 229.364 21.4545C229.167 21.8106 229.068 22.2424 229.068 22.75ZM238.521 16.3636V28H237.18V16.3636H238.521ZM240.977 28V19.2727H242.318V28H240.977ZM241.659 17.8182C241.398 17.8182 241.172 17.7292 240.983 17.5511C240.797 17.3731 240.705 17.1591 240.705 16.9091C240.705 16.6591 240.797 16.4451 240.983 16.267C241.172 16.089 241.398 16 241.659 16C241.92 16 242.144 16.089 242.33 16.267C242.519 16.4451 242.614 16.6591 242.614 16.9091C242.614 17.1591 242.519 17.3731 242.33 17.5511C242.144 17.7292 241.92 17.8182 241.659 17.8182ZM248.297 31.4545C247.649 31.4545 247.092 31.3712 246.626 31.2045C246.161 31.0417 245.772 30.8258 245.462 30.5568C245.155 30.2917 244.911 30.0076 244.729 29.7045L245.797 28.9545C245.918 29.1136 246.071 29.2955 246.257 29.5C246.443 29.7083 246.696 29.8883 247.018 30.0398C247.344 30.1951 247.77 30.2727 248.297 30.2727C249.001 30.2727 249.583 30.1023 250.041 29.7614C250.5 29.4205 250.729 28.8864 250.729 28.1591V26.3864H250.615C250.517 26.5455 250.376 26.7424 250.195 26.9773C250.017 27.2083 249.759 27.4148 249.422 27.5966C249.089 27.7746 248.638 27.8636 248.07 27.8636C247.365 27.8636 246.732 27.697 246.172 27.3636C245.615 27.0303 245.174 26.5455 244.848 25.9091C244.526 25.2727 244.365 24.5 244.365 23.5909C244.365 22.697 244.522 21.9186 244.837 21.2557C245.151 20.589 245.589 20.0739 246.149 19.7102C246.71 19.3428 247.357 19.1591 248.092 19.1591C248.661 19.1591 249.111 19.2538 249.445 19.4432C249.782 19.6288 250.039 19.8409 250.217 20.0795C250.399 20.3144 250.539 20.5076 250.638 20.6591H250.774V19.2727H252.07V28.25C252.07 29 251.899 29.6098 251.558 30.0795C251.221 30.553 250.767 30.8996 250.195 31.1193C249.626 31.3428 248.994 31.4545 248.297 31.4545ZM248.251 26.6591C248.789 26.6591 249.244 26.536 249.615 26.2898C249.986 26.0436 250.268 25.6894 250.462 25.2273C250.655 24.7652 250.751 24.2121 250.751 23.5682C250.751 22.9394 250.657 22.3845 250.467 21.9034C250.278 21.4223 249.998 21.0455 249.626 20.7727C249.255 20.5 248.797 20.3636 248.251 20.3636C247.683 20.3636 247.21 20.5076 246.831 20.7955C246.456 21.0833 246.174 21.4697 245.984 21.9545C245.799 22.4394 245.706 22.9773 245.706 23.5682C245.706 24.1742 245.801 24.7102 245.99 25.1761C246.183 25.6383 246.467 26.0019 246.842 26.267C247.221 26.5284 247.691 26.6591 248.251 26.6591ZM255.865 22.75V28H254.524V16.3636H255.865V20.6364H255.979C256.183 20.1856 256.49 19.8277 256.899 19.5625C257.312 19.2936 257.861 19.1591 258.547 19.1591C259.142 19.1591 259.662 19.2784 260.109 19.517C260.556 19.7519 260.903 20.1136 261.149 20.6023C261.399 21.0871 261.524 21.7045 261.524 22.4545V28H260.183V22.5455C260.183 21.8523 260.003 21.3163 259.643 20.9375C259.287 20.5549 258.793 20.3636 258.161 20.3636C257.721 20.3636 257.327 20.4564 256.979 20.642C256.634 20.8277 256.361 21.0985 256.161 21.4545C255.964 21.8106 255.865 22.2424 255.865 22.75ZM267.773 19.2727V20.4091H263.25V19.2727H267.773ZM264.568 17.1818H265.909V25.5C265.909 25.8788 265.964 26.1629 266.074 26.3523C266.188 26.5379 266.331 26.6629 266.506 26.7273C266.684 26.7879 266.871 26.8182 267.068 26.8182C267.216 26.8182 267.337 26.8106 267.432 26.7955C267.527 26.7765 267.602 26.7614 267.659 26.75L267.932 27.9545C267.841 27.9886 267.714 28.0227 267.551 28.0568C267.388 28.0947 267.182 28.1136 266.932 28.1136C266.553 28.1136 266.182 28.0322 265.818 27.8693C265.458 27.7064 265.159 27.4583 264.92 27.125C264.686 26.7917 264.568 26.3712 264.568 25.8636V17.1818ZM276.858 28.2045C276.305 28.2045 275.803 28.1004 275.352 27.892C274.902 27.6799 274.544 27.375 274.278 26.9773C274.013 26.5758 273.881 26.0909 273.881 25.5227C273.881 25.0227 273.979 24.6174 274.176 24.3068C274.373 23.9924 274.636 23.7462 274.966 23.5682C275.295 23.3902 275.659 23.2576 276.057 23.1705C276.458 23.0795 276.862 23.0076 277.267 22.9545C277.797 22.8864 278.227 22.8352 278.557 22.8011C278.89 22.7633 279.133 22.7008 279.284 22.6136C279.439 22.5265 279.517 22.375 279.517 22.1591V22.1136C279.517 21.553 279.364 21.1174 279.057 20.8068C278.754 20.4962 278.294 20.3409 277.676 20.3409C277.036 20.3409 276.534 20.4811 276.17 20.7614C275.807 21.0417 275.551 21.3409 275.403 21.6591L274.131 21.2045C274.358 20.6742 274.661 20.2614 275.04 19.9659C275.422 19.6667 275.839 19.4583 276.29 19.3409C276.744 19.2197 277.191 19.1591 277.631 19.1591C277.911 19.1591 278.233 19.1932 278.597 19.2614C278.964 19.3258 279.318 19.4602 279.659 19.6648C280.004 19.8693 280.29 20.178 280.517 20.5909C280.744 21.0038 280.858 21.5568 280.858 22.25V28H279.517V26.8182H279.449C279.358 27.0076 279.206 27.2102 278.994 27.4261C278.782 27.642 278.5 27.8258 278.148 27.9773C277.795 28.1288 277.366 28.2045 276.858 28.2045ZM277.062 27C277.593 27 278.04 26.8958 278.403 26.6875C278.771 26.4792 279.047 26.2102 279.233 25.8807C279.422 25.5511 279.517 25.2045 279.517 24.8409V23.6136C279.46 23.6818 279.335 23.7443 279.142 23.8011C278.953 23.8542 278.733 23.9015 278.483 23.9432C278.237 23.9811 277.996 24.0152 277.761 24.0455C277.53 24.072 277.343 24.0947 277.199 24.1136C276.85 24.1591 276.525 24.233 276.222 24.3352C275.922 24.4337 275.68 24.5833 275.494 24.7841C275.313 24.9811 275.222 25.25 275.222 25.5909C275.222 26.0568 275.394 26.4091 275.739 26.6477C276.087 26.8826 276.528 27 277.062 27ZM284.646 22.75V28H283.305V19.2727H284.601V20.6364H284.714C284.919 20.1932 285.23 19.8371 285.646 19.5682C286.063 19.2955 286.601 19.1591 287.26 19.1591C287.851 19.1591 288.368 19.2803 288.811 19.5227C289.254 19.7614 289.599 20.125 289.845 20.6136C290.091 21.0985 290.214 21.7121 290.214 22.4545V28H288.874V22.5455C288.874 21.8598 288.696 21.3258 288.339 20.9432C287.983 20.5568 287.495 20.3636 286.874 20.3636C286.446 20.3636 286.063 20.4564 285.726 20.642C285.393 20.8277 285.129 21.0985 284.936 21.4545C284.743 21.8106 284.646 22.2424 284.646 22.75ZM293.216 31.2727C292.989 31.2727 292.786 31.2538 292.608 31.2159C292.43 31.1818 292.307 31.1477 292.239 31.1136L292.58 29.9318C292.905 30.0152 293.193 30.0455 293.443 30.0227C293.693 30 293.915 29.8883 294.108 29.6875C294.305 29.4905 294.485 29.1705 294.648 28.7273L294.898 28.0455L291.67 19.2727H293.125L295.534 26.2273H295.625L298.034 19.2727H299.489L295.784 29.2727C295.617 29.7235 295.411 30.0966 295.165 30.392C294.919 30.6913 294.633 30.9129 294.307 31.0568C293.985 31.2008 293.621 31.2727 293.216 31.2727ZM308.327 28.2045C307.774 28.2045 307.272 28.1004 306.821 27.892C306.37 27.6799 306.012 27.375 305.747 26.9773C305.482 26.5758 305.349 26.0909 305.349 25.5227C305.349 25.0227 305.448 24.6174 305.645 24.3068C305.842 23.9924 306.105 23.7462 306.435 23.5682C306.764 23.3902 307.128 23.2576 307.526 23.1705C307.927 23.0795 308.33 23.0076 308.736 22.9545C309.266 22.8864 309.696 22.8352 310.026 22.8011C310.359 22.7633 310.601 22.7008 310.753 22.6136C310.908 22.5265 310.986 22.375 310.986 22.1591V22.1136C310.986 21.553 310.832 21.1174 310.526 20.8068C310.223 20.4962 309.762 20.3409 309.145 20.3409C308.505 20.3409 308.003 20.4811 307.639 20.7614C307.276 21.0417 307.02 21.3409 306.872 21.6591L305.599 21.2045C305.827 20.6742 306.13 20.2614 306.509 19.9659C306.891 19.6667 307.308 19.4583 307.759 19.3409C308.213 19.2197 308.66 19.1591 309.099 19.1591C309.38 19.1591 309.702 19.1932 310.065 19.2614C310.433 19.3258 310.787 19.4602 311.128 19.6648C311.473 19.8693 311.759 20.178 311.986 20.5909C312.213 21.0038 312.327 21.5568 312.327 22.25V28H310.986V26.8182H310.918C310.827 27.0076 310.675 27.2102 310.463 27.4261C310.251 27.642 309.969 27.8258 309.616 27.9773C309.264 28.1288 308.834 28.2045 308.327 28.2045ZM308.531 27C309.062 27 309.509 26.8958 309.872 26.6875C310.24 26.4792 310.516 26.2102 310.702 25.8807C310.891 25.5511 310.986 25.2045 310.986 24.8409V23.6136C310.929 23.6818 310.804 23.7443 310.611 23.8011C310.421 23.8542 310.202 23.9015 309.952 23.9432C309.705 23.9811 309.465 24.0152 309.23 24.0455C308.999 24.072 308.812 24.0947 308.668 24.1136C308.319 24.1591 307.993 24.233 307.69 24.3352C307.391 24.4337 307.149 24.5833 306.963 24.7841C306.781 24.9811 306.69 25.25 306.69 25.5909C306.69 26.0568 306.863 26.4091 307.207 26.6477C307.556 26.8826 307.997 27 308.531 27ZM314.774 28V19.2727H316.07V20.6364H316.183C316.365 20.1705 316.659 19.8087 317.064 19.5511C317.469 19.2898 317.956 19.1591 318.524 19.1591C319.1 19.1591 319.579 19.2898 319.962 19.5511C320.348 19.8087 320.649 20.1705 320.865 20.6364H320.956C321.179 20.1856 321.515 19.8277 321.962 19.5625C322.409 19.2936 322.945 19.1591 323.57 19.1591C324.35 19.1591 324.988 19.4034 325.484 19.892C325.981 20.3769 326.229 21.1326 326.229 22.1591V28H324.888V22.1591C324.888 21.5152 324.712 21.0549 324.359 20.7784C324.007 20.5019 323.592 20.3636 323.115 20.3636C322.501 20.3636 322.026 20.5492 321.689 20.9205C321.352 21.2879 321.183 21.7538 321.183 22.3182V28H319.82V22.0227C319.82 21.5265 319.659 21.1269 319.337 20.8239C319.015 20.517 318.6 20.3636 318.092 20.3636C317.744 20.3636 317.418 20.4564 317.115 20.642C316.816 20.8277 316.573 21.0852 316.388 21.4148C316.206 21.7405 316.115 22.1174 316.115 22.5455V28H314.774ZM328.862 28V16.3636H330.203V20.6591H330.317C330.415 20.5076 330.552 20.3144 330.726 20.0795C330.904 19.8409 331.158 19.6288 331.487 19.4432C331.821 19.2538 332.271 19.1591 332.839 19.1591C333.574 19.1591 334.222 19.3428 334.783 19.7102C335.343 20.0777 335.781 20.5985 336.095 21.2727C336.41 21.947 336.567 22.7424 336.567 23.6591C336.567 24.5833 336.41 25.3845 336.095 26.0625C335.781 26.7367 335.345 27.2595 334.788 27.6307C334.232 27.9981 333.589 28.1818 332.862 28.1818C332.302 28.1818 331.853 28.089 331.516 27.9034C331.179 27.714 330.919 27.5 330.737 27.2614C330.555 27.0189 330.415 26.8182 330.317 26.6591H330.158V28H328.862ZM330.18 23.6364C330.18 24.2955 330.277 24.8769 330.47 25.3807C330.663 25.8807 330.946 26.2727 331.317 26.5568C331.688 26.8371 332.143 26.9773 332.68 26.9773C333.241 26.9773 333.709 26.8295 334.084 26.5341C334.463 26.2348 334.747 25.8333 334.936 25.3295C335.129 24.822 335.226 24.2576 335.226 23.6364C335.226 23.0227 335.131 22.4697 334.942 21.9773C334.756 21.4811 334.474 21.089 334.095 20.8011C333.72 20.5095 333.249 20.3636 332.68 20.3636C332.135 20.3636 331.677 20.5019 331.305 20.7784C330.934 21.0511 330.654 21.4337 330.464 21.9261C330.275 22.4148 330.18 22.9848 330.18 23.6364ZM338.618 28V19.2727H339.959V28H338.618ZM339.3 17.8182C339.038 17.8182 338.813 17.7292 338.624 17.5511C338.438 17.3731 338.345 17.1591 338.345 16.9091C338.345 16.6591 338.438 16.4451 338.624 16.267C338.813 16.089 339.038 16 339.3 16C339.561 16 339.785 16.089 339.97 16.267C340.16 16.4451 340.254 16.6591 340.254 16.9091C340.254 17.1591 340.16 17.3731 339.97 17.5511C339.785 17.7292 339.561 17.8182 339.3 17.8182ZM345.938 31.4545C345.29 31.4545 344.733 31.3712 344.267 31.2045C343.801 31.0417 343.413 30.8258 343.102 30.5568C342.795 30.2917 342.551 30.0076 342.369 29.7045L343.438 28.9545C343.559 29.1136 343.712 29.2955 343.898 29.5C344.083 29.7083 344.337 29.8883 344.659 30.0398C344.985 30.1951 345.411 30.2727 345.938 30.2727C346.642 30.2727 347.223 30.1023 347.682 29.7614C348.14 29.4205 348.369 28.8864 348.369 28.1591V26.3864H348.256C348.157 26.5455 348.017 26.7424 347.835 26.9773C347.657 27.2083 347.4 27.4148 347.062 27.5966C346.729 27.7746 346.278 27.8636 345.71 27.8636C345.006 27.8636 344.373 27.697 343.812 27.3636C343.256 27.0303 342.814 26.5455 342.489 25.9091C342.167 25.2727 342.006 24.5 342.006 23.5909C342.006 22.697 342.163 21.9186 342.477 21.2557C342.792 20.589 343.229 20.0739 343.79 19.7102C344.35 19.3428 344.998 19.1591 345.733 19.1591C346.301 19.1591 346.752 19.2538 347.085 19.4432C347.422 19.6288 347.68 19.8409 347.858 20.0795C348.04 20.3144 348.18 20.5076 348.278 20.6591H348.415V19.2727H349.71V28.25C349.71 29 349.54 29.6098 349.199 30.0795C348.862 30.553 348.407 30.8996 347.835 31.1193C347.267 31.3428 346.634 31.4545 345.938 31.4545ZM345.892 26.6591C346.43 26.6591 346.884 26.536 347.256 26.2898C347.627 26.0436 347.909 25.6894 348.102 25.2273C348.295 24.7652 348.392 24.2121 348.392 23.5682C348.392 22.9394 348.297 22.3845 348.108 21.9034C347.919 21.4223 347.638 21.0455 347.267 20.7727C346.896 20.5 346.438 20.3636 345.892 20.3636C345.324 20.3636 344.85 20.5076 344.472 20.7955C344.097 21.0833 343.814 21.4697 343.625 21.9545C343.439 22.4394 343.347 22.9773 343.347 23.5682C343.347 24.1742 343.441 24.7102 343.631 25.1761C343.824 25.6383 344.108 26.0019 344.483 26.267C344.862 26.5284 345.331 26.6591 345.892 26.6591ZM357.665 24.4318V19.2727H359.006V28H357.665V26.5227H357.574C357.369 26.9659 357.051 27.3428 356.619 27.6534C356.188 27.9602 355.642 28.1136 354.983 28.1136C354.438 28.1136 353.953 27.9943 353.528 27.7557C353.104 27.5133 352.771 27.1496 352.528 26.6648C352.286 26.1761 352.165 25.5606 352.165 24.8182V19.2727H353.506V24.7273C353.506 25.3636 353.684 25.8712 354.04 26.25C354.4 26.6288 354.858 26.8182 355.415 26.8182C355.748 26.8182 356.087 26.733 356.432 26.5625C356.78 26.392 357.072 26.1307 357.307 25.7784C357.545 25.4261 357.665 24.9773 357.665 24.4318ZM361.462 28V19.2727H362.803V28H361.462ZM362.143 17.8182C361.882 17.8182 361.657 17.7292 361.467 17.5511C361.282 17.3731 361.189 17.1591 361.189 16.9091C361.189 16.6591 361.282 16.4451 361.467 16.267C361.657 16.089 361.882 16 362.143 16C362.405 16 362.628 16.089 362.814 16.267C363.003 16.4451 363.098 16.6591 363.098 16.9091C363.098 17.1591 363.003 17.3731 362.814 17.5511C362.628 17.7292 362.405 17.8182 362.143 17.8182ZM369.054 19.2727V20.4091H364.531V19.2727H369.054ZM365.849 17.1818H367.19V25.5C367.19 25.8788 367.245 26.1629 367.355 26.3523C367.469 26.5379 367.613 26.6629 367.787 26.7273C367.965 26.7879 368.152 26.8182 368.349 26.8182C368.497 26.8182 368.618 26.8106 368.713 26.7955C368.808 26.7765 368.884 26.7614 368.94 26.75L369.213 27.9545C369.122 27.9886 368.995 28.0227 368.832 28.0568C368.67 28.0947 368.463 28.1136 368.213 28.1136C367.834 28.1136 367.463 28.0322 367.099 27.8693C366.74 27.7064 366.44 27.4583 366.202 27.125C365.967 26.7917 365.849 26.3712 365.849 25.8636V17.1818ZM371.071 28V19.2727H372.412V28H371.071ZM371.753 17.8182C371.491 17.8182 371.266 17.7292 371.077 17.5511C370.891 17.3731 370.798 17.1591 370.798 16.9091C370.798 16.6591 370.891 16.4451 371.077 16.267C371.266 16.089 371.491 16 371.753 16C372.014 16 372.238 16.089 372.423 16.267C372.613 16.4451 372.707 16.6591 372.707 16.9091C372.707 17.1591 372.613 17.3731 372.423 17.5511C372.238 17.7292 372.014 17.8182 371.753 17.8182ZM378.527 28.1818C377.686 28.1818 376.961 27.9962 376.351 27.625C375.745 27.25 375.277 26.7273 374.947 26.0568C374.622 25.3826 374.459 24.5985 374.459 23.7045C374.459 22.8106 374.622 22.0227 374.947 21.3409C375.277 20.6553 375.735 20.1212 376.322 19.7386C376.913 19.3523 377.603 19.1591 378.391 19.1591C378.845 19.1591 379.294 19.2348 379.737 19.3864C380.18 19.5379 380.584 19.7841 380.947 20.125C381.311 20.4621 381.601 20.9091 381.817 21.4659C382.033 22.0227 382.141 22.7083 382.141 23.5227V24.0909H375.413V22.9318H380.777C380.777 22.4394 380.679 22 380.482 21.6136C380.288 21.2273 380.012 20.9223 379.652 20.6989C379.296 20.4754 378.875 20.3636 378.391 20.3636C377.857 20.3636 377.394 20.4962 377.004 20.7614C376.618 21.0227 376.321 21.3636 376.112 21.7841C375.904 22.2045 375.8 22.6553 375.8 23.1364V23.9091C375.8 24.5682 375.913 25.1269 376.141 25.5852C376.372 26.0398 376.692 26.3864 377.101 26.625C377.51 26.8598 377.985 26.9773 378.527 26.9773C378.879 26.9773 379.197 26.928 379.482 26.8295C379.769 26.7273 380.018 26.5758 380.226 26.375C380.434 26.1705 380.595 25.9167 380.709 25.6136L382.004 25.9773C381.868 26.4167 381.639 26.803 381.317 27.1364C380.995 27.4659 380.597 27.7235 380.124 27.9091C379.65 28.0909 379.118 28.1818 378.527 28.1818ZM390.362 21.2273L389.158 21.5682C389.082 21.3674 388.97 21.1723 388.822 20.983C388.679 20.7898 388.482 20.6307 388.232 20.5057C387.982 20.3807 387.661 20.3182 387.271 20.3182C386.737 20.3182 386.292 20.4413 385.936 20.6875C385.584 20.9299 385.408 21.2386 385.408 21.6136C385.408 21.947 385.529 22.2102 385.771 22.4034C386.014 22.5966 386.393 22.7576 386.908 22.8864L388.203 23.2045C388.983 23.3939 389.565 23.6837 389.947 24.0739C390.33 24.4602 390.521 24.9583 390.521 25.5682C390.521 26.0682 390.377 26.5152 390.089 26.9091C389.805 27.303 389.408 27.6136 388.896 27.8409C388.385 28.0682 387.79 28.1818 387.112 28.1818C386.222 28.1818 385.485 27.9886 384.902 27.6023C384.319 27.2159 383.949 26.6515 383.794 25.9091L385.067 25.5909C385.188 26.0606 385.417 26.4129 385.754 26.6477C386.095 26.8826 386.54 27 387.089 27C387.714 27 388.211 26.8674 388.578 26.6023C388.949 26.3333 389.135 26.0114 389.135 25.6364C389.135 25.3333 389.029 25.0795 388.817 24.875C388.605 24.6667 388.279 24.5114 387.839 24.4091L386.385 24.0682C385.586 23.8788 384.999 23.5852 384.624 23.1875C384.252 22.786 384.067 22.2841 384.067 21.6818C384.067 21.1894 384.205 20.7538 384.482 20.375C384.762 19.9962 385.143 19.6989 385.624 19.483C386.108 19.267 386.658 19.1591 387.271 19.1591C388.135 19.1591 388.813 19.3485 389.305 19.7273C389.802 20.1061 390.154 20.6061 390.362 21.2273ZM400.835 19.2727V20.4091H396.312V19.2727H400.835ZM397.631 17.1818H398.972V25.5C398.972 25.8788 399.027 26.1629 399.136 26.3523C399.25 26.5379 399.394 26.6629 399.568 26.7273C399.746 26.7879 399.934 26.8182 400.131 26.8182C400.278 26.8182 400.4 26.8106 400.494 26.7955C400.589 26.7765 400.665 26.7614 400.722 26.75L400.994 27.9545C400.903 27.9886 400.777 28.0227 400.614 28.0568C400.451 28.0947 400.244 28.1136 399.994 28.1136C399.616 28.1136 399.244 28.0322 398.881 27.8693C398.521 27.7064 398.222 27.4583 397.983 27.125C397.748 26.7917 397.631 26.3712 397.631 25.8636V17.1818ZM404.381 22.75V28H403.04V16.3636H404.381V20.6364H404.494C404.699 20.1856 405.006 19.8277 405.415 19.5625C405.828 19.2936 406.377 19.1591 407.062 19.1591C407.657 19.1591 408.178 19.2784 408.625 19.517C409.072 19.7519 409.419 20.1136 409.665 20.6023C409.915 21.0871 410.04 21.7045 410.04 22.4545V28H408.699V22.5455C408.699 21.8523 408.519 21.3163 408.159 20.9375C407.803 20.5549 407.309 20.3636 406.676 20.3636C406.237 20.3636 405.843 20.4564 405.494 20.642C405.15 20.8277 404.877 21.0985 404.676 21.4545C404.479 21.8106 404.381 22.2424 404.381 22.75ZM415.061 28.2045C414.508 28.2045 414.006 28.1004 413.555 27.892C413.105 27.6799 412.747 27.375 412.482 26.9773C412.216 26.5758 412.084 26.0909 412.084 25.5227C412.084 25.0227 412.182 24.6174 412.379 24.3068C412.576 23.9924 412.839 23.7462 413.169 23.5682C413.499 23.3902 413.862 23.2576 414.26 23.1705C414.661 23.0795 415.065 23.0076 415.47 22.9545C416 22.8864 416.43 22.8352 416.76 22.8011C417.093 22.7633 417.336 22.7008 417.487 22.6136C417.643 22.5265 417.72 22.375 417.72 22.1591V22.1136C417.72 21.553 417.567 21.1174 417.26 20.8068C416.957 20.4962 416.497 20.3409 415.879 20.3409C415.239 20.3409 414.737 20.4811 414.374 20.7614C414.01 21.0417 413.754 21.3409 413.607 21.6591L412.334 21.2045C412.561 20.6742 412.864 20.2614 413.243 19.9659C413.625 19.6667 414.042 19.4583 414.493 19.3409C414.947 19.2197 415.394 19.1591 415.834 19.1591C416.114 19.1591 416.436 19.1932 416.8 19.2614C417.167 19.3258 417.521 19.4602 417.862 19.6648C418.207 19.8693 418.493 20.178 418.72 20.5909C418.947 21.0038 419.061 21.5568 419.061 22.25V28H417.72V26.8182H417.652C417.561 27.0076 417.41 27.2102 417.197 27.4261C416.985 27.642 416.703 27.8258 416.351 27.9773C415.999 28.1288 415.569 28.2045 415.061 28.2045ZM415.266 27C415.796 27 416.243 26.8958 416.607 26.6875C416.974 26.4792 417.25 26.2102 417.436 25.8807C417.625 25.5511 417.72 25.2045 417.72 24.8409V23.6136C417.663 23.6818 417.538 23.7443 417.345 23.8011C417.156 23.8542 416.936 23.9015 416.686 23.9432C416.44 23.9811 416.199 24.0152 415.964 24.0455C415.733 24.072 415.546 24.0947 415.402 24.1136C415.054 24.1591 414.728 24.233 414.425 24.3352C414.125 24.4337 413.883 24.5833 413.697 24.7841C413.516 24.9811 413.425 25.25 413.425 25.5909C413.425 26.0568 413.597 26.4091 413.942 26.6477C414.29 26.8826 414.732 27 415.266 27ZM425.304 19.2727V20.4091H420.781V19.2727H425.304ZM422.099 17.1818H423.44V25.5C423.44 25.8788 423.495 26.1629 423.605 26.3523C423.719 26.5379 423.863 26.6629 424.037 26.7273C424.215 26.7879 424.402 26.8182 424.599 26.8182C424.747 26.8182 424.868 26.8106 424.963 26.7955C425.058 26.7765 425.134 26.7614 425.19 26.75L425.463 27.9545C425.372 27.9886 425.245 28.0227 425.082 28.0568C424.92 28.0947 424.713 28.1136 424.463 28.1136C424.084 28.1136 423.713 28.0322 423.349 27.8693C422.99 27.7064 422.69 27.4583 422.452 27.125C422.217 26.7917 422.099 26.3712 422.099 25.8636V17.1818ZM433.162 22.75V28H431.821V19.2727H433.116V20.6364H433.23C433.435 20.1932 433.745 19.8371 434.162 19.5682C434.579 19.2955 435.116 19.1591 435.776 19.1591C436.366 19.1591 436.884 19.2803 437.327 19.5227C437.77 19.7614 438.115 20.125 438.361 20.6136C438.607 21.0985 438.73 21.7121 438.73 22.4545V28H437.389V22.5455C437.389 21.8598 437.211 21.3258 436.855 20.9432C436.499 20.5568 436.01 20.3636 435.389 20.3636C434.961 20.3636 434.579 20.4564 434.241 20.642C433.908 20.8277 433.645 21.0985 433.452 21.4545C433.259 21.8106 433.162 22.2424 433.162 22.75ZM444.839 28.1818C443.999 28.1818 443.273 27.9962 442.663 27.625C442.057 27.25 441.589 26.7273 441.26 26.0568C440.934 25.3826 440.771 24.5985 440.771 23.7045C440.771 22.8106 440.934 22.0227 441.26 21.3409C441.589 20.6553 442.048 20.1212 442.635 19.7386C443.226 19.3523 443.915 19.1591 444.703 19.1591C445.158 19.1591 445.607 19.2348 446.05 19.3864C446.493 19.5379 446.896 19.7841 447.26 20.125C447.624 20.4621 447.913 20.9091 448.129 21.4659C448.345 22.0227 448.453 22.7083 448.453 23.5227V24.0909H441.726V22.9318H447.089C447.089 22.4394 446.991 22 446.794 21.6136C446.601 21.2273 446.324 20.9223 445.964 20.6989C445.608 20.4754 445.188 20.3636 444.703 20.3636C444.169 20.3636 443.707 20.4962 443.317 20.7614C442.93 21.0227 442.633 21.3636 442.425 21.7841C442.216 22.2045 442.112 22.6553 442.112 23.1364V23.9091C442.112 24.5682 442.226 25.1269 442.453 25.5852C442.684 26.0398 443.004 26.3864 443.413 26.625C443.822 26.8598 444.298 26.9773 444.839 26.9773C445.192 26.9773 445.51 26.928 445.794 26.8295C446.082 26.7273 446.33 26.5758 446.538 26.375C446.747 26.1705 446.908 25.9167 447.021 25.6136L448.317 25.9773C448.18 26.4167 447.951 26.803 447.629 27.1364C447.307 27.4659 446.91 27.7235 446.436 27.9091C445.963 28.0909 445.43 28.1818 444.839 28.1818ZM454.152 28.1818C453.311 28.1818 452.586 27.9962 451.976 27.625C451.37 27.25 450.902 26.7273 450.572 26.0568C450.247 25.3826 450.084 24.5985 450.084 23.7045C450.084 22.8106 450.247 22.0227 450.572 21.3409C450.902 20.6553 451.36 20.1212 451.947 19.7386C452.538 19.3523 453.228 19.1591 454.016 19.1591C454.47 19.1591 454.919 19.2348 455.362 19.3864C455.805 19.5379 456.209 19.7841 456.572 20.125C456.936 20.4621 457.226 20.9091 457.442 21.4659C457.658 22.0227 457.766 22.7083 457.766 23.5227V24.0909H451.038V22.9318H456.402C456.402 22.4394 456.304 22 456.107 21.6136C455.913 21.2273 455.637 20.9223 455.277 20.6989C454.921 20.4754 454.5 20.3636 454.016 20.3636C453.482 20.3636 453.019 20.4962 452.629 20.7614C452.243 21.0227 451.946 21.3636 451.737 21.7841C451.529 22.2045 451.425 22.6553 451.425 23.1364V23.9091C451.425 24.5682 451.538 25.1269 451.766 25.5852C451.997 26.0398 452.317 26.3864 452.726 26.625C453.135 26.8598 453.61 26.9773 454.152 26.9773C454.504 26.9773 454.822 26.928 455.107 26.8295C455.394 26.7273 455.643 26.5758 455.851 26.375C456.059 26.1705 456.22 25.9167 456.334 25.6136L457.629 25.9773C457.493 26.4167 457.264 26.803 456.942 27.1364C456.62 27.4659 456.222 27.7235 455.749 27.9091C455.275 28.0909 454.743 28.1818 454.152 28.1818ZM463.101 28.1818C462.374 28.1818 461.732 27.9981 461.175 27.6307C460.618 27.2595 460.182 26.7367 459.868 26.0625C459.554 25.3845 459.396 24.5833 459.396 23.6591C459.396 22.7424 459.554 21.947 459.868 21.2727C460.182 20.5985 460.62 20.0777 461.18 19.7102C461.741 19.3428 462.389 19.1591 463.124 19.1591C463.692 19.1591 464.141 19.2538 464.47 19.4432C464.804 19.6288 465.057 19.8409 465.232 20.0795C465.41 20.3144 465.548 20.5076 465.646 20.6591H465.76V16.3636H467.101V28H465.805V26.6591H465.646C465.548 26.8182 465.408 27.0189 465.226 27.2614C465.044 27.5 464.785 27.714 464.447 27.9034C464.11 28.089 463.661 28.1818 463.101 28.1818ZM463.283 26.9773C463.821 26.9773 464.275 26.8371 464.646 26.5568C465.018 26.2727 465.3 25.8807 465.493 25.3807C465.686 24.8769 465.783 24.2955 465.783 23.6364C465.783 22.9848 465.688 22.4148 465.499 21.9261C465.309 21.4337 465.029 21.0511 464.658 20.7784C464.286 20.5019 463.828 20.3636 463.283 20.3636C462.714 20.3636 462.241 20.5095 461.862 20.8011C461.487 21.089 461.205 21.4811 461.016 21.9773C460.83 22.4697 460.737 23.0227 460.737 23.6364C460.737 24.2576 460.832 24.822 461.021 25.3295C461.214 25.8333 461.499 26.2348 461.874 26.5341C462.252 26.8295 462.722 26.9773 463.283 26.9773ZM477.788 28.1818C476.97 28.1818 476.266 27.9886 475.675 27.6023C475.084 27.2159 474.629 26.6837 474.311 26.0057C473.993 25.3277 473.834 24.553 473.834 23.6818C473.834 22.7955 473.997 22.0133 474.322 21.3352C474.652 20.6534 475.11 20.1212 475.697 19.7386C476.288 19.3523 476.978 19.1591 477.766 19.1591C478.379 19.1591 478.932 19.2727 479.425 19.5C479.917 19.7273 480.321 20.0455 480.635 20.4545C480.949 20.8636 481.144 21.3409 481.22 21.8864H479.879C479.777 21.4886 479.55 21.1364 479.197 20.8295C478.849 20.5189 478.379 20.3636 477.788 20.3636C477.266 20.3636 476.807 20.5 476.413 20.7727C476.023 21.0417 475.718 21.4223 475.499 21.9148C475.283 22.4034 475.175 22.9773 475.175 23.6364C475.175 24.3106 475.281 24.8977 475.493 25.3977C475.709 25.8977 476.012 26.286 476.402 26.5625C476.796 26.839 477.258 26.9773 477.788 26.9773C478.137 26.9773 478.453 26.9167 478.737 26.7955C479.021 26.6742 479.262 26.5 479.459 26.2727C479.656 26.0455 479.796 25.7727 479.879 25.4545H481.22C481.144 25.9697 480.957 26.4337 480.658 26.8466C480.362 27.2557 479.97 27.5814 479.482 27.8239C478.997 28.0625 478.432 28.1818 477.788 28.1818ZM484.521 16.3636V28H483.18V16.3636H484.521ZM489.545 28.2045C488.992 28.2045 488.491 28.1004 488.04 27.892C487.589 27.6799 487.231 27.375 486.966 26.9773C486.701 26.5758 486.568 26.0909 486.568 25.5227C486.568 25.0227 486.667 24.6174 486.864 24.3068C487.061 23.9924 487.324 23.7462 487.653 23.5682C487.983 23.3902 488.347 23.2576 488.744 23.1705C489.146 23.0795 489.549 23.0076 489.955 22.9545C490.485 22.8864 490.915 22.8352 491.244 22.8011C491.578 22.7633 491.82 22.7008 491.972 22.6136C492.127 22.5265 492.205 22.375 492.205 22.1591V22.1136C492.205 21.553 492.051 21.1174 491.744 20.8068C491.441 20.4962 490.981 20.3409 490.364 20.3409C489.723 20.3409 489.222 20.4811 488.858 20.7614C488.494 21.0417 488.239 21.3409 488.091 21.6591L486.818 21.2045C487.045 20.6742 487.348 20.2614 487.727 19.9659C488.11 19.6667 488.527 19.4583 488.977 19.3409C489.432 19.2197 489.879 19.1591 490.318 19.1591C490.598 19.1591 490.92 19.1932 491.284 19.2614C491.652 19.3258 492.006 19.4602 492.347 19.6648C492.691 19.8693 492.977 20.178 493.205 20.5909C493.432 21.0038 493.545 21.5568 493.545 22.25V28H492.205V26.8182H492.136C492.045 27.0076 491.894 27.2102 491.682 27.4261C491.47 27.642 491.188 27.8258 490.835 27.9773C490.483 28.1288 490.053 28.2045 489.545 28.2045ZM489.75 27C490.28 27 490.727 26.8958 491.091 26.6875C491.458 26.4792 491.735 26.2102 491.92 25.8807C492.11 25.5511 492.205 25.2045 492.205 24.8409V23.6136C492.148 23.6818 492.023 23.7443 491.83 23.8011C491.64 23.8542 491.42 23.9015 491.17 23.9432C490.924 23.9811 490.684 24.0152 490.449 24.0455C490.218 24.072 490.03 24.0947 489.886 24.1136C489.538 24.1591 489.212 24.233 488.909 24.3352C488.61 24.4337 488.367 24.5833 488.182 24.7841C488 24.9811 487.909 25.25 487.909 25.5909C487.909 26.0568 488.081 26.4091 488.426 26.6477C488.775 26.8826 489.216 27 489.75 27ZM495.993 28V19.2727H497.288V20.5909H497.379C497.538 20.1591 497.826 19.8087 498.243 19.5398C498.66 19.2708 499.129 19.1364 499.652 19.1364C499.75 19.1364 499.874 19.1383 500.021 19.142C500.169 19.1458 500.281 19.1515 500.357 19.1591V20.5227C500.311 20.5114 500.207 20.4943 500.044 20.4716C499.885 20.4451 499.716 20.4318 499.538 20.4318C499.114 20.4318 498.735 20.5208 498.402 20.6989C498.072 20.8731 497.811 21.1155 497.618 21.4261C497.429 21.733 497.334 22.0833 497.334 22.4773V28H495.993ZM501.946 28V19.2727H503.287V28H501.946ZM502.628 17.8182C502.366 17.8182 502.141 17.7292 501.952 17.5511C501.766 17.3731 501.673 17.1591 501.673 16.9091C501.673 16.6591 501.766 16.4451 501.952 16.267C502.141 16.089 502.366 16 502.628 16C502.889 16 503.113 16.089 503.298 16.267C503.488 16.4451 503.582 16.6591 503.582 16.9091C503.582 17.1591 503.488 17.3731 503.298 17.5511C503.113 17.7292 502.889 17.8182 502.628 17.8182ZM509.629 19.2727V20.4091H504.925V19.2727H509.629ZM506.334 28V18.0682C506.334 17.5682 506.451 17.1515 506.686 16.8182C506.921 16.4848 507.226 16.2348 507.601 16.0682C507.976 15.9015 508.372 15.8182 508.788 15.8182C509.118 15.8182 509.387 15.8447 509.595 15.8977C509.804 15.9508 509.959 16 510.061 16.0455L509.675 17.2045C509.607 17.1818 509.512 17.1534 509.391 17.1193C509.273 17.0852 509.118 17.0682 508.925 17.0682C508.482 17.0682 508.161 17.1799 507.964 17.4034C507.771 17.6269 507.675 17.9545 507.675 18.3864V28H506.334ZM511.509 28V19.2727H512.849V28H511.509ZM512.19 17.8182C511.929 17.8182 511.704 17.7292 511.514 17.5511C511.329 17.3731 511.236 17.1591 511.236 16.9091C511.236 16.6591 511.329 16.4451 511.514 16.267C511.704 16.089 511.929 16 512.19 16C512.452 16 512.675 16.089 512.861 16.267C513.05 16.4451 513.145 16.6591 513.145 16.9091C513.145 17.1591 513.05 17.3731 512.861 17.5511C512.675 17.7292 512.452 17.8182 512.19 17.8182ZM518.851 28.1818C518.033 28.1818 517.328 27.9886 516.737 27.6023C516.146 27.2159 515.692 26.6837 515.374 26.0057C515.055 25.3277 514.896 24.553 514.896 23.6818C514.896 22.7955 515.059 22.0133 515.385 21.3352C515.714 20.6534 516.173 20.1212 516.76 19.7386C517.351 19.3523 518.04 19.1591 518.828 19.1591C519.442 19.1591 519.995 19.2727 520.487 19.5C520.98 19.7273 521.383 20.0455 521.697 20.4545C522.012 20.8636 522.207 21.3409 522.283 21.8864H520.942C520.839 21.4886 520.612 21.1364 520.26 20.8295C519.911 20.5189 519.442 20.3636 518.851 20.3636C518.328 20.3636 517.87 20.5 517.476 20.7727C517.086 21.0417 516.781 21.4223 516.561 21.9148C516.345 22.4034 516.237 22.9773 516.237 23.6364C516.237 24.3106 516.343 24.8977 516.555 25.3977C516.771 25.8977 517.074 26.286 517.464 26.5625C517.858 26.839 518.321 26.9773 518.851 26.9773C519.199 26.9773 519.516 26.9167 519.8 26.7955C520.084 26.6742 520.324 26.5 520.521 26.2727C520.718 26.0455 520.858 25.7727 520.942 25.4545H522.283C522.207 25.9697 522.019 26.4337 521.72 26.8466C521.425 27.2557 521.033 27.5814 520.544 27.8239C520.059 28.0625 519.495 28.1818 518.851 28.1818ZM526.811 28.2045C526.258 28.2045 525.756 28.1004 525.305 27.892C524.855 27.6799 524.497 27.375 524.232 26.9773C523.966 26.5758 523.834 26.0909 523.834 25.5227C523.834 25.0227 523.932 24.6174 524.129 24.3068C524.326 23.9924 524.589 23.7462 524.919 23.5682C525.249 23.3902 525.612 23.2576 526.01 23.1705C526.411 23.0795 526.815 23.0076 527.22 22.9545C527.75 22.8864 528.18 22.8352 528.51 22.8011C528.843 22.7633 529.086 22.7008 529.237 22.6136C529.393 22.5265 529.47 22.375 529.47 22.1591V22.1136C529.47 21.553 529.317 21.1174 529.01 20.8068C528.707 20.4962 528.247 20.3409 527.629 20.3409C526.989 20.3409 526.487 20.4811 526.124 20.7614C525.76 21.0417 525.504 21.3409 525.357 21.6591L524.084 21.2045C524.311 20.6742 524.614 20.2614 524.993 19.9659C525.375 19.6667 525.792 19.4583 526.243 19.3409C526.697 19.2197 527.144 19.1591 527.584 19.1591C527.864 19.1591 528.186 19.1932 528.55 19.2614C528.917 19.3258 529.271 19.4602 529.612 19.6648C529.957 19.8693 530.243 20.178 530.47 20.5909C530.697 21.0038 530.811 21.5568 530.811 22.25V28H529.47V26.8182H529.402C529.311 27.0076 529.16 27.2102 528.947 27.4261C528.735 27.642 528.453 27.8258 528.101 27.9773C527.749 28.1288 527.319 28.2045 526.811 28.2045ZM527.016 27C527.546 27 527.993 26.8958 528.357 26.6875C528.724 26.4792 529 26.2102 529.186 25.8807C529.375 25.5511 529.47 25.2045 529.47 24.8409V23.6136C529.413 23.6818 529.288 23.7443 529.095 23.8011C528.906 23.8542 528.686 23.9015 528.436 23.9432C528.19 23.9811 527.949 24.0152 527.714 24.0455C527.483 24.072 527.296 24.0947 527.152 24.1136C526.804 24.1591 526.478 24.233 526.175 24.3352C525.875 24.4337 525.633 24.5833 525.447 24.7841C525.266 24.9811 525.175 25.25 525.175 25.5909C525.175 26.0568 525.347 26.4091 525.692 26.6477C526.04 26.8826 526.482 27 527.016 27ZM537.054 19.2727V20.4091H532.531V19.2727H537.054ZM533.849 17.1818H535.19V25.5C535.19 25.8788 535.245 26.1629 535.355 26.3523C535.469 26.5379 535.613 26.6629 535.787 26.7273C535.965 26.7879 536.152 26.8182 536.349 26.8182C536.497 26.8182 536.618 26.8106 536.713 26.7955C536.808 26.7765 536.884 26.7614 536.94 26.75L537.213 27.9545C537.122 27.9886 536.995 28.0227 536.832 28.0568C536.67 28.0947 536.463 28.1136 536.213 28.1136C535.834 28.1136 535.463 28.0322 535.099 27.8693C534.74 27.7064 534.44 27.4583 534.202 27.125C533.967 26.7917 533.849 26.3712 533.849 25.8636V17.1818ZM539.071 28V19.2727H540.412V28H539.071ZM539.753 17.8182C539.491 17.8182 539.266 17.7292 539.077 17.5511C538.891 17.3731 538.798 17.1591 538.798 16.9091C538.798 16.6591 538.891 16.4451 539.077 16.267C539.266 16.089 539.491 16 539.753 16C540.014 16 540.238 16.089 540.423 16.267C540.613 16.4451 540.707 16.6591 540.707 16.9091C540.707 17.1591 540.613 17.3731 540.423 17.5511C540.238 17.7292 540.014 17.8182 539.753 17.8182ZM546.413 28.1818C545.625 28.1818 544.934 27.9943 544.339 27.6193C543.749 27.2443 543.286 26.7197 542.953 26.0455C542.624 25.3712 542.459 24.5833 542.459 23.6818C542.459 22.7727 542.624 21.9792 542.953 21.3011C543.286 20.6231 543.749 20.0966 544.339 19.7216C544.934 19.3466 545.625 19.1591 546.413 19.1591C547.201 19.1591 547.891 19.3466 548.482 19.7216C549.076 20.0966 549.538 20.6231 549.868 21.3011C550.201 21.9792 550.368 22.7727 550.368 23.6818C550.368 24.5833 550.201 25.3712 549.868 26.0455C549.538 26.7197 549.076 27.2443 548.482 27.6193C547.891 27.9943 547.201 28.1818 546.413 28.1818ZM546.413 26.9773C547.012 26.9773 547.504 26.8239 547.891 26.517C548.277 26.2102 548.563 25.8068 548.749 25.3068C548.934 24.8068 549.027 24.2652 549.027 23.6818C549.027 23.0985 548.934 22.5549 548.749 22.0511C548.563 21.5473 548.277 21.1402 547.891 20.8295C547.504 20.5189 547.012 20.3636 546.413 20.3636C545.815 20.3636 545.322 20.5189 544.936 20.8295C544.55 21.1402 544.264 21.5473 544.078 22.0511C543.893 22.5549 543.8 23.0985 543.8 23.6818C543.8 24.2652 543.893 24.8068 544.078 25.3068C544.264 25.8068 544.55 26.2102 544.936 26.517C545.322 26.8239 545.815 26.9773 546.413 26.9773ZM553.756 22.75V28H552.415V19.2727H553.71V20.6364H553.824C554.028 20.1932 554.339 19.8371 554.756 19.5682C555.172 19.2955 555.71 19.1591 556.369 19.1591C556.96 19.1591 557.477 19.2803 557.92 19.5227C558.364 19.7614 558.708 20.125 558.955 20.6136C559.201 21.0985 559.324 21.7121 559.324 22.4545V28H557.983V22.5455C557.983 21.8598 557.805 21.3258 557.449 20.9432C557.093 20.5568 556.604 20.3636 555.983 20.3636C555.555 20.3636 555.172 20.4564 554.835 20.642C554.502 20.8277 554.239 21.0985 554.045 21.4545C553.852 21.8106 553.756 22.2424 553.756 22.75Z" fill="#C0C0C3"/>
<rect x="585" y="8" width="28" height="28" rx="6" fill="#1D1D1D"/>
<path fill-rule="evenodd" clip-rule="evenodd" d="M592.703 15.5431C592.505 15.455 592.272 15.5048 592.128 15.6664C591.983 15.828 591.959 16.0645 592.068 16.252L595.421 22L592.068 27.7481C591.959 27.9355 591.983 28.172 592.128 28.3336C592.272 28.4952 592.505 28.545 592.703 28.4569L606.203 22.4569C606.384 22.3767 606.5 22.1976 606.5 22C606.5 21.8024 606.384 21.6234 606.203 21.5431L592.703 15.5431ZM596.346 21.6L593.712 17.086L604.769 22L593.712 26.914L596.346 22.4H600.5C600.721 22.4 600.9 22.2209 600.9 22C600.9 21.7791 600.721 21.6 600.5 21.6H596.346Z" fill="#C0C0C3"/>
<rect x="0.5" y="0.5" width="620" height="43" rx="7.5" stroke="#2D2D30"/>
</svg>
