<svg width="587" height="44" viewBox="0 0 587 44" fill="none" xmlns="http://www.w3.org/2000/svg">
<rect x="0.5" y="0.5" width="586" height="43" rx="7.5" fill="#222222"/>
<path d="M13.4091 28V16.3636H17.3409C18.25 16.3636 18.9962 16.5189 19.5795 16.8295C20.1629 17.1364 20.5947 17.5587 20.875 18.0966C21.1553 18.6345 21.2955 19.2462 21.2955 19.9318C21.2955 20.6174 21.1553 21.2254 20.875 21.7557C20.5947 22.286 20.1648 22.7027 19.5852 23.0057C19.0057 23.3049 18.2652 23.4545 17.3636 23.4545H14.1818V22.1818H17.3182C17.9394 22.1818 18.4394 22.0909 18.8182 21.9091C19.2008 21.7273 19.4773 21.4697 19.6477 21.1364C19.822 20.7992 19.9091 20.3977 19.9091 19.9318C19.9091 19.4659 19.822 19.0587 19.6477 18.7102C19.4735 18.3617 19.1951 18.0928 18.8125 17.9034C18.4299 17.7102 17.9242 17.6136 17.2955 17.6136H14.8182V28H13.4091ZM18.8864 22.7727L21.75 28H20.1136L17.2955 22.7727H18.8864ZM27.027 28.1818C26.1861 28.1818 25.4607 27.9962 24.8509 27.625C24.2448 27.25 23.777 26.7273 23.4474 26.0568C23.1217 25.3826 22.9588 24.5985 22.9588 23.7045C22.9588 22.8106 23.1217 22.0227 23.4474 21.3409C23.777 20.6553 24.2353 20.1212 24.8224 19.7386C25.4134 19.3523 26.1027 19.1591 26.8906 19.1591C27.3452 19.1591 27.794 19.2348 28.2372 19.3864C28.6804 19.5379 29.0838 19.7841 29.4474 20.125C29.8111 20.4621 30.1009 20.9091 30.3168 21.4659C30.5327 22.0227 30.6406 22.7083 30.6406 23.5227V24.0909H23.9134V22.9318H29.277C29.277 22.4394 29.1785 22 28.9815 21.6136C28.7884 21.2273 28.5118 20.9223 28.152 20.6989C27.7959 20.4754 27.3755 20.3636 26.8906 20.3636C26.3565 20.3636 25.8944 20.4962 25.5043 20.7614C25.1179 21.0227 24.8205 21.3636 24.6122 21.7841C24.4039 22.2045 24.2997 22.6553 24.2997 23.1364V23.9091C24.2997 24.5682 24.4134 25.1269 24.6406 25.5852C24.8717 26.0398 25.1918 26.3864 25.6009 26.625C26.0099 26.8598 26.4853 26.9773 27.027 26.9773C27.3793 26.9773 27.6974 26.928 27.9815 26.8295C28.2694 26.7273 28.5175 26.5758 28.7259 26.375C28.9342 26.1705 29.0952 25.9167 29.2088 25.6136L30.5043 25.9773C30.3679 26.4167 30.1387 26.803 29.8168 27.1364C29.4948 27.4659 29.0971 27.7235 28.6236 27.9091C28.1501 28.0909 27.6179 28.1818 27.027 28.1818ZM38.8622 21.2273L37.6577 21.5682C37.5819 21.3674 37.4702 21.1723 37.3224 20.983C37.1785 20.7898 36.9815 20.6307 36.7315 20.5057C36.4815 20.3807 36.1615 20.3182 35.7713 20.3182C35.2372 20.3182 34.7921 20.4413 34.4361 20.6875C34.0838 20.9299 33.9077 21.2386 33.9077 21.6136C33.9077 21.947 34.0289 22.2102 34.2713 22.4034C34.5137 22.5966 34.8925 22.7576 35.4077 22.8864L36.7031 23.2045C37.4834 23.3939 38.0649 23.6837 38.4474 24.0739C38.83 24.4602 39.0213 24.9583 39.0213 25.5682C39.0213 26.0682 38.8774 26.5152 38.5895 26.9091C38.3054 27.303 37.9077 27.6136 37.3963 27.8409C36.8849 28.0682 36.2902 28.1818 35.6122 28.1818C34.7221 28.1818 33.9853 27.9886 33.402 27.6023C32.8187 27.2159 32.4493 26.6515 32.294 25.9091L33.5668 25.5909C33.688 26.0606 33.9171 26.4129 34.2543 26.6477C34.5952 26.8826 35.0402 27 35.5895 27C36.2145 27 36.7107 26.8674 37.0781 26.6023C37.4493 26.3333 37.6349 26.0114 37.6349 25.6364C37.6349 25.3333 37.5289 25.0795 37.3168 24.875C37.1046 24.6667 36.7789 24.5114 36.3395 24.4091L34.8849 24.0682C34.0857 23.8788 33.4986 23.5852 33.1236 23.1875C32.7524 22.786 32.5668 22.2841 32.5668 21.6818C32.5668 21.1894 32.705 20.7538 32.9815 20.375C33.2618 19.9962 33.6425 19.6989 34.1236 19.483C34.6084 19.267 35.1577 19.1591 35.7713 19.1591C36.6349 19.1591 37.313 19.3485 37.8054 19.7273C38.3016 20.1061 38.6539 20.6061 38.8622 21.2273ZM44.6989 28.1818C43.858 28.1818 43.1326 27.9962 42.5227 27.625C41.9167 27.25 41.4489 26.7273 41.1193 26.0568C40.7936 25.3826 40.6307 24.5985 40.6307 23.7045C40.6307 22.8106 40.7936 22.0227 41.1193 21.3409C41.4489 20.6553 41.9072 20.1212 42.4943 19.7386C43.0852 19.3523 43.7746 19.1591 44.5625 19.1591C45.017 19.1591 45.4659 19.2348 45.9091 19.3864C46.3523 19.5379 46.7557 19.7841 47.1193 20.125C47.483 20.4621 47.7727 20.9091 47.9886 21.4659C48.2045 22.0227 48.3125 22.7083 48.3125 23.5227V24.0909H41.5852V22.9318H46.9489C46.9489 22.4394 46.8504 22 46.6534 21.6136C46.4602 21.2273 46.1837 20.9223 45.8239 20.6989C45.4678 20.4754 45.0473 20.3636 44.5625 20.3636C44.0284 20.3636 43.5663 20.4962 43.1761 20.7614C42.7898 21.0227 42.4924 21.3636 42.2841 21.7841C42.0758 22.2045 41.9716 22.6553 41.9716 23.1364V23.9091C41.9716 24.5682 42.0852 25.1269 42.3125 25.5852C42.5436 26.0398 42.8636 26.3864 43.2727 26.625C43.6818 26.8598 44.1572 26.9773 44.6989 26.9773C45.0511 26.9773 45.3693 26.928 45.6534 26.8295C45.9413 26.7273 46.1894 26.5758 46.3977 26.375C46.6061 26.1705 46.767 25.9167 46.8807 25.6136L48.1761 25.9773C48.0398 26.4167 47.8106 26.803 47.4886 27.1364C47.1667 27.4659 46.7689 27.7235 46.2955 27.9091C45.822 28.0909 45.2898 28.1818 44.6989 28.1818ZM52.9205 28.2045C52.3674 28.2045 51.8655 28.1004 51.4148 27.892C50.964 27.6799 50.6061 27.375 50.3409 26.9773C50.0758 26.5758 49.9432 26.0909 49.9432 25.5227C49.9432 25.0227 50.0417 24.6174 50.2386 24.3068C50.4356 23.9924 50.6989 23.7462 51.0284 23.5682C51.358 23.3902 51.7216 23.2576 52.1193 23.1705C52.5208 23.0795 52.9242 23.0076 53.3295 22.9545C53.8598 22.8864 54.2898 22.8352 54.6193 22.8011C54.9527 22.7633 55.1951 22.7008 55.3466 22.6136C55.5019 22.5265 55.5795 22.375 55.5795 22.1591V22.1136C55.5795 21.553 55.4261 21.1174 55.1193 20.8068C54.8163 20.4962 54.3561 20.3409 53.7386 20.3409C53.0985 20.3409 52.5966 20.4811 52.233 20.7614C51.8693 21.0417 51.6136 21.3409 51.4659 21.6591L50.1932 21.2045C50.4205 20.6742 50.7235 20.2614 51.1023 19.9659C51.4848 19.6667 51.9015 19.4583 52.3523 19.3409C52.8068 19.2197 53.2538 19.1591 53.6932 19.1591C53.9735 19.1591 54.2955 19.1932 54.6591 19.2614C55.0265 19.3258 55.3807 19.4602 55.7216 19.6648C56.0663 19.8693 56.3523 20.178 56.5795 20.5909C56.8068 21.0038 56.9205 21.5568 56.9205 22.25V28H55.5795V26.8182H55.5114C55.4205 27.0076 55.2689 27.2102 55.0568 27.4261C54.8447 27.642 54.5625 27.8258 54.2102 27.9773C53.858 28.1288 53.428 28.2045 52.9205 28.2045ZM53.125 27C53.6553 27 54.1023 26.8958 54.4659 26.6875C54.8333 26.4792 55.1098 26.2102 55.2955 25.8807C55.4848 25.5511 55.5795 25.2045 55.5795 24.8409V23.6136C55.5227 23.6818 55.3977 23.7443 55.2045 23.8011C55.0152 23.8542 54.7955 23.9015 54.5455 23.9432C54.2992 23.9811 54.0587 24.0152 53.8239 24.0455C53.5928 24.072 53.4053 24.0947 53.2614 24.1136C52.9129 24.1591 52.5871 24.233 52.2841 24.3352C51.9848 24.4337 51.7424 24.5833 51.5568 24.7841C51.375 24.9811 51.2841 25.25 51.2841 25.5909C51.2841 26.0568 51.4564 26.4091 51.8011 26.6477C52.1496 26.8826 52.5909 27 53.125 27ZM59.3679 28V19.2727H60.6634V20.5909H60.7543C60.9134 20.1591 61.2012 19.8087 61.6179 19.5398C62.0346 19.2708 62.5043 19.1364 63.027 19.1364C63.1255 19.1364 63.2486 19.1383 63.3963 19.142C63.544 19.1458 63.6558 19.1515 63.7315 19.1591V20.5227C63.6861 20.5114 63.5819 20.4943 63.419 20.4716C63.2599 20.4451 63.0914 20.4318 62.9134 20.4318C62.4891 20.4318 62.1103 20.5208 61.777 20.6989C61.4474 20.8731 61.1861 21.1155 60.9929 21.4261C60.8035 21.733 60.7088 22.0833 60.7088 22.4773V28H59.3679ZM68.6009 28.1818C67.7827 28.1818 67.0781 27.9886 66.4872 27.6023C65.8963 27.2159 65.4418 26.6837 65.1236 26.0057C64.8054 25.3277 64.6463 24.553 64.6463 23.6818C64.6463 22.7955 64.8092 22.0133 65.1349 21.3352C65.4645 20.6534 65.9228 20.1212 66.5099 19.7386C67.1009 19.3523 67.7902 19.1591 68.5781 19.1591C69.1918 19.1591 69.7448 19.2727 70.2372 19.5C70.7296 19.7273 71.133 20.0455 71.4474 20.4545C71.7618 20.8636 71.9569 21.3409 72.0327 21.8864H70.6918C70.5895 21.4886 70.3622 21.1364 70.0099 20.8295C69.6615 20.5189 69.1918 20.3636 68.6009 20.3636C68.0781 20.3636 67.6198 20.5 67.2259 20.7727C66.8357 21.0417 66.5308 21.4223 66.3111 21.9148C66.0952 22.4034 65.9872 22.9773 65.9872 23.6364C65.9872 24.3106 66.0933 24.8977 66.3054 25.3977C66.5213 25.8977 66.8243 26.286 67.2145 26.5625C67.6084 26.839 68.0705 26.9773 68.6009 26.9773C68.9493 26.9773 69.2656 26.9167 69.5497 26.7955C69.8338 26.6742 70.0743 26.5 70.2713 26.2727C70.4683 26.0455 70.6084 25.7727 70.6918 25.4545H72.0327C71.9569 25.9697 71.7694 26.4337 71.4702 26.8466C71.1747 27.2557 70.7827 27.5814 70.294 27.8239C69.8092 28.0625 69.2448 28.1818 68.6009 28.1818ZM75.3338 22.75V28H73.9929V16.3636H75.3338V20.6364H75.4474C75.652 20.1856 75.9588 19.8277 76.3679 19.5625C76.7808 19.2936 77.33 19.1591 78.0156 19.1591C78.6103 19.1591 79.1312 19.2784 79.5781 19.517C80.0251 19.7519 80.3717 20.1136 80.6179 20.6023C80.8679 21.0871 80.9929 21.7045 80.9929 22.4545V28H79.652V22.5455C79.652 21.8523 79.4721 21.3163 79.1122 20.9375C78.7562 20.5549 78.2618 20.3636 77.6293 20.3636C77.1899 20.3636 76.7959 20.4564 76.4474 20.642C76.1027 20.8277 75.83 21.0985 75.6293 21.4545C75.4323 21.8106 75.3338 22.2424 75.3338 22.75ZM90.5142 28.2045C89.9612 28.2045 89.4593 28.1004 89.0085 27.892C88.5578 27.6799 88.1998 27.375 87.9347 26.9773C87.6695 26.5758 87.5369 26.0909 87.5369 25.5227C87.5369 25.0227 87.6354 24.6174 87.8324 24.3068C88.0294 23.9924 88.2926 23.7462 88.6222 23.5682C88.9517 23.3902 89.3153 23.2576 89.7131 23.1705C90.1146 23.0795 90.518 23.0076 90.9233 22.9545C91.4536 22.8864 91.8835 22.8352 92.2131 22.8011C92.5464 22.7633 92.7888 22.7008 92.9403 22.6136C93.0956 22.5265 93.1733 22.375 93.1733 22.1591V22.1136C93.1733 21.553 93.0199 21.1174 92.7131 20.8068C92.41 20.4962 91.9498 20.3409 91.3324 20.3409C90.6922 20.3409 90.1903 20.4811 89.8267 20.7614C89.4631 21.0417 89.2074 21.3409 89.0597 21.6591L87.7869 21.2045C88.0142 20.6742 88.3172 20.2614 88.696 19.9659C89.0786 19.6667 89.4953 19.4583 89.946 19.3409C90.4006 19.2197 90.8475 19.1591 91.2869 19.1591C91.5672 19.1591 91.8892 19.1932 92.2528 19.2614C92.6203 19.3258 92.9744 19.4602 93.3153 19.6648C93.66 19.8693 93.946 20.178 94.1733 20.5909C94.4006 21.0038 94.5142 21.5568 94.5142 22.25V28H93.1733V26.8182H93.1051C93.0142 27.0076 92.8627 27.2102 92.6506 27.4261C92.4384 27.642 92.1563 27.8258 91.804 27.9773C91.4517 28.1288 91.0218 28.2045 90.5142 28.2045ZM90.7188 27C91.2491 27 91.696 26.8958 92.0597 26.6875C92.4271 26.4792 92.7036 26.2102 92.8892 25.8807C93.0786 25.5511 93.1733 25.2045 93.1733 24.8409V23.6136C93.1165 23.6818 92.9915 23.7443 92.7983 23.8011C92.6089 23.8542 92.3892 23.9015 92.1392 23.9432C91.893 23.9811 91.6525 24.0152 91.4176 24.0455C91.1866 24.072 90.9991 24.0947 90.8551 24.1136C90.5066 24.1591 90.1809 24.233 89.8778 24.3352C89.5786 24.4337 89.3362 24.5833 89.1506 24.7841C88.9688 24.9811 88.8778 25.25 88.8778 25.5909C88.8778 26.0568 89.0502 26.4091 89.3949 26.6477C89.7434 26.8826 90.1847 27 90.7188 27ZM98.3026 22.75V28H96.9616V19.2727H98.2571V20.6364H98.3707C98.5753 20.1932 98.8859 19.8371 99.3026 19.5682C99.7192 19.2955 100.257 19.1591 100.916 19.1591C101.507 19.1591 102.024 19.2803 102.467 19.5227C102.911 19.7614 103.255 20.125 103.501 20.6136C103.748 21.0985 103.871 21.7121 103.871 22.4545V28H102.53V22.5455C102.53 21.8598 102.352 21.3258 101.996 20.9432C101.64 20.5568 101.151 20.3636 100.53 20.3636C100.102 20.3636 99.7192 20.4564 99.3821 20.642C99.0488 20.8277 98.7855 21.0985 98.5923 21.4545C98.3991 21.8106 98.3026 22.2424 98.3026 22.75ZM109.616 28.1818C108.889 28.1818 108.247 27.9981 107.69 27.6307C107.134 27.2595 106.698 26.7367 106.384 26.0625C106.069 25.3845 105.912 24.5833 105.912 23.6591C105.912 22.7424 106.069 21.947 106.384 21.2727C106.698 20.5985 107.135 20.0777 107.696 19.7102C108.257 19.3428 108.904 19.1591 109.639 19.1591C110.207 19.1591 110.656 19.2538 110.986 19.4432C111.319 19.6288 111.573 19.8409 111.747 20.0795C111.925 20.3144 112.063 20.5076 112.162 20.6591H112.276V16.3636H113.616V28H112.321V26.6591H112.162C112.063 26.8182 111.923 27.0189 111.741 27.2614C111.56 27.5 111.3 27.714 110.963 27.9034C110.626 28.089 110.177 28.1818 109.616 28.1818ZM109.798 26.9773C110.336 26.9773 110.791 26.8371 111.162 26.5568C111.533 26.2727 111.815 25.8807 112.009 25.3807C112.202 24.8769 112.298 24.2955 112.298 23.6364C112.298 22.9848 112.204 22.4148 112.014 21.9261C111.825 21.4337 111.545 21.0511 111.173 20.7784C110.802 20.5019 110.344 20.3636 109.798 20.3636C109.23 20.3636 108.757 20.5095 108.378 20.8011C108.003 21.089 107.721 21.4811 107.531 21.9773C107.346 22.4697 107.253 23.0227 107.253 23.6364C107.253 24.2576 107.348 24.822 107.537 25.3295C107.73 25.8333 108.014 26.2348 108.389 26.5341C108.768 26.8295 109.238 26.9773 109.798 26.9773ZM124.304 28.1818C123.516 28.1818 122.825 27.9943 122.23 27.6193C121.639 27.2443 121.177 26.7197 120.844 26.0455C120.514 25.3712 120.349 24.5833 120.349 23.6818C120.349 22.7727 120.514 21.9792 120.844 21.3011C121.177 20.6231 121.639 20.0966 122.23 19.7216C122.825 19.3466 123.516 19.1591 124.304 19.1591C125.092 19.1591 125.781 19.3466 126.372 19.7216C126.967 20.0966 127.429 20.6231 127.759 21.3011C128.092 21.9792 128.259 22.7727 128.259 23.6818C128.259 24.5833 128.092 25.3712 127.759 26.0455C127.429 26.7197 126.967 27.2443 126.372 27.6193C125.781 27.9943 125.092 28.1818 124.304 28.1818ZM124.304 26.9773C124.902 26.9773 125.395 26.8239 125.781 26.517C126.168 26.2102 126.454 25.8068 126.639 25.3068C126.825 24.8068 126.918 24.2652 126.918 23.6818C126.918 23.0985 126.825 22.5549 126.639 22.0511C126.454 21.5473 126.168 21.1402 125.781 20.8295C125.395 20.5189 124.902 20.3636 124.304 20.3636C123.705 20.3636 123.213 20.5189 122.827 20.8295C122.44 21.1402 122.154 21.5473 121.969 22.0511C121.783 22.5549 121.69 23.0985 121.69 23.6818C121.69 24.2652 121.783 24.8068 121.969 25.3068C122.154 25.8068 122.44 26.2102 122.827 26.517C123.213 26.8239 123.705 26.9773 124.304 26.9773ZM135.805 24.4318V19.2727H137.146V28H135.805V26.5227H135.714C135.51 26.9659 135.192 27.3428 134.76 27.6534C134.328 27.9602 133.783 28.1136 133.124 28.1136C132.578 28.1136 132.093 27.9943 131.669 27.7557C131.245 27.5133 130.911 27.1496 130.669 26.6648C130.427 26.1761 130.305 25.5606 130.305 24.8182V19.2727H131.646V24.7273C131.646 25.3636 131.824 25.8712 132.18 26.25C132.54 26.6288 132.999 26.8182 133.555 26.8182C133.889 26.8182 134.228 26.733 134.572 26.5625C134.921 26.392 135.213 26.1307 135.447 25.7784C135.686 25.4261 135.805 24.9773 135.805 24.4318ZM143.398 19.2727V20.4091H138.875V19.2727H143.398ZM140.193 17.1818H141.534V25.5C141.534 25.8788 141.589 26.1629 141.699 26.3523C141.813 26.5379 141.956 26.6629 142.131 26.7273C142.309 26.7879 142.496 26.8182 142.693 26.8182C142.841 26.8182 142.962 26.8106 143.057 26.7955C143.152 26.7765 143.227 26.7614 143.284 26.75L143.557 27.9545C143.466 27.9886 143.339 28.0227 143.176 28.0568C143.013 28.0947 142.807 28.1136 142.557 28.1136C142.178 28.1136 141.807 28.0322 141.443 27.8693C141.083 27.7064 140.784 27.4583 140.545 27.125C140.311 26.7917 140.193 26.3712 140.193 25.8636V17.1818ZM146.943 16.3636V28H145.602V16.3636H146.943ZM149.399 28V19.2727H150.74V28H149.399ZM150.081 17.8182C149.82 17.8182 149.594 17.7292 149.405 17.5511C149.219 17.3731 149.126 17.1591 149.126 16.9091C149.126 16.6591 149.219 16.4451 149.405 16.267C149.594 16.089 149.82 16 150.081 16C150.342 16 150.566 16.089 150.751 16.267C150.941 16.4451 151.036 16.6591 151.036 16.9091C151.036 17.1591 150.941 17.3731 150.751 17.5511C150.566 17.7292 150.342 17.8182 150.081 17.8182ZM154.537 22.75V28H153.196V19.2727H154.491V20.6364H154.605C154.81 20.1932 155.12 19.8371 155.537 19.5682C155.954 19.2955 156.491 19.1591 157.151 19.1591C157.741 19.1591 158.259 19.2803 158.702 19.5227C159.145 19.7614 159.49 20.125 159.736 20.6136C159.982 21.0985 160.105 21.7121 160.105 22.4545V28H158.764V22.5455C158.764 21.8598 158.586 21.3258 158.23 20.9432C157.874 20.5568 157.385 20.3636 156.764 20.3636C156.336 20.3636 155.954 20.4564 155.616 20.642C155.283 20.8277 155.02 21.0985 154.827 21.4545C154.634 21.8106 154.537 22.2424 154.537 22.75ZM166.214 28.1818C165.374 28.1818 164.648 27.9962 164.038 27.625C163.432 27.25 162.964 26.7273 162.635 26.0568C162.309 25.3826 162.146 24.5985 162.146 23.7045C162.146 22.8106 162.309 22.0227 162.635 21.3409C162.964 20.6553 163.423 20.1212 164.01 19.7386C164.601 19.3523 165.29 19.1591 166.078 19.1591C166.533 19.1591 166.982 19.2348 167.425 19.3864C167.868 19.5379 168.271 19.7841 168.635 20.125C168.999 20.4621 169.288 20.9091 169.504 21.4659C169.72 22.0227 169.828 22.7083 169.828 23.5227V24.0909H163.101V22.9318H168.464C168.464 22.4394 168.366 22 168.169 21.6136C167.976 21.2273 167.699 20.9223 167.339 20.6989C166.983 20.4754 166.563 20.3636 166.078 20.3636C165.544 20.3636 165.082 20.4962 164.692 20.7614C164.305 21.0227 164.008 21.3636 163.8 21.7841C163.591 22.2045 163.487 22.6553 163.487 23.1364V23.9091C163.487 24.5682 163.601 25.1269 163.828 25.5852C164.059 26.0398 164.379 26.3864 164.788 26.625C165.197 26.8598 165.673 26.9773 166.214 26.9773C166.567 26.9773 166.885 26.928 167.169 26.8295C167.457 26.7273 167.705 26.5758 167.913 26.375C168.122 26.1705 168.283 25.9167 168.396 25.6136L169.692 25.9773C169.555 26.4167 169.326 26.803 169.004 27.1364C168.682 27.4659 168.285 27.7235 167.811 27.9091C167.338 28.0909 166.805 28.1818 166.214 28.1818ZM180.163 19.2727V20.4091H175.641V19.2727H180.163ZM176.959 17.1818H178.3V25.5C178.3 25.8788 178.355 26.1629 178.464 26.3523C178.578 26.5379 178.722 26.6629 178.896 26.7273C179.074 26.7879 179.262 26.8182 179.459 26.8182C179.607 26.8182 179.728 26.8106 179.822 26.7955C179.917 26.7765 179.993 26.7614 180.05 26.75L180.322 27.9545C180.232 27.9886 180.105 28.0227 179.942 28.0568C179.779 28.0947 179.572 28.1136 179.322 28.1136C178.944 28.1136 178.572 28.0322 178.209 27.8693C177.849 27.7064 177.55 27.4583 177.311 27.125C177.076 26.7917 176.959 26.3712 176.959 25.8636V17.1818ZM183.709 22.75V28H182.368V16.3636H183.709V20.6364H183.822C184.027 20.1856 184.334 19.8277 184.743 19.5625C185.156 19.2936 185.705 19.1591 186.391 19.1591C186.985 19.1591 187.506 19.2784 187.953 19.517C188.4 19.7519 188.747 20.1136 188.993 20.6023C189.243 21.0871 189.368 21.7045 189.368 22.4545V28H188.027V22.5455C188.027 21.8523 187.847 21.3163 187.487 20.9375C187.131 20.5549 186.637 20.3636 186.004 20.3636C185.565 20.3636 185.171 20.4564 184.822 20.642C184.478 20.8277 184.205 21.0985 184.004 21.4545C183.807 21.8106 183.709 22.2424 183.709 22.75ZM195.48 28.1818C194.639 28.1818 193.914 27.9962 193.304 27.625C192.698 27.25 192.23 26.7273 191.901 26.0568C191.575 25.3826 191.412 24.5985 191.412 23.7045C191.412 22.8106 191.575 22.0227 191.901 21.3409C192.23 20.6553 192.688 20.1212 193.276 19.7386C193.866 19.3523 194.556 19.1591 195.344 19.1591C195.798 19.1591 196.247 19.2348 196.69 19.3864C197.134 19.5379 197.537 19.7841 197.901 20.125C198.264 20.4621 198.554 20.9091 198.77 21.4659C198.986 22.0227 199.094 22.7083 199.094 23.5227V24.0909H192.366V22.9318H197.73C197.73 22.4394 197.632 22 197.435 21.6136C197.241 21.2273 196.965 20.9223 196.605 20.6989C196.249 20.4754 195.829 20.3636 195.344 20.3636C194.81 20.3636 194.348 20.4962 193.957 20.7614C193.571 21.0227 193.274 21.3636 193.065 21.7841C192.857 22.2045 192.753 22.6553 192.753 23.1364V23.9091C192.753 24.5682 192.866 25.1269 193.094 25.5852C193.325 26.0398 193.645 26.3864 194.054 26.625C194.463 26.8598 194.938 26.9773 195.48 26.9773C195.832 26.9773 196.151 26.928 196.435 26.8295C196.723 26.7273 196.971 26.5758 197.179 26.375C197.387 26.1705 197.548 25.9167 197.662 25.6136L198.957 25.9773C198.821 26.4167 198.592 26.803 198.27 27.1364C197.948 27.4659 197.55 27.7235 197.077 27.9091C196.603 28.0909 196.071 28.1818 195.48 28.1818ZM209.293 28.1818C208.452 28.1818 207.726 27.9962 207.116 27.625C206.51 27.25 206.043 26.7273 205.713 26.0568C205.387 25.3826 205.224 24.5985 205.224 23.7045C205.224 22.8106 205.387 22.0227 205.713 21.3409C206.043 20.6553 206.501 20.1212 207.088 19.7386C207.679 19.3523 208.368 19.1591 209.156 19.1591C209.611 19.1591 210.06 19.2348 210.503 19.3864C210.946 19.5379 211.349 19.7841 211.713 20.125C212.077 20.4621 212.366 20.9091 212.582 21.4659C212.798 22.0227 212.906 22.7083 212.906 23.5227V24.0909H206.179V22.9318H211.543C211.543 22.4394 211.444 22 211.247 21.6136C211.054 21.2273 210.777 20.9223 210.418 20.6989C210.062 20.4754 209.641 20.3636 209.156 20.3636C208.622 20.3636 208.16 20.4962 207.77 20.7614C207.384 21.0227 207.086 21.3636 206.878 21.7841C206.67 22.2045 206.565 22.6553 206.565 23.1364V23.9091C206.565 24.5682 206.679 25.1269 206.906 25.5852C207.137 26.0398 207.457 26.3864 207.866 26.625C208.276 26.8598 208.751 26.9773 209.293 26.9773C209.645 26.9773 209.963 26.928 210.247 26.8295C210.535 26.7273 210.783 26.5758 210.991 26.375C211.2 26.1705 211.361 25.9167 211.474 25.6136L212.77 25.9773C212.634 26.4167 212.404 26.803 212.082 27.1364C211.76 27.4659 211.363 27.7235 210.889 27.9091C210.416 28.0909 209.884 28.1818 209.293 28.1818ZM216.287 16.3636V28H214.946V16.3636H216.287ZM222.402 28.1818C221.561 28.1818 220.836 27.9962 220.226 27.625C219.62 27.25 219.152 26.7273 218.822 26.0568C218.497 25.3826 218.334 24.5985 218.334 23.7045C218.334 22.8106 218.497 22.0227 218.822 21.3409C219.152 20.6553 219.61 20.1212 220.197 19.7386C220.788 19.3523 221.478 19.1591 222.266 19.1591C222.72 19.1591 223.169 19.2348 223.612 19.3864C224.055 19.5379 224.459 19.7841 224.822 20.125C225.186 20.4621 225.476 20.9091 225.692 21.4659C225.908 22.0227 226.016 22.7083 226.016 23.5227V24.0909H219.288V22.9318H224.652C224.652 22.4394 224.554 22 224.357 21.6136C224.163 21.2273 223.887 20.9223 223.527 20.6989C223.171 20.4754 222.75 20.3636 222.266 20.3636C221.732 20.3636 221.269 20.4962 220.879 20.7614C220.493 21.0227 220.196 21.3636 219.987 21.7841C219.779 22.2045 219.675 22.6553 219.675 23.1364V23.9091C219.675 24.5682 219.788 25.1269 220.016 25.5852C220.247 26.0398 220.567 26.3864 220.976 26.625C221.385 26.8598 221.86 26.9773 222.402 26.9773C222.754 26.9773 223.072 26.928 223.357 26.8295C223.644 26.7273 223.893 26.5758 224.101 26.375C224.309 26.1705 224.47 25.9167 224.584 25.6136L225.879 25.9773C225.743 26.4167 225.514 26.803 225.192 27.1364C224.87 27.4659 224.472 27.7235 223.999 27.9091C223.525 28.0909 222.993 28.1818 222.402 28.1818ZM228.055 28V19.2727H229.351V20.6364H229.464C229.646 20.1705 229.94 19.8087 230.345 19.5511C230.75 19.2898 231.237 19.1591 231.805 19.1591C232.381 19.1591 232.86 19.2898 233.243 19.5511C233.629 19.8087 233.93 20.1705 234.146 20.6364H234.237C234.461 20.1856 234.796 19.8277 235.243 19.5625C235.69 19.2936 236.226 19.1591 236.851 19.1591C237.631 19.1591 238.269 19.4034 238.766 19.892C239.262 20.3769 239.51 21.1326 239.51 22.1591V28H238.169V22.1591C238.169 21.5152 237.993 21.0549 237.641 20.7784C237.288 20.5019 236.874 20.3636 236.396 20.3636C235.783 20.3636 235.307 20.5492 234.97 20.9205C234.633 21.2879 234.464 21.7538 234.464 22.3182V28H233.101V22.0227C233.101 21.5265 232.94 21.1269 232.618 20.8239C232.296 20.517 231.881 20.3636 231.374 20.3636C231.025 20.3636 230.699 20.4564 230.396 20.642C230.097 20.8277 229.855 21.0852 229.669 21.4148C229.487 21.7405 229.396 22.1174 229.396 22.5455V28H228.055ZM245.621 28.1818C244.78 28.1818 244.054 27.9962 243.445 27.625C242.839 27.25 242.371 26.7273 242.041 26.0568C241.715 25.3826 241.553 24.5985 241.553 23.7045C241.553 22.8106 241.715 22.0227 242.041 21.3409C242.371 20.6553 242.829 20.1212 243.416 19.7386C244.007 19.3523 244.696 19.1591 245.484 19.1591C245.939 19.1591 246.388 19.2348 246.831 19.3864C247.274 19.5379 247.678 19.7841 248.041 20.125C248.405 20.4621 248.695 20.9091 248.911 21.4659C249.126 22.0227 249.234 22.7083 249.234 23.5227V24.0909H242.507V22.9318H247.871C247.871 22.4394 247.772 22 247.575 21.6136C247.382 21.2273 247.106 20.9223 246.746 20.6989C246.39 20.4754 245.969 20.3636 245.484 20.3636C244.95 20.3636 244.488 20.4962 244.098 20.7614C243.712 21.0227 243.414 21.3636 243.206 21.7841C242.998 22.2045 242.893 22.6553 242.893 23.1364V23.9091C242.893 24.5682 243.007 25.1269 243.234 25.5852C243.465 26.0398 243.786 26.3864 244.195 26.625C244.604 26.8598 245.079 26.9773 245.621 26.9773C245.973 26.9773 246.291 26.928 246.575 26.8295C246.863 26.7273 247.111 26.5758 247.32 26.375C247.528 26.1705 247.689 25.9167 247.803 25.6136L249.098 25.9773C248.962 26.4167 248.732 26.803 248.411 27.1364C248.089 27.4659 247.691 27.7235 247.217 27.9091C246.744 28.0909 246.212 28.1818 245.621 28.1818ZM252.615 22.75V28H251.274V19.2727H252.57V20.6364H252.683C252.888 20.1932 253.198 19.8371 253.615 19.5682C254.032 19.2955 254.57 19.1591 255.229 19.1591C255.82 19.1591 256.337 19.2803 256.78 19.5227C257.223 19.7614 257.568 20.125 257.814 20.6136C258.06 21.0985 258.183 21.7121 258.183 22.4545V28H256.842V22.5455C256.842 21.8598 256.664 21.3258 256.308 20.9432C255.952 20.5568 255.464 20.3636 254.842 20.3636C254.414 20.3636 254.032 20.4564 253.695 20.642C253.361 20.8277 253.098 21.0985 252.905 21.4545C252.712 21.8106 252.615 22.2424 252.615 22.75ZM264.429 19.2727V20.4091H259.906V19.2727H264.429ZM261.224 17.1818H262.565V25.5C262.565 25.8788 262.62 26.1629 262.73 26.3523C262.844 26.5379 262.988 26.6629 263.162 26.7273C263.34 26.7879 263.527 26.8182 263.724 26.8182C263.872 26.8182 263.993 26.8106 264.088 26.7955C264.183 26.7765 264.259 26.7614 264.315 26.75L264.588 27.9545C264.497 27.9886 264.37 28.0227 264.207 28.0568C264.045 28.0947 263.838 28.1136 263.588 28.1136C263.209 28.1136 262.838 28.0322 262.474 27.8693C262.115 27.7064 261.815 27.4583 261.577 27.125C261.342 26.7917 261.224 26.3712 261.224 25.8636V17.1818ZM272.472 21.2273L271.267 21.5682C271.191 21.3674 271.08 21.1723 270.932 20.983C270.788 20.7898 270.591 20.6307 270.341 20.5057C270.091 20.3807 269.771 20.3182 269.381 20.3182C268.847 20.3182 268.402 20.4413 268.045 20.6875C267.693 20.9299 267.517 21.2386 267.517 21.6136C267.517 21.947 267.638 22.2102 267.881 22.4034C268.123 22.5966 268.502 22.7576 269.017 22.8864L270.312 23.2045C271.093 23.3939 271.674 23.6837 272.057 24.0739C272.439 24.4602 272.631 24.9583 272.631 25.5682C272.631 26.0682 272.487 26.5152 272.199 26.9091C271.915 27.303 271.517 27.6136 271.006 27.8409C270.494 28.0682 269.9 28.1818 269.222 28.1818C268.331 28.1818 267.595 27.9886 267.011 27.6023C266.428 27.2159 266.059 26.6515 265.903 25.9091L267.176 25.5909C267.297 26.0606 267.527 26.4129 267.864 26.6477C268.205 26.8826 268.65 27 269.199 27C269.824 27 270.32 26.8674 270.688 26.6023C271.059 26.3333 271.244 26.0114 271.244 25.6364C271.244 25.3333 271.138 25.0795 270.926 24.875C270.714 24.6667 270.388 24.5114 269.949 24.4091L268.494 24.0682C267.695 23.8788 267.108 23.5852 266.733 23.1875C266.362 22.786 266.176 22.2841 266.176 21.6818C266.176 21.1894 266.314 20.7538 266.591 20.375C266.871 19.9962 267.252 19.6989 267.733 19.483C268.218 19.267 268.767 19.1591 269.381 19.1591C270.244 19.1591 270.922 19.3485 271.415 19.7273C271.911 20.1061 272.263 20.6061 272.472 21.2273ZM282.695 28.1818C281.907 28.1818 281.215 27.9943 280.621 27.6193C280.03 27.2443 279.568 26.7197 279.234 26.0455C278.905 25.3712 278.74 24.5833 278.74 23.6818C278.74 22.7727 278.905 21.9792 279.234 21.3011C279.568 20.6231 280.03 20.0966 280.621 19.7216C281.215 19.3466 281.907 19.1591 282.695 19.1591C283.482 19.1591 284.172 19.3466 284.763 19.7216C285.357 20.0966 285.82 20.6231 286.149 21.3011C286.482 21.9792 286.649 22.7727 286.649 23.6818C286.649 24.5833 286.482 25.3712 286.149 26.0455C285.82 26.7197 285.357 27.2443 284.763 27.6193C284.172 27.9943 283.482 28.1818 282.695 28.1818ZM282.695 26.9773C283.293 26.9773 283.786 26.8239 284.172 26.517C284.558 26.2102 284.844 25.8068 285.03 25.3068C285.215 24.8068 285.308 24.2652 285.308 23.6818C285.308 23.0985 285.215 22.5549 285.03 22.0511C284.844 21.5473 284.558 21.1402 284.172 20.8295C283.786 20.5189 283.293 20.3636 282.695 20.3636C282.096 20.3636 281.604 20.5189 281.217 20.8295C280.831 21.1402 280.545 21.5473 280.359 22.0511C280.174 22.5549 280.081 23.0985 280.081 23.6818C280.081 24.2652 280.174 24.8068 280.359 25.3068C280.545 25.8068 280.831 26.2102 281.217 26.517C281.604 26.8239 282.096 26.9773 282.695 26.9773ZM292.582 19.2727V20.4091H287.878V19.2727H292.582ZM289.287 28V18.0682C289.287 17.5682 289.404 17.1515 289.639 16.8182C289.874 16.4848 290.179 16.2348 290.554 16.0682C290.929 15.9015 291.325 15.8182 291.741 15.8182C292.071 15.8182 292.34 15.8447 292.548 15.8977C292.757 15.9508 292.912 16 293.014 16.0455L292.628 17.2045C292.56 17.1818 292.465 17.1534 292.344 17.1193C292.226 17.0852 292.071 17.0682 291.878 17.0682C291.435 17.0682 291.115 17.1799 290.918 17.4034C290.724 17.6269 290.628 17.9545 290.628 18.3864V28H289.287ZM301.53 28.2045C300.977 28.2045 300.475 28.1004 300.024 27.892C299.573 27.6799 299.215 27.375 298.95 26.9773C298.685 26.5758 298.553 26.0909 298.553 25.5227C298.553 25.0227 298.651 24.6174 298.848 24.3068C299.045 23.9924 299.308 23.7462 299.638 23.5682C299.967 23.3902 300.331 23.2576 300.729 23.1705C301.13 23.0795 301.534 23.0076 301.939 22.9545C302.469 22.8864 302.899 22.8352 303.229 22.8011C303.562 22.7633 303.804 22.7008 303.956 22.6136C304.111 22.5265 304.189 22.375 304.189 22.1591V22.1136C304.189 21.553 304.036 21.1174 303.729 20.8068C303.426 20.4962 302.965 20.3409 302.348 20.3409C301.708 20.3409 301.206 20.4811 300.842 20.7614C300.479 21.0417 300.223 21.3409 300.075 21.6591L298.803 21.2045C299.03 20.6742 299.333 20.2614 299.712 19.9659C300.094 19.6667 300.511 19.4583 300.962 19.3409C301.416 19.2197 301.863 19.1591 302.303 19.1591C302.583 19.1591 302.905 19.1932 303.268 19.2614C303.636 19.3258 303.99 19.4602 304.331 19.6648C304.676 19.8693 304.962 20.178 305.189 20.5909C305.416 21.0038 305.53 21.5568 305.53 22.25V28H304.189V26.8182H304.121C304.03 27.0076 303.878 27.2102 303.666 27.4261C303.454 27.642 303.172 27.8258 302.82 27.9773C302.467 28.1288 302.037 28.2045 301.53 28.2045ZM301.734 27C302.265 27 302.712 26.8958 303.075 26.6875C303.443 26.4792 303.719 26.2102 303.905 25.8807C304.094 25.5511 304.189 25.2045 304.189 24.8409V23.6136C304.132 23.6818 304.007 23.7443 303.814 23.8011C303.625 23.8542 303.405 23.9015 303.155 23.9432C302.909 23.9811 302.668 24.0152 302.433 24.0455C302.202 24.072 302.015 24.0947 301.871 24.1136C301.522 24.1591 301.196 24.233 300.893 24.3352C300.594 24.4337 300.352 24.5833 300.166 24.7841C299.984 24.9811 299.893 25.25 299.893 25.5909C299.893 26.0568 300.066 26.4091 300.411 26.6477C300.759 26.8826 301.2 27 301.734 27ZM319.614 19.2727L316.386 28H315.023L311.795 19.2727H313.25L315.659 26.2273H315.75L318.159 19.2727H319.614ZM323.686 28.2045C323.133 28.2045 322.631 28.1004 322.18 27.892C321.73 27.6799 321.372 27.375 321.107 26.9773C320.841 26.5758 320.709 26.0909 320.709 25.5227C320.709 25.0227 320.807 24.6174 321.004 24.3068C321.201 23.9924 321.464 23.7462 321.794 23.5682C322.124 23.3902 322.487 23.2576 322.885 23.1705C323.286 23.0795 323.69 23.0076 324.095 22.9545C324.625 22.8864 325.055 22.8352 325.385 22.8011C325.718 22.7633 325.961 22.7008 326.112 22.6136C326.268 22.5265 326.345 22.375 326.345 22.1591V22.1136C326.345 21.553 326.192 21.1174 325.885 20.8068C325.582 20.4962 325.122 20.3409 324.504 20.3409C323.864 20.3409 323.362 20.4811 322.999 20.7614C322.635 21.0417 322.379 21.3409 322.232 21.6591L320.959 21.2045C321.186 20.6742 321.489 20.2614 321.868 19.9659C322.25 19.6667 322.667 19.4583 323.118 19.3409C323.572 19.2197 324.019 19.1591 324.459 19.1591C324.739 19.1591 325.061 19.1932 325.425 19.2614C325.792 19.3258 326.146 19.4602 326.487 19.6648C326.832 19.8693 327.118 20.178 327.345 20.5909C327.572 21.0038 327.686 21.5568 327.686 22.25V28H326.345V26.8182H326.277C326.186 27.0076 326.035 27.2102 325.822 27.4261C325.61 27.642 325.328 27.8258 324.976 27.9773C324.624 28.1288 324.194 28.2045 323.686 28.2045ZM323.891 27C324.421 27 324.868 26.8958 325.232 26.6875C325.599 26.4792 325.875 26.2102 326.061 25.8807C326.25 25.5511 326.345 25.2045 326.345 24.8409V23.6136C326.288 23.6818 326.163 23.7443 325.97 23.8011C325.781 23.8542 325.561 23.9015 325.311 23.9432C325.065 23.9811 324.824 24.0152 324.589 24.0455C324.358 24.072 324.171 24.0947 324.027 24.1136C323.679 24.1591 323.353 24.233 323.05 24.3352C322.75 24.4337 322.508 24.5833 322.322 24.7841C322.141 24.9811 322.05 25.25 322.05 25.5909C322.05 26.0568 322.222 26.4091 322.567 26.6477C322.915 26.8826 323.357 27 323.891 27ZM331.474 16.3636V28H330.134V16.3636H331.474ZM333.93 28V19.2727H335.271V28H333.93ZM334.612 17.8182C334.351 17.8182 334.125 17.7292 333.936 17.5511C333.75 17.3731 333.658 17.1591 333.658 16.9091C333.658 16.6591 333.75 16.4451 333.936 16.267C334.125 16.089 334.351 16 334.612 16C334.874 16 335.097 16.089 335.283 16.267C335.472 16.4451 335.567 16.6591 335.567 16.9091C335.567 17.1591 335.472 17.3731 335.283 17.5511C335.097 17.7292 334.874 17.8182 334.612 17.8182ZM341.023 28.1818C340.295 28.1818 339.653 27.9981 339.097 27.6307C338.54 27.2595 338.104 26.7367 337.79 26.0625C337.475 25.3845 337.318 24.5833 337.318 23.6591C337.318 22.7424 337.475 21.947 337.79 21.2727C338.104 20.5985 338.542 20.0777 339.102 19.7102C339.663 19.3428 340.311 19.1591 341.045 19.1591C341.614 19.1591 342.063 19.2538 342.392 19.4432C342.725 19.6288 342.979 19.8409 343.153 20.0795C343.331 20.3144 343.47 20.5076 343.568 20.6591H343.682V16.3636H345.023V28H343.727V26.6591H343.568C343.47 26.8182 343.33 27.0189 343.148 27.2614C342.966 27.5 342.706 27.714 342.369 27.9034C342.032 28.089 341.583 28.1818 341.023 28.1818ZM341.205 26.9773C341.742 26.9773 342.197 26.8371 342.568 26.5568C342.939 26.2727 343.222 25.8807 343.415 25.3807C343.608 24.8769 343.705 24.2955 343.705 23.6364C343.705 22.9848 343.61 22.4148 343.42 21.9261C343.231 21.4337 342.951 21.0511 342.58 20.7784C342.208 20.5019 341.75 20.3636 341.205 20.3636C340.636 20.3636 340.163 20.5095 339.784 20.8011C339.409 21.089 339.127 21.4811 338.938 21.9773C338.752 22.4697 338.659 23.0227 338.659 23.6364C338.659 24.2576 338.754 24.822 338.943 25.3295C339.136 25.8333 339.42 26.2348 339.795 26.5341C340.174 26.8295 340.644 26.9773 341.205 26.9773ZM361.574 16.3636V28H360.21L353.869 18.8636H353.756V28H352.347V16.3636H353.71L360.074 25.5227H360.188V16.3636H361.574ZM367.984 28H364.393V16.3636H368.143C369.272 16.3636 370.238 16.5966 371.041 17.0625C371.844 17.5246 372.46 18.1894 372.888 19.0568C373.316 19.9205 373.53 20.9545 373.53 22.1591C373.53 23.3712 373.314 24.4148 372.882 25.2898C372.45 26.161 371.821 26.8314 370.996 27.3011C370.17 27.767 369.166 28 367.984 28ZM365.803 26.75H367.893C368.856 26.75 369.653 26.5644 370.286 26.1932C370.918 25.822 371.39 25.2936 371.7 24.608C372.011 23.9223 372.166 23.1061 372.166 22.1591C372.166 21.2197 372.013 20.411 371.706 19.733C371.399 19.0511 370.941 18.5284 370.331 18.1648C369.721 17.7973 368.962 17.6136 368.053 17.6136H365.803V26.75ZM375.824 28H374.347L378.619 16.3636H380.074L384.347 28H382.869L379.392 18.2045H379.301L375.824 28ZM376.369 23.4545H382.324V24.7045H376.369V23.4545ZM390.477 28V19.2727H391.818V28H390.477ZM391.159 17.8182C390.898 17.8182 390.672 17.7292 390.483 17.5511C390.297 17.3731 390.205 17.1591 390.205 16.9091C390.205 16.6591 390.297 16.4451 390.483 16.267C390.672 16.089 390.898 16 391.159 16C391.42 16 391.644 16.089 391.83 16.267C392.019 16.4451 392.114 16.6591 392.114 16.9091C392.114 17.1591 392.019 17.3731 391.83 17.5511C391.644 17.7292 391.42 17.8182 391.159 17.8182ZM395.615 22.75V28H394.274V19.2727H395.57V20.6364H395.683C395.888 20.1932 396.198 19.8371 396.615 19.5682C397.032 19.2955 397.57 19.1591 398.229 19.1591C398.82 19.1591 399.337 19.2803 399.78 19.5227C400.223 19.7614 400.568 20.125 400.814 20.6136C401.06 21.0985 401.183 21.7121 401.183 22.4545V28H399.842V22.5455C399.842 21.8598 399.664 21.3258 399.308 20.9432C398.952 20.5568 398.464 20.3636 397.842 20.3636C397.414 20.3636 397.032 20.4564 396.695 20.642C396.361 20.8277 396.098 21.0985 395.905 21.4545C395.712 21.8106 395.615 22.2424 395.615 22.75ZM411.679 28.1818C410.891 28.1818 410.2 27.9943 409.605 27.6193C409.014 27.2443 408.552 26.7197 408.219 26.0455C407.889 25.3712 407.724 24.5833 407.724 23.6818C407.724 22.7727 407.889 21.9792 408.219 21.3011C408.552 20.6231 409.014 20.0966 409.605 19.7216C410.2 19.3466 410.891 19.1591 411.679 19.1591C412.467 19.1591 413.156 19.3466 413.747 19.7216C414.342 20.0966 414.804 20.6231 415.134 21.3011C415.467 21.9792 415.634 22.7727 415.634 23.6818C415.634 24.5833 415.467 25.3712 415.134 26.0455C414.804 26.7197 414.342 27.2443 413.747 27.6193C413.156 27.9943 412.467 28.1818 411.679 28.1818ZM411.679 26.9773C412.277 26.9773 412.77 26.8239 413.156 26.517C413.543 26.2102 413.829 25.8068 414.014 25.3068C414.2 24.8068 414.293 24.2652 414.293 23.6818C414.293 23.0985 414.2 22.5549 414.014 22.0511C413.829 21.5473 413.543 21.1402 413.156 20.8295C412.77 20.5189 412.277 20.3636 411.679 20.3636C411.08 20.3636 410.588 20.5189 410.202 20.8295C409.815 21.1402 409.529 21.5473 409.344 22.0511C409.158 22.5549 409.065 23.0985 409.065 23.6818C409.065 24.2652 409.158 24.8068 409.344 25.3068C409.529 25.8068 409.815 26.2102 410.202 26.517C410.588 26.8239 411.08 26.9773 411.679 26.9773ZM423.18 24.4318V19.2727H424.521V28H423.18V26.5227H423.089C422.885 26.9659 422.567 27.3428 422.135 27.6534C421.703 27.9602 421.158 28.1136 420.499 28.1136C419.953 28.1136 419.468 27.9943 419.044 27.7557C418.62 27.5133 418.286 27.1496 418.044 26.6648C417.802 26.1761 417.68 25.5606 417.68 24.8182V19.2727H419.021V24.7273C419.021 25.3636 419.199 25.8712 419.555 26.25C419.915 26.6288 420.374 26.8182 420.93 26.8182C421.264 26.8182 421.603 26.733 421.947 26.5625C422.296 26.392 422.588 26.1307 422.822 25.7784C423.061 25.4261 423.18 24.9773 423.18 24.4318ZM426.977 28V19.2727H428.273V20.5909H428.364C428.523 20.1591 428.811 19.8087 429.227 19.5398C429.644 19.2708 430.114 19.1364 430.636 19.1364C430.735 19.1364 430.858 19.1383 431.006 19.142C431.153 19.1458 431.265 19.1515 431.341 19.1591V20.5227C431.295 20.5114 431.191 20.4943 431.028 20.4716C430.869 20.4451 430.701 20.4318 430.523 20.4318C430.098 20.4318 429.72 20.5208 429.386 20.6989C429.057 20.8731 428.795 21.1155 428.602 21.4261C428.413 21.733 428.318 22.0833 428.318 22.4773V28H426.977ZM437.43 19.2727H438.771V28.6364C438.771 29.1742 438.679 29.6402 438.493 30.0341C438.311 30.428 438.035 30.733 437.663 30.9489C437.296 31.1648 436.832 31.2727 436.271 31.2727C436.226 31.2727 436.18 31.2727 436.135 31.2727C436.089 31.2727 436.044 31.2727 435.999 31.2727V30.0227C436.044 30.0227 436.086 30.0227 436.124 30.0227C436.161 30.0227 436.203 30.0227 436.249 30.0227C436.658 30.0227 436.957 29.9015 437.146 29.6591C437.336 29.4205 437.43 29.0795 437.43 28.6364V19.2727ZM438.089 17.8182C437.828 17.8182 437.603 17.7292 437.413 17.5511C437.228 17.3731 437.135 17.1591 437.135 16.9091C437.135 16.6591 437.228 16.4451 437.413 16.267C437.603 16.089 437.828 16 438.089 16C438.351 16 438.574 16.089 438.76 16.267C438.949 16.4451 439.044 16.6591 439.044 16.9091C439.044 17.1591 438.949 17.3731 438.76 17.5511C438.574 17.7292 438.351 17.8182 438.089 17.8182ZM446.727 24.4318V19.2727H448.068V28H446.727V26.5227H446.636C446.432 26.9659 446.114 27.3428 445.682 27.6534C445.25 27.9602 444.705 28.1136 444.045 28.1136C443.5 28.1136 443.015 27.9943 442.591 27.7557C442.167 27.5133 441.833 27.1496 441.591 26.6648C441.348 26.1761 441.227 25.5606 441.227 24.8182V19.2727H442.568V24.7273C442.568 25.3636 442.746 25.8712 443.102 26.25C443.462 26.6288 443.92 26.8182 444.477 26.8182C444.811 26.8182 445.15 26.733 445.494 26.5625C445.843 26.392 446.134 26.1307 446.369 25.7784C446.608 25.4261 446.727 24.9773 446.727 24.4318ZM450.524 28V19.2727H451.82V20.5909H451.911C452.07 20.1591 452.357 19.8087 452.774 19.5398C453.191 19.2708 453.661 19.1364 454.183 19.1364C454.282 19.1364 454.405 19.1383 454.553 19.142C454.7 19.1458 454.812 19.1515 454.888 19.1591V20.5227C454.842 20.5114 454.738 20.4943 454.575 20.4716C454.416 20.4451 454.248 20.4318 454.07 20.4318C453.645 20.4318 453.267 20.5208 452.933 20.6989C452.604 20.8731 452.342 21.1155 452.149 21.4261C451.96 21.733 451.865 22.0833 451.865 22.4773V28H450.524ZM456.477 28V19.2727H457.818V28H456.477ZM457.159 17.8182C456.898 17.8182 456.672 17.7292 456.483 17.5511C456.297 17.3731 456.205 17.1591 456.205 16.9091C456.205 16.6591 456.297 16.4451 456.483 16.267C456.672 16.089 456.898 16 457.159 16C457.42 16 457.644 16.089 457.83 16.267C458.019 16.4451 458.114 16.6591 458.114 16.9091C458.114 17.1591 458.019 17.3731 457.83 17.5511C457.644 17.7292 457.42 17.8182 457.159 17.8182ZM466.456 21.2273L465.251 21.5682C465.176 21.3674 465.064 21.1723 464.916 20.983C464.772 20.7898 464.575 20.6307 464.325 20.5057C464.075 20.3807 463.755 20.3182 463.365 20.3182C462.831 20.3182 462.386 20.4413 462.03 20.6875C461.678 20.9299 461.501 21.2386 461.501 21.6136C461.501 21.947 461.623 22.2102 461.865 22.4034C462.107 22.5966 462.486 22.7576 463.001 22.8864L464.297 23.2045C465.077 23.3939 465.659 23.6837 466.041 24.0739C466.424 24.4602 466.615 24.9583 466.615 25.5682C466.615 26.0682 466.471 26.5152 466.183 26.9091C465.899 27.303 465.501 27.6136 464.99 27.8409C464.479 28.0682 463.884 28.1818 463.206 28.1818C462.316 28.1818 461.579 27.9886 460.996 27.6023C460.412 27.2159 460.043 26.6515 459.888 25.9091L461.161 25.5909C461.282 26.0606 461.511 26.4129 461.848 26.6477C462.189 26.8826 462.634 27 463.183 27C463.808 27 464.304 26.8674 464.672 26.6023C465.043 26.3333 465.229 26.0114 465.229 25.6364C465.229 25.3333 465.123 25.0795 464.911 24.875C464.698 24.6667 464.373 24.5114 463.933 24.4091L462.479 24.0682C461.679 23.8788 461.092 23.5852 460.717 23.1875C460.346 22.786 460.161 22.2841 460.161 21.6818C460.161 21.1894 460.299 20.7538 460.575 20.375C460.856 19.9962 461.236 19.6989 461.717 19.483C462.202 19.267 462.751 19.1591 463.365 19.1591C464.229 19.1591 464.907 19.3485 465.399 19.7273C465.895 20.1061 466.248 20.6061 466.456 21.2273ZM471.929 28.1818C471.202 28.1818 470.56 27.9981 470.003 27.6307C469.446 27.2595 469.01 26.7367 468.696 26.0625C468.382 25.3845 468.224 24.5833 468.224 23.6591C468.224 22.7424 468.382 21.947 468.696 21.2727C469.01 20.5985 469.448 20.0777 470.009 19.7102C470.569 19.3428 471.217 19.1591 471.952 19.1591C472.52 19.1591 472.969 19.2538 473.298 19.4432C473.632 19.6288 473.885 19.8409 474.06 20.0795C474.238 20.3144 474.376 20.5076 474.474 20.6591H474.588V16.3636H475.929V28H474.634V26.6591H474.474C474.376 26.8182 474.236 27.0189 474.054 27.2614C473.872 27.5 473.613 27.714 473.276 27.9034C472.938 28.089 472.49 28.1818 471.929 28.1818ZM472.111 26.9773C472.649 26.9773 473.103 26.8371 473.474 26.5568C473.846 26.2727 474.128 25.8807 474.321 25.3807C474.514 24.8769 474.611 24.2955 474.611 23.6364C474.611 22.9848 474.516 22.4148 474.327 21.9261C474.137 21.4337 473.857 21.0511 473.486 20.7784C473.115 20.5019 472.656 20.3636 472.111 20.3636C471.543 20.3636 471.069 20.5095 470.69 20.8011C470.315 21.089 470.033 21.4811 469.844 21.9773C469.658 22.4697 469.565 23.0227 469.565 23.6364C469.565 24.2576 469.66 24.822 469.849 25.3295C470.043 25.8333 470.327 26.2348 470.702 26.5341C471.08 26.8295 471.55 26.9773 472.111 26.9773ZM478.571 28V19.2727H479.912V28H478.571ZM479.253 17.8182C478.991 17.8182 478.766 17.7292 478.577 17.5511C478.391 17.3731 478.298 17.1591 478.298 16.9091C478.298 16.6591 478.391 16.4451 478.577 16.267C478.766 16.089 478.991 16 479.253 16C479.514 16 479.738 16.089 479.923 16.267C480.113 16.4451 480.207 16.6591 480.207 16.9091C480.207 17.1591 480.113 17.3731 479.923 17.5511C479.738 17.7292 479.514 17.8182 479.253 17.8182ZM485.913 28.1818C485.095 28.1818 484.391 27.9886 483.8 27.6023C483.209 27.2159 482.754 26.6837 482.436 26.0057C482.118 25.3277 481.959 24.553 481.959 23.6818C481.959 22.7955 482.122 22.0133 482.447 21.3352C482.777 20.6534 483.235 20.1212 483.822 19.7386C484.413 19.3523 485.103 19.1591 485.891 19.1591C486.504 19.1591 487.057 19.2727 487.55 19.5C488.042 19.7273 488.446 20.0455 488.76 20.4545C489.074 20.8636 489.269 21.3409 489.345 21.8864H488.004C487.902 21.4886 487.675 21.1364 487.322 20.8295C486.974 20.5189 486.504 20.3636 485.913 20.3636C485.391 20.3636 484.932 20.5 484.538 20.7727C484.148 21.0417 483.843 21.4223 483.624 21.9148C483.408 22.4034 483.3 22.9773 483.3 23.6364C483.3 24.3106 483.406 24.8977 483.618 25.3977C483.834 25.8977 484.137 26.286 484.527 26.5625C484.921 26.839 485.383 26.9773 485.913 26.9773C486.262 26.9773 486.578 26.9167 486.862 26.7955C487.146 26.6742 487.387 26.5 487.584 26.2727C487.781 26.0455 487.921 25.7727 488.004 25.4545H489.345C489.269 25.9697 489.082 26.4337 488.783 26.8466C488.487 27.2557 488.095 27.5814 487.607 27.8239C487.122 28.0625 486.557 28.1818 485.913 28.1818ZM495.101 19.2727V20.4091H490.578V19.2727H495.101ZM491.896 17.1818H493.237V25.5C493.237 25.8788 493.292 26.1629 493.402 26.3523C493.516 26.5379 493.66 26.6629 493.834 26.7273C494.012 26.7879 494.199 26.8182 494.396 26.8182C494.544 26.8182 494.665 26.8106 494.76 26.7955C494.855 26.7765 494.93 26.7614 494.987 26.75L495.26 27.9545C495.169 27.9886 495.042 28.0227 494.879 28.0568C494.716 28.0947 494.51 28.1136 494.26 28.1136C493.881 28.1136 493.51 28.0322 493.146 27.8693C492.786 27.7064 492.487 27.4583 492.249 27.125C492.014 26.7917 491.896 26.3712 491.896 25.8636V17.1818ZM497.118 28V19.2727H498.459V28H497.118ZM497.8 17.8182C497.538 17.8182 497.313 17.7292 497.124 17.5511C496.938 17.3731 496.845 17.1591 496.845 16.9091C496.845 16.6591 496.938 16.4451 497.124 16.267C497.313 16.089 497.538 16 497.8 16C498.061 16 498.285 16.089 498.47 16.267C498.66 16.4451 498.754 16.6591 498.754 16.9091C498.754 17.1591 498.66 17.3731 498.47 17.5511C498.285 17.7292 498.061 17.8182 497.8 17.8182ZM504.46 28.1818C503.672 28.1818 502.981 27.9943 502.386 27.6193C501.795 27.2443 501.333 26.7197 501 26.0455C500.67 25.3712 500.506 24.5833 500.506 23.6818C500.506 22.7727 500.67 21.9792 501 21.3011C501.333 20.6231 501.795 20.0966 502.386 19.7216C502.981 19.3466 503.672 19.1591 504.46 19.1591C505.248 19.1591 505.938 19.3466 506.528 19.7216C507.123 20.0966 507.585 20.6231 507.915 21.3011C508.248 21.9792 508.415 22.7727 508.415 23.6818C508.415 24.5833 508.248 25.3712 507.915 26.0455C507.585 26.7197 507.123 27.2443 506.528 27.6193C505.938 27.9943 505.248 28.1818 504.46 28.1818ZM504.46 26.9773C505.059 26.9773 505.551 26.8239 505.938 26.517C506.324 26.2102 506.61 25.8068 506.795 25.3068C506.981 24.8068 507.074 24.2652 507.074 23.6818C507.074 23.0985 506.981 22.5549 506.795 22.0511C506.61 21.5473 506.324 21.1402 505.938 20.8295C505.551 20.5189 505.059 20.3636 504.46 20.3636C503.862 20.3636 503.369 20.5189 502.983 20.8295C502.597 21.1402 502.311 21.5473 502.125 22.0511C501.939 22.5549 501.847 23.0985 501.847 23.6818C501.847 24.2652 501.939 24.8068 502.125 25.3068C502.311 25.8068 502.597 26.2102 502.983 26.517C503.369 26.8239 503.862 26.9773 504.46 26.9773ZM511.803 22.75V28H510.462V19.2727H511.757V20.6364H511.871C512.075 20.1932 512.386 19.8371 512.803 19.5682C513.219 19.2955 513.757 19.1591 514.416 19.1591C515.007 19.1591 515.524 19.2803 515.967 19.5227C516.411 19.7614 516.755 20.125 517.001 20.6136C517.248 21.0985 517.371 21.7121 517.371 22.4545V28H516.03V22.5455C516.03 21.8598 515.852 21.3258 515.496 20.9432C515.14 20.5568 514.651 20.3636 514.03 20.3636C513.602 20.3636 513.219 20.4564 512.882 20.642C512.549 20.8277 512.286 21.0985 512.092 21.4545C511.899 21.8106 511.803 22.2424 511.803 22.75ZM521.571 24.7273V24.6591C521.579 23.9356 521.654 23.3598 521.798 22.9318C521.942 22.5038 522.147 22.1572 522.412 21.892C522.677 21.6269 522.995 21.3826 523.366 21.1591C523.59 21.0227 523.791 20.8617 523.969 20.6761C524.147 20.4867 524.287 20.2689 524.389 20.0227C524.495 19.7765 524.548 19.5038 524.548 19.2045C524.548 18.8333 524.461 18.5114 524.287 18.2386C524.113 17.9659 523.88 17.7557 523.588 17.608C523.296 17.4602 522.973 17.3864 522.616 17.3864C522.306 17.3864 522.007 17.4508 521.719 17.5795C521.431 17.7083 521.19 17.911 520.997 18.1875C520.804 18.464 520.692 18.8258 520.662 19.2727H519.23C519.26 18.6288 519.427 18.0777 519.73 17.6193C520.037 17.161 520.44 16.8106 520.94 16.5682C521.444 16.3258 522.003 16.2045 522.616 16.2045C523.283 16.2045 523.863 16.3371 524.355 16.6023C524.851 16.8674 525.234 17.2311 525.503 17.6932C525.776 18.1553 525.912 18.6818 525.912 19.2727C525.912 19.6894 525.848 20.0663 525.719 20.4034C525.594 20.7405 525.412 21.0417 525.173 21.3068C524.938 21.572 524.654 21.8068 524.321 22.0114C523.988 22.2197 523.721 22.4394 523.52 22.6705C523.319 22.8977 523.173 23.1686 523.082 23.483C522.991 23.7973 522.942 24.1894 522.935 24.6591V24.7273H521.571ZM522.298 28.0909C522.018 28.0909 521.777 27.9905 521.577 27.7898C521.376 27.589 521.276 27.3485 521.276 27.0682C521.276 26.7879 521.376 26.5473 521.577 26.3466C521.777 26.1458 522.018 26.0455 522.298 26.0455C522.579 26.0455 522.819 26.1458 523.02 26.3466C523.221 26.5473 523.321 26.7879 523.321 27.0682C523.321 27.2538 523.274 27.4242 523.179 27.5795C523.088 27.7348 522.965 27.8598 522.81 27.9545C522.658 28.0455 522.488 28.0909 522.298 28.0909Z" fill="#C0C0C3"/>
<rect x="551" y="8" width="28" height="28" rx="6" fill="#1D1D1D"/>
<path fill-rule="evenodd" clip-rule="evenodd" d="M558.703 15.5431C558.505 15.455 558.272 15.5048 558.128 15.6664C557.983 15.828 557.959 16.0645 558.068 16.252L561.421 22L558.068 27.7481C557.959 27.9355 557.983 28.172 558.128 28.3336C558.272 28.4952 558.505 28.545 558.703 28.4569L572.203 22.4569C572.384 22.3767 572.5 22.1976 572.5 22C572.5 21.8024 572.384 21.6234 572.203 21.5431L558.703 15.5431ZM562.346 21.6L559.712 17.086L570.769 22L559.712 26.914L562.346 22.4H566.5C566.721 22.4 566.9 22.2209 566.9 22C566.9 21.7791 566.721 21.6 566.5 21.6H562.346Z" fill="#C0C0C3"/>
<rect x="0.5" y="0.5" width="586" height="43" rx="7.5" stroke="#2D2D30"/>
</svg>
