<?xml version="1.0" encoding="UTF-8"?>
<svg id="Layer_1" xmlns="http://www.w3.org/2000/svg" version="1.1" viewBox="0 0 2533.92 1063.13">
  <!-- Generator: Adobe Illustrator 29.0.0, SVG Export Plug-In . SVG Version: 2.1.0 Build 186)  -->
  <defs>
    <style>
      .st0 {
        fill: #231f20;
      }
    </style>
  </defs>
  <path class="st0" d="M2014.44,544.65h26.14c24.46,0,100.34-.75,100.34-74.19s-70.87-74.34-108.68-74.34h-297.26v263.16h46.71v-114.62h171.45l141.95,114.62h71.17l-151.81-114.62ZM1782.07,509.56v-76.71h266.22c21.41,0,52.2,6.4,52.2,37.23,0,33.5-29.79,39.48-51.21,39.48h-267.21Z"/>
  <path class="st0" d="M692.97,524.84s35.08-11.93,35.08-56.83c0-47.43-32.34-71.89-85.01-71.89h-313v263.16h326.83c52.45,0,87.9-24.03,87.9-72.7,0-40-28.4-61.74-51.8-61.74ZM377.43,432.95l261.94.07c29,0,44.59,13.55,44.59,35.55,0,30.33-20.25,41.14-44.92,41.14l-261.61.18v-76.94ZM656.04,622.04h-278.61v-76.06s270.1-.01,270.94-.01c35.67,0,53.39,10.28,53.39,37.28,0,28.33-19.72,38.8-45.72,38.8Z"/>
  <polygon class="st0" points="1638.08 396.12 1638.08 509.63 1306.24 509.63 1306.24 396.12 1258.38 396.12 1258.39 659.28 1306.26 659.28 1306.26 544.66 1639.21 544.66 1639.21 659.28 1685.94 659.28 1685.94 396.12 1638.08 396.12"/>
  <path class="st0" d="M1079.38,396.18h73.3c35.17,0,56.76,16.39,56.76,55.73v207.37h-48v-114.56h-332.4v114.56h-48v-207.37c0-39.33,21.59-55.73,56.76-55.73h241.57ZM850.51,432.91c-16.12,0-21.47,6.84-21.47,20.3v56.4h332.4v-56.4c0-13.46-5.35-20.3-21.47-20.3h-289.46Z"/>
</svg>